<?xml version="1.0" encoding="utf-8"?>
<!-- Generator: Adobe Illustrator 22.1.0, SVG Export Plug-In . SVG Version: 6.00 Build 0)  -->
<svg version="1.1" id="Layer_1" xmlns="http://www.w3.org/2000/svg" xmlns:xlink="http://www.w3.org/1999/xlink" x="0px" y="0px"
	 viewBox="0 0 1189 736" style="enable-background:new 0 0 1189 736;" xml:space="preserve">
<style type="text/css">
	.st0{fill:#FFFFFF;}
	.st1{fill:#333366;}
</style>
<g>
	<polygon class="st0" points="1188,2 157.9,2 1.7,736.5 1031.8,736.5 	"/>
	<path class="st1" d="M1166,19.7H172.3c0,0,587,123.8,601,127.1c122.9,28.9,125.9,58.8,125.9,58.8c79-0.5,100.3,0.5,115,14.1
		c46.8,43.5-31.9,147.5-31.9,147.5C972,375,92.2,718.7,92.2,718.7h925L1166,19.7"/>
	<path class="st1" d="M863.6,248.8c-12.7,6.6-50.2,13.6-64.5,14.9c-13.2,1.1-19.7,1.1-19.7,4.7c0,5.5,17.7,3.6,24.2,3.6
		c29.3-0.2,141-7.5,168.7-3.9c21.3,2.8-2.8,44.6-9.1,70.6c-2.2,9.1,4.5,4.5,7.8-0.4c8.6-12.7,29.8-54.7,31.6-70.3
		c3.6-31.6-19.4-36.4-56.7-36.4l-59.6-0.1c-4.9,0.1-5.7,2-7.6,5.1C875.7,240.9,867.4,246.7,863.6,248.8"/>
	<path class="st1" d="M497.7,485.6L23.9,718.9l114-537.4h0h478.5c8,0.1,256.7,0.4,260.8,49.9H447.9l66.6,203.1
		c76.7-37.3,264.1-113.7,377.9-118.5c47.2-2,67.4,7.1,57.7,12.3c-5.8,3.1-52.6,10.3-88.7,19c-64.3,15.3-67.7,16.1-133.6,39.1
		C652.4,412.7,589.6,442.3,497.7,485.6"/>
</g>
</svg>
