<svg xmlns="http://www.w3.org/2000/svg" viewBox="0 0 239 239"><defs><style>.cls-1{fill:#353535;}.cls-2{fill:none;}</style></defs><title>air-drop</title><g id="Layer_2" data-name="Layer 2"><g id="Layer_2-2" data-name="Layer 2"><path class="cls-1" d="M210.59,66.75C201.69,29.48,164.3,1.5,119.5,1.5s-82.19,28-91.09,65.25c.42-.25.83-.49,1.26-.72l41.8,74.47H71v97h97v-97h-.61L210,66.41ZM119.5,60a46.34,46.34,0,0,1,32.88,13.16L129,140.5H110.24L86.8,73A46.36,46.36,0,0,1,119.5,60ZM72.61,140.5,30.54,65.55A47.93,47.93,0,0,1,53.1,60,46.34,46.34,0,0,1,85.72,72.94l23.46,67.56Zm38.09,20v-18h17.6v18Zm55.54-20H130.06l23.58-67.92A46.45,46.45,0,0,1,185.9,60a47.88,47.88,0,0,1,23.23,5.89Z"/><rect class="cls-2" width="239" height="239"/></g></g></svg>