<svg xmlns="http://www.w3.org/2000/svg" viewBox="0 0 239 239"><defs><style>.cls-1{fill:#353535;}.cls-2{fill:none;}</style></defs><title>alert2</title><g id="Layer_2" data-name="Layer 2"><g id="Layer_2-2" data-name="Layer 2"><path class="cls-1" d="M220.37,74.71,164.29,18.63a7.23,7.23,0,0,0-5.13-2.13H79.84a7.23,7.23,0,0,0-5.13,2.13L18.63,74.71a7.23,7.23,0,0,0-2.13,5.13v79.32a7.23,7.23,0,0,0,2.13,5.13l56.08,56.08a7.23,7.23,0,0,0,5.13,2.13h79.32a7.23,7.23,0,0,0,5.13-2.13l56.08-56.08a7.23,7.23,0,0,0,2.13-5.13V79.84A7.23,7.23,0,0,0,220.37,74.71Zm-90.13-13.1-3.11,82.09a7.26,7.26,0,0,1-7.25,7h-1.39a7.27,7.27,0,0,1-7.26-7l-3.11-82.09a7.27,7.27,0,0,1,7.26-7.54H123A7.26,7.26,0,0,1,130.24,61.61ZM119.5,200.72a12.06,12.06,0,1,1,12.06-12.06A12.06,12.06,0,0,1,119.5,200.72Z"/><rect class="cls-2" width="239" height="239"/></g></g></svg>