<svg xmlns="http://www.w3.org/2000/svg" viewBox="0 0 239 239"><defs><style>.cls-1{fill:#353535;}.cls-2{fill:none;}</style></defs><title>Asset 476</title><g id="Layer_2" data-name="Layer 2"><g id="Layer_2-2" data-name="Layer 2"><path class="cls-1" d="M229.28,73.15l-79.62-46a12.06,12.06,0,0,0-18.09,10.44V61.29h-34q-34.37,0-48.55,3.12A53.68,53.68,0,0,0,25,75.93q-9.76,8.4-15.55,22.45t-5.8,36.71q0,27.33,6.32,41.46t16.4,22.32a52.39,52.39,0,0,0,21.15,10.8Q64,213.45,96,213.45h93.78a8,8,0,0,0,8-8V182.92a8,8,0,0,0-8-8H94.42q-24.6,0-31.89-1.43a30.93,30.93,0,0,1-18.81-11.78q-7.09-9.3-7.1-25.45,0-16.39,6.71-24.73a26.49,26.49,0,0,1,16.46-10q9.76-1.7,32.41-1.69h39.37v29.74A12.06,12.06,0,0,0,149.66,140l79.62-46A12.06,12.06,0,0,0,229.28,73.15Z"/><rect class="cls-2" width="239" height="239"/></g></g></svg>