<svg xmlns="http://www.w3.org/2000/svg" viewBox="0 0 239 239"><defs><style>.cls-1{fill:#353535;}.cls-2{fill:none;}</style></defs><title>Asset 486</title><g id="Layer_2" data-name="Layer 2"><g id="Layer_2-2" data-name="Layer 2"><path class="cls-1" d="M114.46,11.18A108.52,108.52,0,0,0,27,66.34l1.09.5-.18.12L22.13,64.3l-5.39-2.49a5.58,5.58,0,0,0-7.9,5.58l5.93,65.16a5.59,5.59,0,0,0,8.78,4.06l10-7.07.14.3,22.84-16.12-.09-.32L77,98.89a5.58,5.58,0,0,0-.88-9.63l-9.8-4.53a64.63,64.63,0,0,1,55.29-31.48c35.88,0,65,29.66,65,66.25a67.83,67.83,0,0,1-1,11.57l2.39,1.24a18.87,18.87,0,0,1-17.37,33.51l-1.72-.89a64,64,0,0,1-78.75,12.52,20.16,20.16,0,0,0-21.58,1l-.45.31c-12.94,9.13-11.92,28.78,2,36.31A108.57,108.57,0,0,0,230,125.85C233.74,61,179.27,7,114.46,11.18Z"/><path class="cls-1" d="M120.61,63.92a9.27,9.27,0,0,0-9.28,9.27l0,44.64a11.41,11.41,0,0,0,5.53,9.15L176.3,157.8a9.28,9.28,0,1,0,8.54-16.48l-55-28.48,0-39.64A9.28,9.28,0,0,0,120.61,63.92Z"/><rect class="cls-2" width="239" height="239"/></g></g></svg>