<svg xmlns="http://www.w3.org/2000/svg" viewBox="0 0 239 239"><defs><style>.cls-1{fill:#353535;}.cls-2{fill:none;}</style></defs><title>Asset 485</title><g id="Layer_2" data-name="Layer 2"><g id="Layer_2-2" data-name="Layer 2"><path class="cls-1" d="M114.46,11.18A108.52,108.52,0,0,0,27,66.34l1.09.5-.18.12L22.13,64.3l-5.39-2.49a5.58,5.58,0,0,0-7.9,5.58l5.93,65.16a5.59,5.59,0,0,0,8.78,4.06l10-7.07.14.3,22.84-16.12-.09-.32L77,98.89a5.58,5.58,0,0,0-.88-9.63l-9.8-4.53a64.63,64.63,0,0,1,55.29-31.48,63.75,63.75,0,0,1,35.64,10.87c.78.49,1.54,1,2.29,1.5a9.73,9.73,0,0,1,13.72,0l7.47,7.47a9.74,9.74,0,0,1,0,13.75l-.8.79a64.75,64.75,0,0,1,.24,63.47l.56.55a9.75,9.75,0,0,1,0,13.76l-7.47,7.47a9.74,9.74,0,0,1-13.31.41,67.26,67.26,0,0,1-8.62,5,63.82,63.82,0,0,1-61.21-.93,20.16,20.16,0,0,0-21.58,1l-.45.31c-12.94,9.13-11.92,28.78,2,36.31A108.57,108.57,0,0,0,230,125.85C233.74,61,179.27,7,114.46,11.18Z"/><path class="cls-1" d="M140.61,119.29l36.12-36.44a4.06,4.06,0,0,0,0-5.69l-7.41-7.47a4,4,0,0,0-5.64,0l-36.11,36.43L91.45,69.69a4,4,0,0,0-5.64,0l-7.4,7.47a4,4,0,0,0,0,5.69l36.11,36.44L78.41,155.72a4.06,4.06,0,0,0,0,5.7l7.4,7.47a4,4,0,0,0,5.64,0l36.12-36.44,36.11,36.44a4,4,0,0,0,5.64,0l7.41-7.47a4.07,4.07,0,0,0,0-5.7Z"/><rect class="cls-2" width="239" height="239"/></g></g></svg>