<svg xmlns="http://www.w3.org/2000/svg" viewBox="0 0 239 239"><defs><style>.cls-1{fill:#353535;}.cls-2{fill:none;}</style></defs><title>Asset 439</title><g id="Layer_2" data-name="Layer 2"><g id="Layer_2-2" data-name="Layer 2"><path class="cls-1" d="M89.16,9.54V77.77a6.17,6.17,0,0,0,3.1,1.41l7,1V59.54a4.62,4.62,0,0,0-.1-1v-39H208.63L164.56,42.12V187.74H99.26v-24.4L89.16,159v38.71h75.4v31.72l61.89-31.72h1.41V9.54Z"/><path class="cls-1" d="M70.42,54.74,83.5,81.25A5,5,0,0,0,87.25,84l29.26,4.26a5,5,0,0,1,2.76,8.48L98.09,117.35a5,5,0,0,0-1.43,4.41l5,29.14a5,5,0,0,1-7.22,5.24L68.27,142.38a5,5,0,0,0-4.63,0L37.47,156.14a5,5,0,0,1-7.22-5.24l5-29.14a5,5,0,0,0-1.43-4.41L12.65,96.71a5,5,0,0,1,2.75-8.48L44.66,84a5,5,0,0,0,3.75-2.72L61.49,54.74A5,5,0,0,1,70.42,54.74Z"/><rect class="cls-2" width="239" height="239"/></g></g></svg>