<svg xmlns="http://www.w3.org/2000/svg" viewBox="0 0 239 239"><defs><style>.cls-1{fill:#353535;}.cls-2{fill:none;}</style></defs><title>box</title><g id="Layer_2" data-name="Layer 2"><g id="Layer_2-2" data-name="Layer 2"><polygon class="cls-1" points="15.77 54.49 15.77 54.6 15.99 54.55 15.77 54.49"/><polygon class="cls-1" points="12.5 53.77 12.28 53.82 12.18 93.71 11.94 187.34 126.02 221.33 126.34 95.31 126.36 87.69 12.5 53.77"/><path class="cls-1" d="M223,44.54l0-.06,0,0v0a.14.14,0,0,1,.12-.2l0,0-91.4-27L88.11,27.58,190,57.15Z"/><polygon class="cls-1" points="15.99 44.85 129.85 78.77 131.71 79.3 134.03 78.51 165.42 66.53 56.65 35.11 15.99 44.85"/><polygon class="cls-1" points="226.88 97.4 226.79 54.23 201.09 64.04 200.71 72.97 200.08 111.82 182.87 118.37 183.26 71.68 182.01 71.32 137.76 88.21 137.77 96.16 138.02 221.86 227.06 187.87 226.88 97.4"/><rect class="cls-2" width="239" height="239"/></g></g></svg>