<svg xmlns="http://www.w3.org/2000/svg" viewBox="0 0 239 239"><defs><style>.cls-1{fill:#353535;}.cls-2{fill:none;}</style></defs><title>breadcrumb</title><g id="Layer_2" data-name="Layer 2"><g id="Layer_2-2" data-name="Layer 2"><path class="cls-1" d="M234.07,160.15c0-.65-.11-1.29-.19-1.93,0-.33-.09-.64-.14-1-.14-1-.32-1.9-.54-2.83-.07-.31-.15-.62-.22-.93-.16-.61-.34-1.22-.52-1.82s-.39-1.2-.61-1.79-.44-1.17-.69-1.74-.49-1.14-.76-1.7-.56-1.12-.85-1.66c-.45-.82-.92-1.62-1.42-2.4-.33-.52-.68-1-1-1.53-.17-.25-.36-.5-.54-.75-.55-.74-1.13-1.46-1.74-2.15-.4-.47-.81-.92-1.24-1.37s-.86-.88-1.3-1.3a38.31,38.31,0,0,0-26.52-10.62,39.63,39.63,0,0,0-6,.47c-.52.08-1,.18-1.56.28s-.74.15-1.11.24c-1,.24-2,.52-3,.84-.4.12-.79.26-1.18.4l-.65.23c-.48.18-.95.37-1.41.56l-1.31.59q-1.2.56-2.34,1.2l-1,.58-1.08.67c-.52.33-1,.68-1.53,1s-.88.64-1.31,1-1.08.86-1.6,1.31l-.73.65c-.33.3-.64.6-1,.91s-.43.43-.65.65-.64.66-.95,1-.82.92-1.21,1.39-.77,1-1.14,1.45-.58.8-.86,1.2l-.42.62c-.44.67-.86,1.35-1.27,2-.25.44-.5.89-.73,1.35s-.39.74-.57,1.12c-.27.56-.52,1.12-.77,1.7s-.47,1.16-.69,1.74-.41,1.19-.6,1.79-.36,1.21-.52,1.82c-.08.31-.15.62-.22.93-.22.93-.4,1.87-.55,2.83,0,.32-.09.63-.13,1-.08.64-.15,1.28-.2,1.93-.07,1-.11,2-.11,3,0,.78,0,1.55.07,2.32s.12,1.53.21,2.28c.13,1.13.32,2.25.55,3.35.15.73.33,1.46.53,2.17.12.48.27.94.41,1.41.36,1.15.78,2.28,1.24,3.38l.39.87c.23.52.47,1,.73,1.53s.6,1.16.92,1.72h0q.52.93,1.11,1.83c.11.18.24.35.36.52.28.42.55.83.84,1.23a38.71,38.71,0,0,0,2.69,3.3l11.15,15.35,15.35,21.12a2.42,2.42,0,0,0,.62.58,2.16,2.16,0,0,0,.48.24,2.44,2.44,0,0,0,.52.12,2.38,2.38,0,0,0,.8,0,2.3,2.3,0,0,0,1.35-.9l18.24-25.09L224.14,189A39,39,0,0,0,228,184q.57-.9,1.11-1.83h0c.32-.56.63-1.13.92-1.72s.5-1,.73-1.53c.13-.29.26-.58.38-.87a35.88,35.88,0,0,0,1.24-3.38,36.51,36.51,0,0,0,1.16-4.69c.14-.74.25-1.48.34-2.24s.16-1.51.21-2.28.07-1.54.07-2.32C234.19,162.12,234.15,161.13,234.07,160.15Z"/><path class="cls-1" d="M22.31,12.55h0c-3.61,0-7.38.12-11.19.26a6.5,6.5,0,0,0,.24,13h.25c3.68-.14,7.32-.22,10.8-.25a6.5,6.5,0,0,0-.05-13Z"/><path class="cls-1" d="M54.72,183.35c-6.23-4.1-10-8.41-11.56-13.15a6.5,6.5,0,1,0-12.36,4c2.5,7.65,8,14.18,16.77,20a6.5,6.5,0,1,0,7.15-10.86Z"/><path class="cls-1" d="M34,156.41a6.37,6.37,0,0,0,2.83.66,6.5,6.5,0,0,0,5.85-3.66c2-4.17,6.06-9.77,12-16.65a6.5,6.5,0,0,0-9.84-8.5c-6.77,7.85-11.3,14.21-13.85,19.47A6.49,6.49,0,0,0,34,156.41Z"/><path class="cls-1" d="M44.08,26.24a151.07,151.07,0,0,1,21.12,3,6.76,6.76,0,0,0,1.41.15A6.5,6.5,0,0,0,68,16.51a167.66,167.66,0,0,0-22.92-3.24,6.5,6.5,0,0,0-1,13Z"/><path class="cls-1" d="M84.4,36c6.16,3.37,10.49,7.47,13.22,12.55a6.5,6.5,0,1,0,11.45-6.16c-4-7.37-10-13.19-18.45-17.8A6.5,6.5,0,1,0,84.4,36Z"/><path class="cls-1" d="M69.59,120.64c5.89-6.2,10.9-11.51,15.33-16.23a6.5,6.5,0,0,0-9.5-8.88c-4.39,4.7-9.38,10-15.25,16.15a6.5,6.5,0,0,0,9.42,9Z"/><path class="cls-1" d="M94,198.82c-7.69-2-14.62-4.18-20.61-6.42a6.5,6.5,0,1,0-4.56,12.17c6.4,2.4,13.75,4.69,21.87,6.83a6.73,6.73,0,0,0,1.65.21A6.5,6.5,0,0,0,94,198.82Z"/><path class="cls-1" d="M137,207.62c-7.65-1.24-14.94-2.55-21.67-3.9a6.5,6.5,0,0,0-2.56,12.74c6.89,1.39,14.34,2.73,22.16,4a6.15,6.15,0,0,0,1,.08,6.5,6.5,0,0,0,1-12.91Z"/><path class="cls-1" d="M112,60.4a6.5,6.5,0,0,0-8.77,2.75c-1.42,2.73-5.63,8-12.87,16.09a6.5,6.5,0,0,0,9.7,8.66c8.4-9.41,12.66-14.84,14.69-18.73A6.5,6.5,0,0,0,112,60.4Z"/><path class="cls-1" d="M170.09,212.22q-5.58-.67-10.84-1.36a6.5,6.5,0,0,0-1.7,12.89q5.34.69,11,1.38a6.79,6.79,0,0,0,.78,0,6.5,6.5,0,0,0,.77-12.95Z"/><rect class="cls-2" width="239" height="239"/></g></g></svg>