<svg xmlns="http://www.w3.org/2000/svg" viewBox="0 0 239 239"><defs><style>.cls-1{fill:#353535;}.cls-2{fill:none;}</style></defs><title>calendar</title><g id="Layer_2" data-name="Layer 2"><g id="Layer_2-2" data-name="Layer 2"><rect class="cls-1" x="34.37" y="94.79" width="38.45" height="38.45"/><rect class="cls-1" x="100.28" y="94.79" width="38.45" height="38.45"/><rect class="cls-1" x="166.18" y="94.79" width="38.45" height="38.45"/><rect class="cls-1" x="34.83" y="151.54" width="38.45" height="38.45"/><rect class="cls-1" x="100.74" y="151.54" width="38.45" height="38.45"/><rect class="cls-1" x="166.64" y="151.54" width="38.45" height="38.45"/><path class="cls-1" d="M216.88,10.81H22.12A11.32,11.32,0,0,0,10.81,22.12V216.88a11.32,11.32,0,0,0,11.31,11.31H216.88a11.32,11.32,0,0,0,11.31-11.31V22.12A11.32,11.32,0,0,0,216.88,10.81Zm-193.73,205V68.24h192.7V215.85Z"/><rect class="cls-2" width="239" height="239"/></g></g></svg>