<svg xmlns="http://www.w3.org/2000/svg" viewBox="0 0 239 239"><defs><style>.cls-1{fill:#353535;}.cls-2{fill:none;}</style></defs><title>cancel</title><g id="Layer_2" data-name="Layer 2"><g id="Layer_2-2" data-name="Layer 2"><path class="cls-1" d="M221.83,32.71H74.26a7.51,7.51,0,0,0-6,3L8.38,114.86a7.49,7.49,0,0,0,0,9l59.9,79.42a7.49,7.49,0,0,0,6,3H221.83a10.3,10.3,0,0,0,10.3-10.3V43A10.3,10.3,0,0,0,221.83,32.71Zm-22.58,126.8a4.41,4.41,0,0,1,0,6.25l-8.2,8.21a4.43,4.43,0,0,1-6.25,0l-40-40-40,40a4.43,4.43,0,0,1-6.25,0l-8.21-8.21a4.43,4.43,0,0,1,0-6.25l40-40-40-40a4.43,4.43,0,0,1,0-6.25L98.53,65a4.43,4.43,0,0,1,6.25,0l40,40,40-40a4.43,4.43,0,0,1,6.25,0l8.2,8.21a4.41,4.41,0,0,1,0,6.25l-40,40Z"/><rect class="cls-2" width="239" height="239"/></g></g></svg>