<svg xmlns="http://www.w3.org/2000/svg" viewBox="0 0 239 239"><defs><style>.cls-1{fill:#353535;}.cls-2{fill:none;}</style></defs><title>clipboard</title><g id="Layer_2" data-name="Layer 2"><g id="Layer_2-2" data-name="Layer 2"><path class="cls-1" d="M193,47.14H180v6.55H59V49c0-.63,0-1.26.08-1.88H46a5.08,5.08,0,0,0-4.88,5.27V227.23A5.08,5.08,0,0,0,46,232.5H193a5.08,5.08,0,0,0,4.88-5.27V52.41A5.08,5.08,0,0,0,193,47.14Z"/><path class="cls-1" d="M155,25.2H138.2a18.7,18.7,0,1,0-37.4,0H87.59A17.73,17.73,0,0,0,69.92,41.5c0,.47-.07,1-.07,1.43v3.54h99.3V39.38A14.19,14.19,0,0,0,155,25.2ZM119.5,13a10.32,10.32,0,1,1-10.32,10.31A10.32,10.32,0,0,1,119.5,13Z"/><rect class="cls-2" width="239" height="239"/></g></g></svg>