<svg xmlns="http://www.w3.org/2000/svg" viewBox="0 0 239 239"><defs><style>.cls-1{fill:#353535;}.cls-2{fill:none;}</style></defs><title>cloud</title><g id="Layer_2" data-name="Layer 2"><g id="Layer_2-2" data-name="Layer 2"><path class="cls-1" d="M125.22,188.1H46.53a38.46,38.46,0,0,1-20.71-5.74C18.69,177.94,13.9,171.28,11,163a58.79,58.79,0,0,1-3-23.58c.58-8.51,3.23-16.11,8.72-22.33a38.78,38.78,0,0,1,15.37-10.35,46.25,46.25,0,0,1,13.81-3.28c.93-.06,1.27-.61,1.41-1.61,1.7-12,5.5-23,12.54-32.6a43.28,43.28,0,0,1,31.5-17.84A74.79,74.79,0,0,1,103.2,51c10.73.88,20.15,5.36,28.16,13.31a65.58,65.58,0,0,1,8.25,10.24c.72,1.07,1.37,1.32,2.54.72a44.65,44.65,0,0,1,11-3.89,41.86,41.86,0,0,1,15.92-.48,40.3,40.3,0,0,1,21.71,11,41.47,41.47,0,0,1,10.94,17.87A43.68,43.68,0,0,1,203.87,112c0,1.81.09,3.62.06,5.43a1.33,1.33,0,0,0,1.08,1.48,70,70,0,0,1,7.81,2.83,30.31,30.31,0,0,1,16.6,19.61,47.31,47.31,0,0,1,1.28,19.53,38,38,0,0,1-5.16,15.29c-3.62,5.84-8.54,9.77-14.9,11.26a27.11,27.11,0,0,1-5.88.66Q165,188.13,125.22,188.1Z"/><rect class="cls-2" width="239" height="239"/></g></g></svg>