<svg xmlns="http://www.w3.org/2000/svg" viewBox="0 0 239 239"><defs><style>.cls-1{fill:#353535;}.cls-2{fill:none;}</style></defs><title>copyright</title><g id="Layer_2" data-name="Layer 2"><g id="Layer_2-2" data-name="Layer 2"><path class="cls-1" d="M151.58,137.2l26.2,8.31q-6,21.92-20,32.54t-35.55,10.64q-26.64,0-43.81-18.21t-17.16-49.8q0-33.39,17.26-51.88t45.35-18.49q24.55,0,39.9,14.52,9.12,8.58,13.68,24.64l-26.74,6.39a28.41,28.41,0,0,0-9.9-16.43q-7.53-6-18.3-6-14.88,0-24.15,10.67t-9.26,34.6q0,25.38,9.13,36.14t23.73,10.77a27.09,27.09,0,0,0,18.53-6.84Q148.21,151.9,151.58,137.2Z"/><path class="cls-1" d="M119.5,232.68A113.18,113.18,0,1,1,232.68,119.5,113.31,113.31,0,0,1,119.5,232.68Zm0-206.36a93.18,93.18,0,1,0,93.18,93.18A93.29,93.29,0,0,0,119.5,26.32Z"/><rect class="cls-2" width="239" height="239"/></g></g></svg>