<svg xmlns="http://www.w3.org/2000/svg" viewBox="0 0 239 239"><defs><style>.cls-1{fill:#353535;}.cls-2{fill:none;}</style></defs><title>curbside</title><g id="Layer_2" data-name="Layer 2"><g id="Layer_2-2" data-name="Layer 2"><path class="cls-1" d="M210.73,35.3c-.64,0-1.25.07-1.84.13H186.26l.2,26.11a7.91,7.91,0,0,1-7.64,8.16h-.74a7.91,7.91,0,0,1-7.78-8l-.2-26.24H139.52c19.91,1.92,20.92,21.1,20.92,21.1v59H237v-59S233,34.39,210.73,35.3Z"/><path class="cls-1" d="M135.09,36.37a35.3,35.3,0,0,0-4.43-.13c-.75,0-1.47.07-2.18.13l-.19,0c-19.67,2-19.93,20.89-19.93,20.89l0,58.24h47.37V57.22S154.78,38.27,135.09,36.37Z"/><path class="cls-1" d="M199.94,5.91a3.58,3.58,0,0,0-3.53-3.65l-17.25.14a3.46,3.46,0,0,0-1.29.27,4.89,4.89,0,0,0-4.46,5l.39,50.91a4.86,4.86,0,0,0,4.78,4.94H179a4.87,4.87,0,0,0,4.7-5l-.27-34.69,13.12-.12A3.59,3.59,0,0,0,200.05,20Z"/><rect class="cls-1" x="139" y="150.88" width="79.51" height="16.21" transform="translate(19.77 337.75) rotate(-90)"/><polygon class="cls-1" points="126.45 236.74 141.79 236.74 2 96.96 2 112.29 126.45 236.74"/><polygon class="cls-1" points="2 219.72 2 236.74 116.55 236.74 63.83 184.02 2 219.72"/><polygon class="cls-1" points="2 122.19 2 210.37 57.9 178.1 2 122.19"/><rect class="cls-2" width="239" height="239"/></g></g></svg>