<svg xmlns="http://www.w3.org/2000/svg" viewBox="0 0 239 239"><defs><style>.cls-1{fill:#353535;}.cls-2{fill:none;}</style></defs><title>database</title><g id="Layer_2" data-name="Layer 2"><g id="Layer_2-2" data-name="Layer 2"><path class="cls-1" d="M214.14,38.37a2.6,2.6,0,0,1,.06.56c0,9.54-42.38,17.28-94.67,17.28S24.87,48.47,24.87,38.93a3.43,3.43,0,0,1,.05-.56h-.19V88.56h.14c0,9.55,42.38,17.28,94.66,17.28s94.67-7.73,94.67-17.28h.14V38.37Z"/><path class="cls-1" d="M214.08,100.25a3.53,3.53,0,0,1,0,.56c0,9.55-42.38,17.29-94.66,17.29S24.8,110.36,24.8,100.81a2.67,2.67,0,0,1,.06-.56h-.2v50.19h.14c0,9.55,42.38,17.29,94.67,17.29s94.66-7.74,94.66-17.29h.14V100.25Z"/><path class="cls-1" d="M214.08,161a3.53,3.53,0,0,1,0,.56c0,9.55-42.38,17.29-94.66,17.29S24.8,171.13,24.8,161.58a2.67,2.67,0,0,1,.06-.56h-.2v50.19h.14c0,9.55,42.38,17.29,94.67,17.29s94.66-7.74,94.66-17.29h.14V161Z"/><path class="cls-1" d="M214.14,27.23c-1.61-9.29-43.35-16.73-94.61-16.73s-93,7.44-94.61,16.73a3.53,3.53,0,0,0-.05.56c0,9.55,42.38,17.29,94.66,17.29s94.67-7.74,94.67-17.29A2.67,2.67,0,0,0,214.14,27.23Z"/><rect class="cls-2" width="239" height="239"/></g></g></svg>