<svg xmlns="http://www.w3.org/2000/svg" viewBox="0 0 239 239"><defs><style>.cls-1{fill:#353535;}.cls-2{fill:none;}</style></defs><title>direction-change</title><g id="Layer_2" data-name="Layer 2"><g id="Layer_2-2" data-name="Layer 2"><path class="cls-1" d="M226.5,97.49H138V78H101V97.49H69.5V87.7a8,8,0,0,0-12-6.93l-49,28.29a8,8,0,0,0,0,13.86l49,28.29a8,8,0,0,0,12-6.93v-9.79h157a8,8,0,0,0,8-8v-21A8,8,0,0,0,226.5,97.49Z"/><path class="cls-1" d="M12.5,61h157v9.79a8,8,0,0,0,12,6.93l49-28.29a8,8,0,0,0,0-13.86l-49-28.29a8,8,0,0,0-12,6.93V24H138V10a8,8,0,0,0-8-8H109a8,8,0,0,0-8,8V24H12.5a8,8,0,0,0-8,8V53A8,8,0,0,0,12.5,61Z"/><path class="cls-1" d="M101,229a8,8,0,0,0,8,8h21a8,8,0,0,0,8-8V150H101Z"/><rect class="cls-2" width="239" height="239"/></g></g></svg>