<svg xmlns="http://www.w3.org/2000/svg" viewBox="0 0 239 239"><defs><style>.cls-1{fill:#353535;}.cls-2{fill:none;}</style></defs><title>direction-change1</title><g id="Layer_2" data-name="Layer 2"><g id="Layer_2-2" data-name="Layer 2"><path class="cls-1" d="M108.83,139.42H78.92V23.08a7.3,7.3,0,0,0-7.3-7.3h-13a7.29,7.29,0,0,0-7.29,7.3V139.42H21.43a7.29,7.29,0,0,0-6.27,11l43.7,73.47a7.3,7.3,0,0,0,12.54,0l43.7-73.47A7.3,7.3,0,0,0,108.83,139.42Z"/><path class="cls-1" d="M223.84,88.56l-43.7-73.47a7.3,7.3,0,0,0-12.54,0L123.9,88.56a7.3,7.3,0,0,0,6.27,11h29.91V215.92a7.3,7.3,0,0,0,7.3,7.3h13a7.29,7.29,0,0,0,7.29-7.3V99.58h29.91A7.29,7.29,0,0,0,223.84,88.56Z"/><rect class="cls-2" width="239" height="239"/></g></g></svg>