<svg xmlns="http://www.w3.org/2000/svg" viewBox="0 0 239 239"><defs><style>.cls-1{fill:#353535;}.cls-2{fill:none;}</style></defs><title>edit</title><g id="Layer_2" data-name="Layer 2"><g id="Layer_2-2" data-name="Layer 2"><path class="cls-1" d="M189.67,22.67,95.34,117.13a4.72,4.72,0,0,0-.65.84,4.64,4.64,0,0,0-1.47,2.12l-10,29.06a4.76,4.76,0,0,0,6,6l29.06-10a4.7,4.7,0,0,0,1.92-1.24,4.59,4.59,0,0,0,1.09-.79l94.34-94.48Z"/><path class="cls-1" d="M228.7,28.92,209.43,9.62a4.76,4.76,0,0,0-6.73,0L193,19.3l26,26,9.66-9.67A4.77,4.77,0,0,0,228.7,28.92Z"/><path class="cls-1" d="M197.79,82.52V212.18a4.89,4.89,0,0,1-4.89,4.89H28.48a4.89,4.89,0,0,1-4.89-4.89V47.76a4.89,4.89,0,0,1,4.89-4.89H153.89L167.79,29H13.67a4.76,4.76,0,0,0-4.76,4.76V226a4.76,4.76,0,0,0,4.76,4.76H206a4.76,4.76,0,0,0,4.76-4.76V69.56Z"/><rect class="cls-2" width="239" height="239"/></g></g></svg>