<svg xmlns="http://www.w3.org/2000/svg" viewBox="0 0 239 239"><defs><style>.cls-1{fill:#353535;}.cls-2{fill:none;}</style></defs><title>envelope</title><g id="Layer_2" data-name="Layer 2"><g id="Layer_2-2" data-name="Layer 2"><path class="cls-1" d="M225,191.37,156.59,114,122,139.81a4.61,4.61,0,0,1-5.51,0L81.93,114,13.54,191.37a4.62,4.62,0,0,0,2,7.43l.11,0a4.54,4.54,0,0,0,.53.12,3.91,3.91,0,0,0,.48,0l.33,0H221.53l.32,0a3.71,3.71,0,0,0,.48,0,4.28,4.28,0,0,0,.54-.12l.11,0A4.61,4.61,0,0,0,225,191.37Z"/><path class="cls-1" d="M223.9,40.6a2.49,2.49,0,0,0-.28-.15,2.87,2.87,0,0,0-.4-.18c-.13-.05-.26-.08-.39-.12a2.6,2.6,0,0,0-.4-.1,5.7,5.7,0,0,0-.58-.06l-.29,0H17l-.29,0a5.42,5.42,0,0,0-.58.06,2.6,2.6,0,0,0-.4.1c-.13,0-.27.07-.4.12a3.52,3.52,0,0,0-.4.18l-.28.15a4.62,4.62,0,0,0-.41,7.67L81.93,98.79l34.58,25.8a4.61,4.61,0,0,0,5.51,0l34.57-25.8,67.72-50.52A4.61,4.61,0,0,0,223.9,40.6Z"/><path class="cls-1" d="M6.54,55.88,4.69,54.25V186l.18-.11a4.58,4.58,0,0,1,1.06-2.09L74.32,106.4Z"/><path class="cls-1" d="M232.46,55.88l1.85-1.63V186l-.18-.11a4.58,4.58,0,0,0-1.06-2.09L164.68,106.4Z"/><rect class="cls-2" width="239" height="239"/></g></g></svg>