<svg xmlns="http://www.w3.org/2000/svg" viewBox="0 0 239 239"><defs><style>.cls-1{fill:#353535;}.cls-2{fill:none;}</style></defs><title>exit</title><g id="Layer_2" data-name="Layer 2"><g id="Layer_2-2" data-name="Layer 2"><path class="cls-1" d="M130.07,116.89,80,78.1a3.16,3.16,0,0,0-5.09,2.5v19.94H4.2v37.7H74.93v19.94a3.16,3.16,0,0,0,5.09,2.5l50.05-38.8A3.16,3.16,0,0,0,130.07,116.89Z"/><polygon class="cls-1" points="96.1 9.54 96.1 82.76 106.1 90.51 106.1 19.54 215.56 19.54 171.5 42.13 171.5 187.74 106.1 187.74 106.1 148.49 96.1 156.24 96.1 197.74 171.5 197.74 171.5 229.46 233.39 197.74 234.8 197.74 234.8 9.54 96.1 9.54"/><rect class="cls-2" width="239" height="239"/></g></g></svg>