<svg xmlns="http://www.w3.org/2000/svg" viewBox="0 0 239 239"><defs><style>.cls-1{fill:#353535;}.cls-2{fill:none;}</style></defs><title>expand</title><g id="Layer_2" data-name="Layer 2"><g id="Layer_2-2" data-name="Layer 2"><path class="cls-1" d="M214.16,136.05a5,5,0,0,0-8.53,3.53v67.67a5,5,0,0,1-5,5h-168a5,5,0,0,1-5-5v-168a5,5,0,0,1,5-5h67.66a5,5,0,0,0,3.54-8.54L99.6,21.49A5,5,0,0,0,96.07,20H17.63a5,5,0,0,0-5,5V221.25a5,5,0,0,0,5,5H213.85a5,5,0,0,0,5-5V142.81a5,5,0,0,0-1.46-3.54Z"/><path class="cls-1" d="M218.31,12.75l-84.67.63A8,8,0,0,0,128,27l28.34,28.33L69.72,142a8,8,0,0,0,0,11.31L85.5,169.12a8,8,0,0,0,11.32,0l86.65-86.65,28.62,28.61a8,8,0,0,0,13.65-5.6l.63-84.67A8,8,0,0,0,218.31,12.75Z"/><rect class="cls-2" width="239" height="239"/></g></g></svg>