<svg xmlns="http://www.w3.org/2000/svg" viewBox="0 0 239 239"><defs><style>.cls-1{fill:#353535;}.cls-2{fill:none;}</style></defs><title>fav-address</title><g id="Layer_2" data-name="Layer 2"><g id="Layer_2-2" data-name="Layer 2"><path class="cls-1" d="M44.23,56.14A51.28,51.28,0,0,0,37.81,56c-1.08,0-2.13.1-3.14.19l-.29,0C5.91,59.07,5.54,86.41,5.54,86.41l.06,84.31H74.17V86.33S72.73,58.89,44.23,56.14Z"/><path class="cls-1" d="M107.18,95.45h.66a7.05,7.05,0,0,0,6.8-7.27L114.25,38l19-.17a5.2,5.2,0,0,0,5-5.37l-.15-20.38A5.19,5.19,0,0,0,133,6.76L108,7a4.71,4.71,0,0,0-1.87.39,7.06,7.06,0,0,0-6.45,7.25l.57,73.7A7,7,0,0,0,107.18,95.45Z"/><path class="cls-1" d="M92.61,145l43-6.24a7.32,7.32,0,0,0,5.51-4l19.23-39a7.31,7.31,0,0,1,13.11,0l18.3,37.08V85.33s-5.79-32-38-30.73c-.92,0-1.8.1-2.67.18H118.3l.29,37.79c0,6.48-4.9,11.77-11.07,11.82h-1.07A11.44,11.44,0,0,1,95.2,92.77l-.29-38H50.63c28.84,2.78,30.29,30.54,30.29,30.54v85.4H102.2l-13.64-13.3A7.31,7.31,0,0,1,92.61,145Z"/><path class="cls-1" d="M231.63,159.37a6,6,0,0,0-3.35-10.31l-35.53-5.16a6,6,0,0,1-4.55-3.31L172.31,108.4a6,6,0,0,0-10.84,0l-15.88,32.19A6.07,6.07,0,0,1,141,143.9l-35.53,5.16a6,6,0,0,0-3.35,10.31l25.71,25.06a6,6,0,0,1,1.73,5.35l-6.07,35.39a6,6,0,0,0,8.77,6.37l31.78-16.71a6,6,0,0,1,5.63,0l31.77,16.71a6,6,0,0,0,8.77-6.37l-6.07-35.39a6.08,6.08,0,0,1,1.74-5.35Z"/><rect class="cls-2" width="239" height="239"/></g></g></svg>