<svg xmlns="http://www.w3.org/2000/svg" viewBox="0 0 239 239"><defs><style>.cls-1{fill:#353535;}.cls-2{fill:none;}</style></defs><title>fire</title><g id="Layer_2" data-name="Layer 2"><g id="Layer_2-2" data-name="Layer 2"><path class="cls-1" d="M197.24,107.4a19.67,19.67,0,0,0-1.05-3.3S196.6,105.29,197.24,107.4Z"/><path class="cls-1" d="M197.24,107.4c4.46,19.49-23.85,35.21-23.85,35.21,16.57-42.73-15-49.76-26.08-90.29S170.09,4.13,170.09,4.13C126.87,10.89,106,76.58,106,76.58c-.76-27.87-34-45.13-34-45.13,30.88,33.15-19.18,74.36-33.81,116-20.08,57.21,60,88.55,59.28,87.37-26.48-42,6.14-68.24,6.14-68.24-1.67,14.74,12.71,20.94,12.71,20.94-10.15-28.76,25.43-51.95,25.43-51.95-4,5.66-12.59,27.4,6.71,54.21s-12.89,45-12.89,45C225.88,219.42,202.84,126.16,197.24,107.4Z"/><rect class="cls-2" width="239" height="239"/></g></g></svg>