<svg xmlns="http://www.w3.org/2000/svg" viewBox="0 0 239 239"><defs><style>.cls-1{fill:#353535;}.cls-2{fill:none;}</style></defs><title>gear</title><g id="Layer_2" data-name="Layer 2"><g id="Layer_2-2" data-name="Layer 2"><path class="cls-1" d="M224.37,96.11l-24.83-4.84c-1-2.89-2.24-5.5-3.22-8.06l14.16-21c3.87-5.49,2.89-13.23-1.63-18L195.34,30.66a14.1,14.1,0,0,0-18-1.63l-21,14.21A82,82,0,0,0,148.29,40l-4.85-24.83a14.76,14.76,0,0,0-14.16-11.6H110A14.24,14.24,0,0,0,96.06,14.86L91.22,39.69c-2.89,1-5.5,2.24-8.06,3.22l-21-14.16a14.13,14.13,0,0,0-17.75,1.63L31,43.89a14.1,14.1,0,0,0-1.63,18l14.16,21a84.44,84.44,0,0,0-3.21,8.06L15.47,95.79C8.38,97.42,3.54,103.19,3.54,110v19.33a14.24,14.24,0,0,0,11.27,13.89L39.65,148c1,2.89,2.23,5.5,3.21,8.06L28.7,177c-3.87,5.49-2.89,13.23,1.63,18l13.55,13.55a14.1,14.1,0,0,0,18,1.63l21-14.16a82,82,0,0,0,8.06,3.22l4.84,24.83a13.89,13.89,0,0,0,13.89,11.27h19.66a14.22,14.22,0,0,0,13.88-11.27l4.85-24.83a67,67,0,0,0,8.06-3.22l21,14.16c5.5,3.87,13.23,2.89,18-1.63l13.56-13.55a13.78,13.78,0,0,0,1.63-17.75l-14.17-21a82,82,0,0,0,3.22-8.06l24.83-4.84a13.89,13.89,0,0,0,11.28-13.89V109.9A13.79,13.79,0,0,0,224.37,96.11ZM119.5,163.79a44.29,44.29,0,1,1,44.29-44.29A44.29,44.29,0,0,1,119.5,163.79Z"/><rect class="cls-2" width="239" height="239"/></g></g></svg>