<svg xmlns="http://www.w3.org/2000/svg" viewBox="0 0 239 239"><defs><style>.cls-1{fill:#353535;}.cls-2{fill:none;}</style></defs><title>hambruger</title><g id="Layer_2" data-name="Layer 2"><g id="Layer_2-2" data-name="Layer 2"><path class="cls-1" d="M221.82,111.83H17.18c-4.11,0-7.44,1.48-7.44,3.31v8.72c0,1.83,3.33,3.31,7.44,3.31H221.82c4.11,0,7.44-1.48,7.44-3.31v-8.72C229.26,113.31,225.93,111.83,221.82,111.83Z"/><path class="cls-1" d="M221.82,154.33H17.18c-4.11,0-7.44,1.48-7.44,3.31v8.72c0,1.83,3.33,3.31,7.44,3.31H221.82c4.11,0,7.44-1.48,7.44-3.31v-8.72C229.26,155.81,225.93,154.33,221.82,154.33Z"/><path class="cls-1" d="M221.82,69.33H17.18c-4.11,0-7.44,1.48-7.44,3.31v8.72c0,1.83,3.33,3.31,7.44,3.31H221.82c4.11,0,7.44-1.48,7.44-3.31V72.64C229.26,70.81,225.93,69.33,221.82,69.33Z"/><rect class="cls-2" width="239" height="239"/></g></g></svg>