<svg xmlns="http://www.w3.org/2000/svg" viewBox="0 0 239 239"><defs><style>.cls-1{fill:#353535;}.cls-2{fill:none;}</style></defs><title>hand</title><g id="Layer_2" data-name="Layer 2"><g id="Layer_2-2" data-name="Layer 2"><path class="cls-1" d="M197.14,41.62h0a12.71,12.71,0,0,0-12.72,12.71v54h-9.54V32.08a12.71,12.71,0,0,0-12.71-12.71h0a12.72,12.72,0,0,0-12.72,12.71v76.29h-9.53v-89a12.72,12.72,0,1,0-25.43,0v89H105V35.26a12.72,12.72,0,0,0-25.43,0v120.8l-27.28-23.6a13,13,0,0,0-21.09,15.11,14.34,14.34,0,0,0,1.5,2.66l37.08,52.1a76.28,76.28,0,0,0,60.65,30h15.89a63.58,63.58,0,0,0,63.58-63.58V54.33A12.71,12.71,0,0,0,197.14,41.62Z"/><rect class="cls-2" width="239" height="239"/></g></g></svg>