<svg xmlns="http://www.w3.org/2000/svg" viewBox="0 0 239 239"><defs><style>.cls-1{fill:#353535;}.cls-2{fill:none;}</style></defs><title>layers</title><g id="Layer_2" data-name="Layer 2"><g id="Layer_2-2" data-name="Layer 2"><path class="cls-1" d="M224.77,161.44l-19.53-11.09L122,197.63a5.53,5.53,0,0,1-4.92,0L33.76,150.35,14.23,161.44c-4.1,2.33-4.1,6.13,0,8.46l99.87,56.7a12.14,12.14,0,0,0,10.8,0l99.87-56.7C228.87,167.57,228.87,163.77,224.77,161.44Z"/><path class="cls-1" d="M224.77,115.76l-19.53-11.09L122,152a5.53,5.53,0,0,1-4.92,0L33.76,104.67,14.23,115.76c-4.1,2.33-4.1,6.13,0,8.46L117,182.59a5.53,5.53,0,0,0,4.92,0l102.81-58.37C228.87,121.89,228.87,118.09,224.77,115.76Z"/><path class="cls-1" d="M114.1,134.26,14.23,77.56c-4.1-2.33-4.1-6.13,0-8.46L114.1,12.4a12.14,12.14,0,0,1,10.8,0l99.87,56.7c4.1,2.33,4.1,6.13,0,8.46l-99.87,56.7A12.14,12.14,0,0,1,114.1,134.26Z"/><rect class="cls-2" width="239" height="239"/></g></g></svg>