<svg xmlns="http://www.w3.org/2000/svg" viewBox="0 0 239 239"><defs><style>.cls-1{fill:#353535;}.cls-2{fill:none;}</style></defs><title>mailbox-residential</title><g id="Layer_2" data-name="Layer 2"><g id="Layer_2-2" data-name="Layer 2"><path class="cls-1" d="M182,59.83c-1,0-2,.11-3,.2H141.82l.33,40.81a12.68,12.68,0,0,1-12.57,12.78h-1.21a12.68,12.68,0,0,1-12.78-12.57l-.33-41H65c32.73,3,34.39,33,34.39,33v92.25H225.22V93S218.64,58.4,182,59.83Z"/><rect class="cls-1" x="121.71" y="193.66" width="39.09" height="37.84"/><path class="cls-1" d="M163.74,13.21a5.75,5.75,0,0,0-5.8-5.71l-28.36.23a5.93,5.93,0,0,0-2.12.42A7.79,7.79,0,0,0,120.13,16l.65,79.61a7.78,7.78,0,0,0,7.85,7.72h.74a7.78,7.78,0,0,0,7.72-7.85l-.43-54.25L158.21,41a5.76,5.76,0,0,0,5.71-5.81Z"/><path class="cls-1" d="M57.72,61.5a59.33,59.33,0,0,0-7.29-.21c-1.24,0-2.43.1-3.58.21l-.32,0C14.2,64.66,13.78,94.19,13.78,94.19l.07,91.08H91.71V94.1S90.07,64.47,57.72,61.5Zm1.64,36.73a6.62,6.62,0,0,1-6.62,6.62h0a6.61,6.61,0,0,1-6.61-6.62V78.94a6.61,6.61,0,0,1,6.61-6.61h0a6.61,6.61,0,0,1,6.62,6.61Z"/><rect class="cls-2" width="239" height="239"/></g></g></svg>