<svg xmlns="http://www.w3.org/2000/svg" viewBox="0 0 239 239"><defs><style>.cls-1{fill:#353535;}.cls-2{fill:none;}</style></defs><title>mb-cluster</title><g id="Layer_2" data-name="Layer 2"><g id="Layer_2-2" data-name="Layer 2"><path class="cls-1" d="M11,77.93H77.27V11.7H11ZM58.6,38a4.67,4.67,0,1,1,9.33,0V51.62a4.67,4.67,0,1,1-9.33,0Z"/><path class="cls-1" d="M11,152.62H77.27V86.38H11ZM58.6,112.69a4.67,4.67,0,0,1,9.33,0v13.62a4.67,4.67,0,0,1-9.33,0Z"/><path class="cls-1" d="M11,227.3H77.27V161.07H11ZM58.6,187.38a4.67,4.67,0,1,1,9.33,0V201a4.67,4.67,0,1,1-9.33,0Z"/><path class="cls-1" d="M87.05,77.93h66.24V11.7H87.05ZM134.61,38A4.67,4.67,0,0,1,144,38V51.62a4.67,4.67,0,0,1-9.34,0Z"/><path class="cls-1" d="M87.05,152.62h66.24V86.38H87.05Zm47.56-39.93a4.67,4.67,0,0,1,9.34,0v13.62a4.67,4.67,0,0,1-9.34,0Z"/><path class="cls-1" d="M87.05,227.3h66.24V161.07H87.05Zm47.56-39.92a4.67,4.67,0,0,1,9.34,0V201a4.67,4.67,0,0,1-9.34,0Z"/><path class="cls-1" d="M161.73,11.7V77.93H228V11.7Zm56.91,39.92a4.67,4.67,0,1,1-9.34,0V38a4.67,4.67,0,0,1,9.34,0Z"/><path class="cls-1" d="M161.73,152.62H228V86.38H161.73Zm47.57-39.93a4.67,4.67,0,0,1,9.34,0v13.62a4.67,4.67,0,0,1-9.34,0Z"/><path class="cls-1" d="M161.73,227.3H228V161.07H161.73Zm47.57-39.92a4.67,4.67,0,0,1,9.34,0V201a4.67,4.67,0,0,1-9.34,0Z"/><rect class="cls-2" width="239" height="239"/></g></g></svg>