<svg xmlns="http://www.w3.org/2000/svg" viewBox="0 0 239 239"><defs><style>.cls-1{fill:#353535;}.cls-2{fill:none;}</style></defs><title>mb-group</title><g id="Layer_2" data-name="Layer 2"><g id="Layer_2-2" data-name="Layer 2"><path class="cls-1" d="M201.93,103.94c-.75,0-1.47.08-2.17.15H173.07l.24,30.78a9.35,9.35,0,0,1-9,9.64h-.87a9.34,9.34,0,0,1-9.17-9.48L154,104.09H117.94c23.49,2.26,24.68,24.88,24.68,24.88v69.58h90.3V129S228.2,102.86,201.93,103.94Z"/><path class="cls-1" d="M112.72,105.2a40.22,40.22,0,0,0-5.23-.16c-.88,0-1.74.08-2.56.16l-.23,0c-23.2,2.36-23.51,24.63-23.51,24.63l0,68.7h55.87V129.79S135.94,107.44,112.72,105.2Z"/><path class="cls-1" d="M189.21,69.27A4.24,4.24,0,0,0,185,65l-20.35.17a3.9,3.9,0,0,0-1.52.32,5.74,5.74,0,0,0-5.25,5.91l.46,60a5.73,5.73,0,0,0,5.63,5.83h.54a5.74,5.74,0,0,0,5.54-5.92l-.32-40.92,15.47-.13a4.25,4.25,0,0,0,4.1-4.38Z"/><path class="cls-1" d="M201.45,97.54a35.43,35.43,0,0,0-8.8-15.22l0,5.2c0,3.09-2.16,5.61-4.87,5.63l-14.56.17-.06,4.22Z"/><path class="cls-1" d="M106.72,97.56c.84,0,1.67.08,2.46.15l.49.06-.84-.23h45.76L154.42,75h-68C102.66,79.05,106.05,93.09,106.72,97.56Z"/><path class="cls-1" d="M76,122.37s.32-22.28,24.71-24.64h.08c-1-5.57-5.49-20.73-25.37-22.56A46.59,46.59,0,0,0,70,75c-.93,0-1.83.08-2.7.16l-.24,0c-24.39,2.36-24.7,24.64-24.7,24.64l0,68.7H76.08Z"/><path class="cls-1" d="M37.16,93.57s.32-22.27,24.71-24.63l.24,0,.8,0V65.22S61.72,42.87,38.12,40.63a41.42,41.42,0,0,0-5.31-.16c-.9,0-1.77.08-2.61.16l-.23,0C6.39,43,6.08,65.29,6.08,65.29l0,68.7H37.19Z"/><path class="cls-1" d="M68.51,64.4v4.41c.6,0,1.22,0,1.79.1.17,0,.32,0,.49.06L70,68.74H154.4l0-2.75a10.57,10.57,0,0,1,4.35-6.66c-2.34-6-7.85-15.64-19.73-18.88H48.74C67.47,45.29,68.51,64.4,68.51,64.4Z"/><rect class="cls-2" width="239" height="239"/></g></g></svg>