<svg xmlns="http://www.w3.org/2000/svg" viewBox="0 0 239 239"><defs><style>.cls-1{fill:none;}.cls-2{fill:#353535;}</style></defs><title>po-box</title><g id="Layer_2" data-name="Layer 2"><g id="Layer_2-2" data-name="Layer 2"><path class="cls-1" d="M214,131a4.67,4.67,0,0,0,4.67-4.66V112.69a4.67,4.67,0,0,0-9.34,0v13.62A4.67,4.67,0,0,0,214,131Z"/><path class="cls-1" d="M87.05,161.07h13.46a11.41,11.41,0,0,0-2-2.86Q95.42,155,86.87,155H78.18v22h7.48c.48,0,.93,0,1.39,0"/><path class="cls-1" d="M63.26,131a4.67,4.67,0,0,0,4.67-4.66V112.69a4.67,4.67,0,0,0-9.33,0v13.62A4.66,4.66,0,0,0,63.26,131Z"/><path class="cls-1" d="M131.12,161.07h6.36a42.92,42.92,0,0,1,4.51-8.45H129.34A34.45,34.45,0,0,1,131.12,161.07Z"/><path class="cls-1" d="M63.26,33.34A4.67,4.67,0,0,0,58.6,38V51.62a4.67,4.67,0,1,0,9.33,0V38A4.67,4.67,0,0,0,63.26,33.34Z"/><path class="cls-1" d="M214,33.34A4.67,4.67,0,0,0,209.3,38V51.62a4.67,4.67,0,1,0,9.34,0V38A4.67,4.67,0,0,0,214,33.34Z"/><path class="cls-1" d="M139.28,33.34A4.67,4.67,0,0,0,134.61,38V51.62a4.67,4.67,0,0,0,9.34,0V38A4.67,4.67,0,0,0,139.28,33.34Z"/><path class="cls-1" d="M139.28,131a4.67,4.67,0,0,0,4.67-4.66V112.69a4.67,4.67,0,0,0-9.34,0v13.62A4.67,4.67,0,0,0,139.28,131Z"/><path class="cls-1" d="M184.32,156.33a18.69,18.69,0,0,0-13,4.74h26.6Q192.57,156.34,184.32,156.33Z"/><path class="cls-2" d="M77.27,11.7H11V77.93H77.27ZM67.93,51.62a4.67,4.67,0,1,1-9.33,0V38a4.67,4.67,0,1,1,9.33,0Z"/><path class="cls-2" d="M77.27,134.92V86.38H11v66.24H47.55v-17.7ZM58.6,112.69a4.67,4.67,0,0,1,9.33,0v13.62a4.67,4.67,0,0,1-9.33,0Z"/><rect class="cls-2" x="11.03" y="161.07" width="36.52" height="66.24"/><path class="cls-2" d="M153.29,11.7H87.05V77.93h66.24ZM144,51.62a4.67,4.67,0,0,1-9.34,0V38A4.67,4.67,0,0,1,144,38Z"/><path class="cls-2" d="M123.06,142.8a25,25,0,0,1,6.28,9.82H142a41.42,41.42,0,0,1,4.9-5.92,42.24,42.24,0,0,1,6.4-5.23V86.38H87.05v48.54h11.2Q114.81,134.92,123.06,142.8Zm11.55-30.11a4.67,4.67,0,0,1,9.34,0v13.62a4.67,4.67,0,0,1-9.34,0Z"/><path class="cls-2" d="M141.22,213.15q-6.79-11.51-6.8-28.81a61.8,61.8,0,0,1,4.06-23.27h-6.36c.12,1.33.18,2.71.18,4.15,0,10-3,19.75-9,25.36S108.18,200,95.88,200l-7.83,1V227.3h66.24v0A42.86,42.86,0,0,1,141.22,213.15Z"/><path class="cls-2" d="M228,11.7H161.73V77.93H228Zm-9.33,39.92a4.67,4.67,0,1,1-9.34,0V38a4.67,4.67,0,0,1,9.34,0Z"/><path class="cls-2" d="M222.36,146.46a40.37,40.37,0,0,1,5.08,6.16H228V86.38H161.73v50.71a61.94,61.94,0,0,1,22.66-3.86Q209,133.23,222.36,146.46ZM209.3,112.69a4.67,4.67,0,0,1,9.34,0v13.62a4.67,4.67,0,0,1-9.34,0Z"/><path class="cls-2" d="M216,227.3H228V215.14A41.07,41.07,0,0,1,216,227.3Z"/><path class="cls-2" d="M56,144.27H96.08q13.11,0,19.63,6.23t6.52,17.73q0,11.82-7.11,18.47t-21.7,6.66H80.22v29H56Zm24.23,33.28h5.91q7,0,9.79-2.43a7.78,7.78,0,0,0,2.83-6.2,8.67,8.67,0,0,0-2.45-6.23c-1.64-1.7-4.71-2.56-9.21-2.56H80.22Z"/><path class="cls-2" d="M143.81,183.35q0-19.11,10.65-29.77t29.66-10.64q19.49,0,30,10.46t10.55,29.31q0,13.68-4.61,22.44a32.88,32.88,0,0,1-13.31,13.64q-8.72,4.86-21.7,4.87-13.2,0-21.86-4.21a32.9,32.9,0,0,1-14-13.31Q143.82,197,143.81,183.35Zm24.12.11q0,11.82,4.4,17t11.95,5.17q7.77,0,12-5.06t4.26-18.16q0-11-4.44-16.11t-12.06-5.08a14.67,14.67,0,0,0-11.72,5.16Q167.94,171.54,167.93,183.46Z"/><rect class="cls-1" width="239" height="239"/></g></g></svg>