<svg xmlns="http://www.w3.org/2000/svg" viewBox="0 0 239 239"><defs><style>.cls-1{fill:#353535;}.cls-2{fill:none;}</style></defs><title>postal-bar-coce</title><g id="Layer_2" data-name="Layer 2"><g id="Layer_2-2" data-name="Layer 2"><rect class="cls-1" x="48.7" y="109.82" width="7.21" height="19.66"/><rect class="cls-1" x="78.56" y="109.82" width="7.21" height="19.66"/><rect class="cls-1" x="108.43" y="109.82" width="7.21" height="19.66"/><rect class="cls-1" x="18.83" y="89.72" width="7.21" height="39.77"/><rect class="cls-1" x="63.63" y="89.72" width="7.21" height="39.77"/><rect class="cls-1" x="138.3" y="89.72" width="7.21" height="39.77"/><rect class="cls-1" x="33.76" y="109.82" width="7.21" height="39.47"/><rect class="cls-1" x="93.5" y="109.82" width="7.21" height="39.47"/><rect class="cls-1" x="153.23" y="109.82" width="7.21" height="39.47"/><rect class="cls-1" x="3.9" y="89.72" width="7.21" height="59.57"/><rect class="cls-1" x="123.36" y="89.72" width="7.21" height="59.57"/><rect class="cls-1" x="168.16" y="89.72" width="7.21" height="59.57"/><rect class="cls-1" x="198.03" y="89.72" width="7.21" height="39.77"/><rect class="cls-1" x="212.96" y="109.82" width="7.21" height="39.47"/><rect class="cls-1" x="183.1" y="109.82" width="7.21" height="19.66"/><rect class="cls-1" x="227.9" y="89.72" width="7.21" height="59.57"/><rect class="cls-2" width="239" height="239"/></g></g></svg>