<svg xmlns="http://www.w3.org/2000/svg" viewBox="0 0 239 239"><defs><style>.cls-1{fill:#353535;}.cls-2{fill:none;}</style></defs><title>print</title><g id="Layer_2" data-name="Layer 2"><g id="Layer_2-2" data-name="Layer 2"><path class="cls-1" d="M184.27,17.78a4.66,4.66,0,0,0-4.66-4.66H59.39a4.66,4.66,0,0,0-4.66,4.66V74.63H184.27Z"/><path class="cls-1" d="M217.51,84h-196C14.37,84,8.6,91.25,8.6,100.26V183.2c0,9,5.77,16.31,12.89,16.31H46V149.19H193v50.32h24.47c7.12,0,12.89-7.3,12.89-16.31V100.26C230.4,91.25,224.63,84,217.51,84ZM206.82,131a10.72,10.72,0,1,1,10.72-10.72A10.72,10.72,0,0,1,206.82,131Z"/><path class="cls-1" d="M54.73,221a4.75,4.75,0,0,0,4.66,4.85H179.61a4.75,4.75,0,0,0,4.66-4.85V158.51H54.73Zm11.54-50.7H172.73v4.84H66.27Zm0,17.45H172.73v4.85H66.27Zm0,17.45H172.73v4.85H66.27Z"/><rect class="cls-2" width="239" height="239"/></g></g></svg>