<svg xmlns="http://www.w3.org/2000/svg" viewBox="0 0 239 239"><defs><style>.cls-1{fill:#353535;}.cls-2{fill:none;}</style></defs><title>save-disk</title><g id="Layer_2" data-name="Layer 2"><g id="Layer_2-2" data-name="Layer 2"><path class="cls-1" d="M222.11,47.22,189.49,16.41a10.61,10.61,0,0,0-7.3-2.91H24.2A10.64,10.64,0,0,0,13.56,24.15v190.7A10.64,10.64,0,0,0,24.2,225.5H214.8a10.64,10.64,0,0,0,10.64-10.65V55A10.66,10.66,0,0,0,222.11,47.22ZM73.22,26.09a4.84,4.84,0,0,1,4.84-4.84h82.88a4.84,4.84,0,0,1,4.84,4.84V76.42a10.64,10.64,0,0,1-10.64,10.65H83.86A10.64,10.64,0,0,1,73.22,76.42ZM200.29,202.27a4.84,4.84,0,0,1-4.84,4.84H43.55a4.84,4.84,0,0,1-4.84-4.84V116.11a10.65,10.65,0,0,1,10.64-10.65h140.3a10.65,10.65,0,0,1,10.64,10.65Z"/><rect class="cls-1" x="124.77" y="27.05" width="33.88" height="53.24" rx="4.84" ry="4.84"/><rect class="cls-2" width="239" height="239"/></g></g></svg>