<svg xmlns="http://www.w3.org/2000/svg" viewBox="0 0 239 239"><defs><style>.cls-1{fill:#353535;}.cls-2{fill:none;}</style></defs><title>search</title><g id="Layer_2" data-name="Layer 2"><g id="Layer_2-2" data-name="Layer 2"><path class="cls-1" d="M225.41,206.47l-52.3-52.3a15,15,0,0,0-1.27-1.14,91.42,91.42,0,1,0-23.77,21.13A16.1,16.1,0,0,0,150.3,177l52.31,52.31a16.13,16.13,0,0,0,22.8,0h0A16.13,16.13,0,0,0,225.41,206.47ZM100.23,159.4a63,63,0,1,1,63-63A63.11,63.11,0,0,1,100.23,159.4Z"/><rect class="cls-2" width="239" height="239"/></g></g></svg>