<svg xmlns="http://www.w3.org/2000/svg" viewBox="0 0 239 239"><defs><style>.cls-1{fill:#353535;}.cls-2{fill:none;}</style></defs><title>servers</title><g id="Layer_2" data-name="Layer 2"><g id="Layer_2-2" data-name="Layer 2"><path class="cls-1" d="M217.19,25.75H21.81a14,14,0,0,0-14,14V63.86a14,14,0,0,0,14,14H217.19a14,14,0,0,0,14-14V39.73A14,14,0,0,0,217.19,25.75ZM35.12,69.2H23V36.86H35.12Zm22.23,0H45.22V36.86H57.35Zm22.23,0H67.46V36.86H79.58Zm127.84,1A10.61,10.61,0,1,1,218,59.6,10.61,10.61,0,0,1,207.42,70.21Z"/><path class="cls-1" d="M217.19,93.46H21.81a14,14,0,0,0-14,14v24.12a14,14,0,0,0,14,14H217.19a14,14,0,0,0,14-14V107.44A14,14,0,0,0,217.19,93.46ZM35.12,136.91H23V104.57H35.12Zm22.23,0H45.22V104.57H57.35Zm22.23,0H67.46V104.57H79.58Zm127.84,1A10.61,10.61,0,1,1,218,127.31,10.61,10.61,0,0,1,207.42,137.92Z"/><path class="cls-1" d="M217.19,161.16H21.81a14,14,0,0,0-14,14v24.13a14,14,0,0,0,14,14H217.19a14,14,0,0,0,14-14V175.14A14,14,0,0,0,217.19,161.16ZM35.12,204.62H23V172.28H35.12Zm22.23,0H45.22V172.28H57.35Zm22.23,0H67.46V172.28H79.58Zm127.84,1A10.61,10.61,0,1,1,218,195,10.61,10.61,0,0,1,207.42,205.63Z"/><rect class="cls-2" width="239" height="239"/></g></g></svg>