<svg xmlns="http://www.w3.org/2000/svg" viewBox="0 0 239 239"><defs><style>.cls-1{fill:#353535;}.cls-2{fill:none;}</style></defs><title>street view</title><g id="Layer_2" data-name="Layer 2"><g id="Layer_2-2" data-name="Layer 2"><circle class="cls-1" cx="119.5" cy="35.75" r="30.32"/><path class="cls-1" d="M119.5,100.73l-25.35-25H93V198.92a4.81,4.81,0,0,0,4.81,4.81h43.32a4.81,4.81,0,0,0,4.81-4.81V75.7h-1.12Z"/><rect class="cls-1" x="153.35" y="74.74" width="13.48" height="76.05" rx="4.81" ry="4.81"/><rect class="cls-1" x="71.53" y="74.74" width="13.48" height="76.05" rx="4.81" ry="4.81"/><path class="cls-1" d="M152.71,177.48h0a6.91,6.91,0,0,0,5.51,6.74c17.28,3.57,28.57,9.46,28.57,16.13,0,10.9-30.13,19.74-67.29,19.74s-67.29-8.84-67.29-19.74c0-6.67,11.29-12.56,28.57-16.13a6.91,6.91,0,0,0,5.51-6.74h0a6.87,6.87,0,0,0-8.08-6.78c-29.92,5.47-50.44,16.7-50.44,29.66,0,18.34,41.07,33.21,91.73,33.21s91.73-14.87,91.73-33.21c0-13-20.52-24.19-50.44-29.66A6.87,6.87,0,0,0,152.71,177.48Z"/><rect class="cls-2" width="239" height="239"/></g></g></svg>