<svg xmlns="http://www.w3.org/2000/svg" viewBox="0 0 239 239"><defs><style>.cls-1{fill:#353535;}.cls-2{fill:none;}</style></defs><title>toggle-down</title><g id="Layer_2" data-name="Layer 2"><g id="Layer_2-2" data-name="Layer 2"><path class="cls-1" d="M120,176.34l-74.89-73a8.37,8.37,0,0,0-11.61,0L18.27,118.18a7.85,7.85,0,0,0,0,11.31l95.59,93.19a9.26,9.26,0,0,0,12.28,0l95.59-93.19a7.85,7.85,0,0,0,0-11.31L206.5,103.33a8.37,8.37,0,0,0-11.61,0Z"/><path class="cls-1" d="M119,89.34l-74.89-73a8.37,8.37,0,0,0-11.61,0L17.27,31.18a7.85,7.85,0,0,0,0,11.31l95.59,93.19a9.26,9.26,0,0,0,12.28,0l95.59-93.19a7.85,7.85,0,0,0,0-11.31L205.5,16.33a8.37,8.37,0,0,0-11.61,0Z"/><rect class="cls-2" width="239" height="239"/></g></g></svg>