<svg xmlns="http://www.w3.org/2000/svg" viewBox="0 0 239 239"><defs><style>.cls-1{fill:#353535;}.cls-2{fill:none;}</style></defs><title>traffic</title><g id="Layer_2" data-name="Layer 2"><g id="Layer_2-2" data-name="Layer 2"><path class="cls-1" d="M211.68,162.45c-2.7-.15-5.42-.08-8.13-.09-8.68,0-17.36,0-26,0-1.63,0-2.14-.55-2.1-2.1.07-3.54,0-7.08,0-10.62A2.06,2.06,0,0,1,177,147.4a26.62,26.62,0,0,0,11.66-9c5.45-6.93,10.69-14,16-21.09,3.77-5,7.56-10,11.18-15.17,4-5.71.09-9.62-4.82-9.7-5.75-.09-11.5-.06-17.25-.07-5.42,0-10.84,0-16.26,0-1.49,0-2.1-.55-2.08-2,0-3.6,0-7.19.06-10.78a2.36,2.36,0,0,1,1-1.81c6.66-2.62,11.15-7.68,15.28-13.22,7.12-9.54,14.33-19,21.43-28.56A40.08,40.08,0,0,0,217,29.81a4.67,4.67,0,0,0-2.69-6.61,16.58,16.58,0,0,0-5.15-1q-15.6-.14-31.19,0c-1.61,0-2.49-.25-2.74-2.12a13.06,13.06,0,0,0-7.71-10.44c-.41-.19-.83-.35-1.26-.5L165.75,9c-2.39-.51-4.72-1.21-7.07-1.5l-3.9,0c-25.72.2-52.18.6-77.85.6a18,18,0,0,1-4.24,1.08A19.71,19.71,0,0,0,70,10.55a12.7,12.7,0,0,0-6.1,9.39c-.26,2-1.19,2.3-2.95,2.29q-15.35-.11-30.68,0a19.86,19.86,0,0,0-5.33.91c-2.75.83-4.3,4.07-2.89,6.53a102.18,102.18,0,0,0,6.62,10Q39.32,54,50.18,68.2a26.72,26.72,0,0,0,11.55,9.08,2.64,2.64,0,0,1,1.92,3c-.1,3.31,0,6.63,0,10,0,1.9-.31,2.19-2.25,2.19h-31a29.87,29.87,0,0,0-3.14.14c-4.67.5-7.59,4.37-4.15,9.36,3.6,5.22,7.48,10.23,11.28,15.31,4.88,6.54,9.75,13.08,14.7,19.56,3.63,4.75,7.8,8.86,13.62,10.91a2,2,0,0,1,.9,1.54c.08,3.87,0,7.74,0,11.61,0,1.53-1,1.56-2.15,1.56-10.67,0-21.34-.06-32,0a14.75,14.75,0,0,0-5,1A4.43,4.43,0,0,0,22,169.63a89.34,89.34,0,0,0,5.87,8.94c6.44,8.74,13,17.39,19.47,26.09,3.59,4.81,7.38,9.55,13,11.9,2.84,1.18,3.32,3.05,3.91,5.52,1.06,4.43,4.1,7.29,8.22,9.07l.74.35h92.57c3.87-1.59,7-4,8.51-8,.51-1.32.62-2.8,1.07-4.15.23-.67.67-1.56,1.23-1.76,5.41-1.94,9.45-5.66,12.82-10.08,8.17-10.69,16.19-21.48,24.23-32.26,1.17-1.58,2.11-3.32,3.14-5C219,166.63,216,162.68,211.68,162.45Zm-91.41,55.76a28.06,28.06,0,1,1,28.22-28.11A28,28,0,0,1,120.27,218.21ZM92.23,120c.44-15.9,12.63-27.91,28-27.94a28.11,28.11,0,1,1-.15,56.21C104.44,148.09,92.43,135.7,92.23,120ZM120.1,78.25A28.06,28.06,0,1,1,148.49,50,28,28,0,0,1,120.1,78.25Z"/><rect class="cls-2" width="239" height="239"/></g></g></svg>