<svg xmlns="http://www.w3.org/2000/svg" viewBox="0 0 239 239"><defs><style>.cls-1{fill:#353535;}.cls-2{fill:none;}</style></defs><title>trash</title><g id="Layer_2" data-name="Layer 2"><g id="Layer_2-2" data-name="Layer 2"><path class="cls-1" d="M194.37,57.36H168.08V30.73c0-9.82-7.23-17.73-16.17-17.73H87.18C78.24,13,71,21,71,30.73V57.36H44.68c-5.57,0-10.11,5-10.11,11.09s4.54,11.09,10.11,11.09h6.06V208.27C50.74,218.09,58,226,66.91,226H172.09c8.94,0,16.17-8,16.17-17.73V79.54h6.06c5.57,0,10.11-5,10.11-11.09S199.94,57.36,194.37,57.36Zm-46.51,0H91.19V45c0-5.42,4-9.77,8.89-9.77h38.84c4.93,0,8.89,4.35,8.89,9.77l.05,12.41ZM91.19,88.43V195c0,4.88-3.66,8.89-8.11,8.89S75,199.86,75,195V88.43c0-4.89,3.66-8.89,8.11-8.89S91.19,83.54,91.19,88.43Zm36.44,0V195c0,4.88-3.66,8.89-8.11,8.89s-8.11-4-8.11-8.89V88.43c0-4.89,3.67-8.89,8.11-8.89S127.63,83.54,127.63,88.43Zm36.4,0V195c0,4.88-3.66,8.89-8.11,8.89s-8.11-4-8.11-8.89V88.43c0-4.89,3.66-8.89,8.11-8.89S164,83.54,164,88.43Z"/><rect class="cls-2" width="239" height="239"/></g></g></svg>