<svg xmlns="http://www.w3.org/2000/svg" viewBox="0 0 239 239"><defs><style>.cls-1{fill:#353535;}.cls-2{fill:none;}</style></defs><title>truck</title><g id="Layer_2" data-name="Layer 2"><g id="Layer_2-2" data-name="Layer 2"><rect class="cls-1" x="11" y="37.41" width="108.52" height="104" rx="8.42" ry="8.42"/><circle class="cls-1" cx="180.11" cy="184.38" r="17.22"/><circle class="cls-1" cx="51.28" cy="184.38" r="17.22"/><path class="cls-1" d="M226.47,109,191.14,58.74a5.56,5.56,0,0,0-3.49-2.4l-.05-.07h-.51a5.8,5.8,0,0,0-.59,0H133.22c-1.91,0-3.47,2-3.47,4.49v90.67H15.38A4.37,4.37,0,0,0,11,155.8v19.07a4.38,4.38,0,0,0,4.38,4.38H27.61a23.87,23.87,0,0,1,47.34,0h81.49a23.88,23.88,0,0,1,47.35,0h20.42c1.91,0,3.46-2,3.46-4.5V116.64A9.35,9.35,0,0,0,226.47,109Zm-12.56,3.42H148v-47h33.12a5.32,5.32,0,0,1,2.37,1.85L213,108.4A5.31,5.31,0,0,1,213.91,112.43Z"/><rect class="cls-2" width="239" height="239"/></g></g></svg>