<svg xmlns="http://www.w3.org/2000/svg" viewBox="0 0 239 239"><defs><style>.cls-1{fill:#353535;}.cls-2{fill:none;}</style></defs><title>user-guide2</title><g id="Layer_2" data-name="Layer 2"><g id="Layer_2-2" data-name="Layer 2"><path class="cls-1" d="M64.5,176H201a16.5,16.5,0,0,0,16.5-16.5V23.5A16.5,16.5,0,0,0,201,7H54A32.5,32.5,0,0,0,21.5,39.5v157A35.5,35.5,0,0,0,57,232H201a16.5,16.5,0,0,0,16.5-16.5V212H64.5a18,18,0,0,1-18-18h0A18,18,0,0,1,64.5,176Zm65-140.44A35.93,35.93,0,0,1,154,97.74l-.82.72a35.85,35.85,0,0,1-47.44,0c-.31-.27-.61-.53-.91-.81A35.93,35.93,0,0,1,129.5,35.56ZM98.33,105.31l.1.1c.38.36.76.69,1.15,1a45.23,45.23,0,0,0,59.84,0c.35-.3.7-.6,1-.92l.22-.21a55.68,55.68,0,0,1,24.57,46.21V152H73.76v-.46A55.68,55.68,0,0,1,98.33,105.31Z"/><rect class="cls-2" width="239" height="239"/></g></g></svg>