<svg xmlns="http://www.w3.org/2000/svg" viewBox="0 0 239 239"><defs><style>.cls-1{fill:#353535;}.cls-2{fill:none;}</style></defs><title>userguide-1</title><g id="Layer_2" data-name="Layer 2"><g id="Layer_2-2" data-name="Layer 2"><path class="cls-1" d="M64.5,176H201a16.5,16.5,0,0,0,16.5-16.5V23.5A16.5,16.5,0,0,0,201,7H54A32.5,32.5,0,0,0,21.5,39.5v157A35.5,35.5,0,0,0,57,232H201a16.5,16.5,0,0,0,16.5-16.5V212H64.5a18,18,0,0,1-18-18h0A18,18,0,0,1,64.5,176ZM58,77.43a7.81,7.81,0,0,1,6.33-7.51l13.18-2.57a44.77,44.77,0,0,1,1.7-4.28L71.67,52a7.49,7.49,0,0,1,.86-9.57l7.15-7.17a7.5,7.5,0,0,1,9.41-.86l11.13,7.51c1.36-.52,2.74-1.18,4.27-1.7L107.07,27a7.55,7.55,0,0,1,7.36-6h10.26a7.83,7.83,0,0,1,7.51,6.15l2.57,13.18A42.39,42.39,0,0,1,139.05,42l11.12-7.54a7.48,7.48,0,0,1,9.57.86l7.17,7.19a7.72,7.72,0,0,1,.86,9.57l-7.51,11.12c.52,1.36,1.19,2.75,1.71,4.28l13.17,2.57A7.32,7.32,0,0,1,181,77.41V87.84a7.36,7.36,0,0,1-6,7.37l-13.17,2.57a44.71,44.71,0,0,1-1.71,4.27l7.52,11.13a7.3,7.3,0,0,1-.87,9.41l-7.19,7.2a7.74,7.74,0,0,1-9.57.86l-11.12-7.51a36.68,36.68,0,0,1-4.28,1.7L132.08,138a7.55,7.55,0,0,1-7.37,6H114.28a7.35,7.35,0,0,1-7.36-6l-2.57-13.18a44.77,44.77,0,0,1-4.28-1.7L89,130.65a7.49,7.49,0,0,1-9.57-.86l-7.19-7.2a7.72,7.72,0,0,1-.87-9.56l7.52-11.13c-.52-1.36-1.19-2.74-1.71-4.27L64,95.06a7.56,7.56,0,0,1-6-7.37Z"/><circle class="cls-1" cx="119.5" cy="82.5" r="23.5" transform="translate(-22.47 52.01) rotate(-22.5)"/><rect class="cls-2" width="239" height="239"/></g></g></svg>