<svg xmlns="http://www.w3.org/2000/svg" viewBox="0 0 239 239"><defs><style>.cls-1{fill:#353535;}.cls-2{fill:none;}</style></defs><title>user</title><g id="Layer_2" data-name="Layer 2"><g id="Layer_2-2" data-name="Layer 2"><path class="cls-1" d="M181.72,142.54l-.44.42c-.67.63-1.36,1.23-2.05,1.83a90.32,90.32,0,0,1-119.46,0c-.77-.67-1.54-1.35-2.28-2l-.21-.2a111.1,111.1,0,0,0-49,92.22c0,.31,0,.63,0,.94h222.5c0-.31,0-.63,0-.94A111.1,111.1,0,0,0,181.72,142.54Z"/><path class="cls-1" d="M166.85,128.87c.54-.48,1.09-1,1.62-1.46a71.73,71.73,0,1,0-98.13-.17c.59.55,1.2,1.09,1.81,1.63a71.61,71.61,0,0,0,94.7,0Z"/><rect class="cls-2" width="239" height="239"/></g></g></svg>