<svg xmlns="http://www.w3.org/2000/svg" viewBox="0 0 239 239"><defs><style>.cls-1{fill:#353535;}.cls-2{fill:none;}</style></defs><title>x</title><g id="Layer_2" data-name="Layer 2"><g id="Layer_2-2" data-name="Layer 2"><path class="cls-1" d="M145.66,119.5l72.42-72.42a8,8,0,0,0,0-11.31L203.23,20.92a8,8,0,0,0-11.31,0L119.5,93.34,47.08,20.92a8,8,0,0,0-11.31,0L20.92,35.77a8,8,0,0,0,0,11.31L93.34,119.5,20.92,191.92a8,8,0,0,0,0,11.31l14.85,14.85a8,8,0,0,0,11.31,0l72.42-72.42,72.42,72.42a8,8,0,0,0,11.31,0l14.85-14.85a8,8,0,0,0,0-11.31Z"/><rect class="cls-2" width="239" height="239"/></g></g></svg>