<!-- Generated by IcoMoon.io -->
<svg version="1.1" xmlns="http://www.w3.org/2000/svg" width="512" height="512" viewBox="0 0 512 512">
<title></title>
<g id="icomoon-ignore">
</g>
<path d="M248.005 1.174c2.418-0.773 5.2-1.22 8.086-1.22s5.668 0.446 8.28 1.273l-0.194-0.053c16.721 6.008 24.167 16.629 24.19 34.263 0 5.574-1.531 12.038 0.754 16.492s9.982 3.678 15.19 5.391c50.778 16.811 85.932 50.001 104.274 100.299 5.546 15.024 8.755 32.378 8.755 50.481 0 0.482-0.002 0.964-0.007 1.445l0-0.073c0 28.461 2.673 56.58 10.805 83.967 6.601 22.248 18.274 41.481 33.303 59.115 5.574 6.601 12.791 11.81 16.743 19.849 2.161 4.205 3.428 9.177 3.428 14.444 0 17.75-14.389 32.139-32.139 32.139-0.241 0-0.483-0.002-0.723-0.008l0.036 0q-130.2 0-260.399 0-62.428 0-124.877 0c-25.424 0-41.481-26.702-28.484-48.334 5.117-8.474 12.768-15.441 19.438-22.842 19.621-22.088 29.695-48.493 35.177-77 3.386-18.375 5.323-39.519 5.323-61.115 0-0.276-0.001-0.553-0.001-0.829v0.043c0.868-52.856 22.842-95.366 64.643-127.231 16.087-12.553 35.382-21.805 56.424-26.373l0.933-0.169c5.345-1.096 7.241-3.243 7.081-8.863-0.228-7.972-1.416-15.989 1.507-23.939 3.488-10.38 11.814-18.277 22.227-21.099l0.226-0.052z"></path>
<path d="M267.512 510.689c-3.433 0.804-7.373 1.265-11.421 1.265s-7.989-0.461-11.773-1.334l0.351 0.068c-26.359-3.517-48.517-24.76-55.323-52.993-3.381-13.979-3.334-14.025 11.032-14.025 39.014 0 78.052 0 117.088 0 4.911 0 7.629 0.685 6.853 6.487-4.18 32.87-28.347 55.963-56.808 60.531z"></path>
</svg>
