<!-- Generated by IcoMoon.io -->
<svg version="1.1" xmlns="http://www.w3.org/2000/svg" width="512" height="512" viewBox="0 0 512 512">
<title></title>
<g id="icomoon-ignore">
    <line stroke-width="1" x1="16" y1="0" x2="16" y2="512" stroke="#449FDB" opacity="0.3"></line>
    <line stroke-width="1" x1="32" y1="0" x2="32" y2="512" stroke="#449FDB" opacity="1"></line>
    <line stroke-width="1" x1="48" y1="0" x2="48" y2="512" stroke="#449FDB" opacity="0.3"></line>
    <line stroke-width="1" x1="64" y1="0" x2="64" y2="512" stroke="#449FDB" opacity="1"></line>
    <line stroke-width="1" x1="80" y1="0" x2="80" y2="512" stroke="#449FDB" opacity="0.3"></line>
    <line stroke-width="1" x1="96" y1="0" x2="96" y2="512" stroke="#449FDB" opacity="1"></line>
    <line stroke-width="1" x1="112" y1="0" x2="112" y2="512" stroke="#449FDB" opacity="0.3"></line>
    <line stroke-width="1" x1="128" y1="0" x2="128" y2="512" stroke="#449FDB" opacity="1"></line>
    <line stroke-width="1" x1="144" y1="0" x2="144" y2="512" stroke="#449FDB" opacity="0.3"></line>
    <line stroke-width="1" x1="160" y1="0" x2="160" y2="512" stroke="#449FDB" opacity="1"></line>
    <line stroke-width="1" x1="176" y1="0" x2="176" y2="512" stroke="#449FDB" opacity="0.3"></line>
    <line stroke-width="1" x1="192" y1="0" x2="192" y2="512" stroke="#449FDB" opacity="1"></line>
    <line stroke-width="1" x1="208" y1="0" x2="208" y2="512" stroke="#449FDB" opacity="0.3"></line>
    <line stroke-width="1" x1="224" y1="0" x2="224" y2="512" stroke="#449FDB" opacity="1"></line>
    <line stroke-width="1" x1="240" y1="0" x2="240" y2="512" stroke="#449FDB" opacity="0.3"></line>
    <line stroke-width="1" x1="256" y1="0" x2="256" y2="512" stroke="#449FDB" opacity="1"></line>
    <line stroke-width="1" x1="272" y1="0" x2="272" y2="512" stroke="#449FDB" opacity="0.3"></line>
    <line stroke-width="1" x1="288" y1="0" x2="288" y2="512" stroke="#449FDB" opacity="1"></line>
    <line stroke-width="1" x1="304" y1="0" x2="304" y2="512" stroke="#449FDB" opacity="0.3"></line>
    <line stroke-width="1" x1="320" y1="0" x2="320" y2="512" stroke="#449FDB" opacity="1"></line>
    <line stroke-width="1" x1="336" y1="0" x2="336" y2="512" stroke="#449FDB" opacity="0.3"></line>
    <line stroke-width="1" x1="352" y1="0" x2="352" y2="512" stroke="#449FDB" opacity="1"></line>
    <line stroke-width="1" x1="368" y1="0" x2="368" y2="512" stroke="#449FDB" opacity="0.3"></line>
    <line stroke-width="1" x1="384" y1="0" x2="384" y2="512" stroke="#449FDB" opacity="1"></line>
    <line stroke-width="1" x1="400" y1="0" x2="400" y2="512" stroke="#449FDB" opacity="0.3"></line>
    <line stroke-width="1" x1="416" y1="0" x2="416" y2="512" stroke="#449FDB" opacity="1"></line>
    <line stroke-width="1" x1="432" y1="0" x2="432" y2="512" stroke="#449FDB" opacity="0.3"></line>
    <line stroke-width="1" x1="448" y1="0" x2="448" y2="512" stroke="#449FDB" opacity="1"></line>
    <line stroke-width="1" x1="464" y1="0" x2="464" y2="512" stroke="#449FDB" opacity="0.3"></line>
    <line stroke-width="1" x1="480" y1="0" x2="480" y2="512" stroke="#449FDB" opacity="1"></line>
    <line stroke-width="1" x1="496" y1="0" x2="496" y2="512" stroke="#449FDB" opacity="0.3"></line>
    <line stroke-width="1" x1="0" y1="16" x2="512" y2="16" stroke="#449FDB" opacity="0.3"></line>
    <line stroke-width="1" x1="0" y1="32" x2="512" y2="32" stroke="#449FDB" opacity="1"></line>
    <line stroke-width="1" x1="0" y1="48" x2="512" y2="48" stroke="#449FDB" opacity="0.3"></line>
    <line stroke-width="1" x1="0" y1="64" x2="512" y2="64" stroke="#449FDB" opacity="1"></line>
    <line stroke-width="1" x1="0" y1="80" x2="512" y2="80" stroke="#449FDB" opacity="0.3"></line>
    <line stroke-width="1" x1="0" y1="96" x2="512" y2="96" stroke="#449FDB" opacity="1"></line>
    <line stroke-width="1" x1="0" y1="112" x2="512" y2="112" stroke="#449FDB" opacity="0.3"></line>
    <line stroke-width="1" x1="0" y1="128" x2="512" y2="128" stroke="#449FDB" opacity="1"></line>
    <line stroke-width="1" x1="0" y1="144" x2="512" y2="144" stroke="#449FDB" opacity="0.3"></line>
    <line stroke-width="1" x1="0" y1="160" x2="512" y2="160" stroke="#449FDB" opacity="1"></line>
    <line stroke-width="1" x1="0" y1="176" x2="512" y2="176" stroke="#449FDB" opacity="0.3"></line>
    <line stroke-width="1" x1="0" y1="192" x2="512" y2="192" stroke="#449FDB" opacity="1"></line>
    <line stroke-width="1" x1="0" y1="208" x2="512" y2="208" stroke="#449FDB" opacity="0.3"></line>
    <line stroke-width="1" x1="0" y1="224" x2="512" y2="224" stroke="#449FDB" opacity="1"></line>
    <line stroke-width="1" x1="0" y1="240" x2="512" y2="240" stroke="#449FDB" opacity="0.3"></line>
    <line stroke-width="1" x1="0" y1="256" x2="512" y2="256" stroke="#449FDB" opacity="1"></line>
    <line stroke-width="1" x1="0" y1="272" x2="512" y2="272" stroke="#449FDB" opacity="0.3"></line>
    <line stroke-width="1" x1="0" y1="288" x2="512" y2="288" stroke="#449FDB" opacity="1"></line>
    <line stroke-width="1" x1="0" y1="304" x2="512" y2="304" stroke="#449FDB" opacity="0.3"></line>
    <line stroke-width="1" x1="0" y1="320" x2="512" y2="320" stroke="#449FDB" opacity="1"></line>
    <line stroke-width="1" x1="0" y1="336" x2="512" y2="336" stroke="#449FDB" opacity="0.3"></line>
    <line stroke-width="1" x1="0" y1="352" x2="512" y2="352" stroke="#449FDB" opacity="1"></line>
    <line stroke-width="1" x1="0" y1="368" x2="512" y2="368" stroke="#449FDB" opacity="0.3"></line>
    <line stroke-width="1" x1="0" y1="384" x2="512" y2="384" stroke="#449FDB" opacity="1"></line>
    <line stroke-width="1" x1="0" y1="400" x2="512" y2="400" stroke="#449FDB" opacity="0.3"></line>
    <line stroke-width="1" x1="0" y1="416" x2="512" y2="416" stroke="#449FDB" opacity="1"></line>
    <line stroke-width="1" x1="0" y1="432" x2="512" y2="432" stroke="#449FDB" opacity="0.3"></line>
    <line stroke-width="1" x1="0" y1="448" x2="512" y2="448" stroke="#449FDB" opacity="1"></line>
    <line stroke-width="1" x1="0" y1="464" x2="512" y2="464" stroke="#449FDB" opacity="0.3"></line>
    <line stroke-width="1" x1="0" y1="480" x2="512" y2="480" stroke="#449FDB" opacity="1"></line>
    <line stroke-width="1" x1="0" y1="496" x2="512" y2="496" stroke="#449FDB" opacity="0.3"></line>
</g>
<path d="M1.6 387.7c1.5-2.5 4-2.6 7.4-0.5 77.5 44.9 161.8 67.4 252.9 67.4 60.7 0 120.7-11.3 179.9-33.9 1.5-0.6 3.8-1.5 6.7-2.8 2.9-1.2 5-2.2 6.3-2.8 4.6-1.9 8.3-0.9 10.9 2.8s1.8 7.1-2.6 10.2c-5.6 4-12.7 8.7-21.4 13.9-26.7 15.8-56.4 28-89.3 36.7s-64.9 13-96.2 13c-48.3 0-94.1-8.4-137.1-25.3-43.1-16.9-81.7-40.7-115.8-71.4-1.9-1.5-2.8-3.1-2.8-4.6 0.2-0.8 0.5-1.7 1.1-2.7zM141.5 255.2c0-21.4 5.3-39.7 15.8-54.9s24.9-26.7 43.2-34.4c16.7-7.1 37.3-12.2 61.8-15.3 8.4-0.9 22-2.2 40.9-3.7v-7.9c0-19.8-2.2-33.2-6.5-40-6.5-9.3-16.7-13.9-30.7-13.9h-3.7c-10.2 0.9-19.1 4.2-26.5 9.8s-12.2 13.3-14.4 23.2c-1.2 6.2-4.3 9.8-9.3 10.7l-53.5-6.5c-5.3-1.2-7.9-4-7.9-8.4 0-0.9 0.2-2 0.5-3.3 5.3-27.6 18.2-48 38.8-61.4 20.7-13.2 44.8-20.7 72.4-22.2h11.6c35.3 0 62.9 9.1 82.7 27.4 3.1 3.1 6 6.5 8.6 10 2.6 3.6 4.7 6.7 6.3 9.5 1.5 2.8 2.9 6.8 4.2 12.1 1.2 5.3 2.2 8.9 2.8 10.9s1.1 6.4 1.4 13c0.3 6.7 0.5 10.6 0.5 11.9v112.5c0 8.1 1.2 15.4 3.5 22.1s4.6 11.5 6.7 14.4c2.2 2.9 5.7 7.7 10.7 14.2 1.9 2.8 2.8 5.3 2.8 7.4 0 2.5-1.2 4.6-3.7 6.5-25.7 22.3-39.7 34.4-41.8 36.3-3.7 2.8-8.2 3.1-13.5 0.9-4.3-3.7-8.1-7.3-11.4-10.7s-5.6-5.9-7-7.4c-1.4-1.5-3.6-4.6-6.7-9.1s-5.3-7.5-6.5-9.1c-17.4 18.9-34.4 30.7-51.1 35.3-10.5 3.1-23.6 4.6-39 4.6-23.9 0-43.5-7.4-58.8-22.1-15.5-14.5-23.2-35.4-23.2-62.4zM221.5 246c0 12.1 3 21.8 9.1 29.1 6 7.3 14.2 10.9 24.4 10.9 0.9 0 2.2-0.2 4-0.5 1.7-0.3 2.9-0.5 3.5-0.5 13-3.4 23.1-11.8 30.2-25.1 3.4-5.9 6-12.3 7.7-19.3s2.6-12.6 2.8-17c0.2-4.3 0.2-11.5 0.2-21.4v-11.6c-18 0-31.6 1.2-40.9 3.7-27.4 7.8-41 25-41 51.7zM416.7 395.6c0.6-1.2 1.5-2.5 2.8-3.7 7.7-5.3 15.2-8.8 22.3-10.7 11.8-3.1 23.2-4.8 34.4-5.1 2.8 0.1 6.8 0.1 8.8 0.5 13.9 1.2 22.3 3.6 25.1 7 1.2 1.9 1.9 4.6 1.9 8.4v3.3c0 10.8-2.9 23.6-8.8 38.4-5.9 14.7-14.1 26.6-24.6 35.6-1.5 1.2-2.9 1.9-4.2 1.9-0.6 0-1.2-0.2-1.9-0.5-1.9-0.9-2.3-2.6-1.4-5.1 11.5-27 17.2-45.7 17.2-56.2 0-3.4-0.6-5.9-1.9-7.4-3.1-3.7-11.8-5.6-26-5.6-5.3 0-11.5 0.3-18.6 0.9-7.7 0.9-14.9 1.9-21.4 2.8-1.9 0-3.1-0.3-3.7-0.9s-0.8-1.2-0.5-1.9c0-0.6 0.2-1 0.5-1.7z"></path>
</svg>
