<!-- Generated by IcoMoon.io -->
<svg version="1.1" xmlns="http://www.w3.org/2000/svg" width="496" height="512" viewBox="0 0 496 512">
<title></title>
<g id="icomoon-ignore">
</g>
<path d="M114.394 257.176l171.587-176.030c3.404-3.532 5.5-8.343 5.5-13.645s-2.097-10.113-5.507-13.651l0.006 0.006-34.882-35.798c-3.362-3.488-8.074-5.654-13.292-5.654s-9.93 2.166-13.286 5.649l-0.006 0.006-219.044 224.685c-3.397 3.821-5.473 8.885-5.473 14.432s2.075 10.611 5.492 14.454l-0.019-0.022 219.044 224.685c3.362 3.488 8.074 5.654 13.292 5.654s9.93-2.166 13.286-5.649l0.006-0.005 34.905-35.798c3.404-3.532 5.5-8.343 5.5-13.645s-2.097-10.113-5.507-13.651l0.006 0.006z"></path>
<path d="M318.889 254.826l171.587-176.030c3.404-3.532 5.5-8.343 5.5-13.645s-2.097-10.113-5.507-13.651l0.006 0.006-34.882-35.798c-3.362-3.488-8.074-5.654-13.292-5.654s-9.93 2.166-13.286 5.649l-0.005 0.005-219.044 224.685c-3.398 3.821-5.473 8.885-5.473 14.432s2.076 10.611 5.492 14.454l-0.019-0.022 219.045 224.685c3.362 3.488 8.074 5.654 13.292 5.654s9.93-2.166 13.286-5.649l0.005-0.005 34.905-35.798c3.404-3.532 5.5-8.343 5.5-13.645s-2.097-10.113-5.507-13.651l0.006 0.006z"></path>
</svg>
