<!-- Generated by IcoMoon.io -->
<svg version="1.1" xmlns="http://www.w3.org/2000/svg" width="512" height="512" viewBox="0 0 512 512">
<title></title>
<g id="icomoon-ignore">
</g>
<path d="M223.203 256l179.459-184.105c3.56-3.694 5.752-8.726 5.752-14.271s-2.193-10.577-5.759-14.277l0.007 0.007-36.481-37.441c-3.516-3.648-8.444-5.913-13.902-5.913s-10.386 2.265-13.896 5.907l-0.005 0.005-229.093 234.993c-3.553 3.997-5.724 9.292-5.724 15.094s2.171 11.098 5.744 15.117l-0.020-0.023 229.068 234.993c3.516 3.648 8.444 5.913 13.902 5.913s10.386-2.265 13.896-5.908l0.005-0.005 36.531-37.44c3.56-3.694 5.752-8.726 5.752-14.271s-2.193-10.577-5.759-14.277l0.007 0.007z"></path>
</svg>
