<!-- Generated by IcoMoon.io -->
<svg version="1.1" xmlns="http://www.w3.org/2000/svg" width="512" height="512" viewBox="0 0 512 512">
<title></title>
<g id="icomoon-ignore">
</g>
<path d="M257.214 393.914l-181.708-177.122c-3.646-3.513-8.612-5.678-14.085-5.678s-10.439 2.165-14.092 5.684l0.006-0.006-36.953 36.007c-3.601 3.471-5.837 8.334-5.837 13.721s2.236 10.25 5.83 13.716l0.005 0.005 231.933 226.11c3.945 3.507 9.172 5.649 14.897 5.649s10.953-2.142 14.921-5.669l-0.022 0.020 231.933-226.11c3.601-3.471 5.837-8.334 5.837-13.721s-2.236-10.25-5.83-13.715l-0.005-0.006-36.953-36.031c-3.646-3.513-8.613-5.678-14.085-5.678s-10.439 2.165-14.091 5.684l0.006-0.006z"></path>
<path d="M254.788 182.823l-181.708-177.122c-3.646-3.514-8.612-5.678-14.085-5.678s-10.439 2.164-14.092 5.684l0.006-0.006-36.953 36.007c-3.601 3.471-5.837 8.334-5.837 13.721s2.236 10.251 5.83 13.716l0.005 0.005 231.933 226.109c3.945 3.507 9.172 5.649 14.898 5.649s10.953-2.142 14.92-5.669l-0.022 0.020 231.933-226.109c3.601-3.471 5.837-8.334 5.837-13.721s-2.236-10.251-5.83-13.715l-0.005-0.005-36.953-36.031c-3.646-3.514-8.613-5.678-14.085-5.678s-10.439 2.164-14.091 5.684l0.006-0.006z"></path>
</svg>
