<!-- Generated by IcoMoon.io -->
<svg version="1.1" xmlns="http://www.w3.org/2000/svg" width="512" height="512" viewBox="0 0 512 512">
<title></title>
<g id="icomoon-ignore">
</g>
<path d="M315.077 236.309c0-10.769-8.923-19.692-19.692-19.692h-78.769c-10.769 0-19.692 8.923-19.692 19.692s8.923 19.692 19.692 19.692h78.769c10.769 0 19.692-8.923 19.692-19.692zM492.308 177.231v295.385c0 10.769-8.923 19.692-19.692 19.692h-433.231c-10.769 0-19.692-8.923-19.692-19.692v-295.385c0-10.769 8.923-19.692 19.692-19.692h433.231c10.769 0 19.692 8.923 19.692 19.692zM512 39.385v78.769c0 10.769-8.923 19.692-19.692 19.692h-472.616c-10.769 0-19.692-8.923-19.692-19.692v-78.769c0-10.769 8.923-19.692 19.692-19.692h472.616c10.769 0 19.692 8.923 19.692 19.692z"></path>
</svg>
