<!-- Generated by IcoMoon.io -->
<svg version="1.1" xmlns="http://www.w3.org/2000/svg" width="512" height="512" viewBox="0 0 512 512">
<title></title>
<g id="icomoon-ignore">
</g>
<path d="M494.158 214.694h-219.041v-96.975c0-0.001 0-0.002 0-0.004 0-9.854-7.988-17.843-17.843-17.843-3.285 0-6.362 0.888-9.006 2.436l0.084-0.046-239.425 138.28c-5.375 3.142-8.928 8.884-8.928 15.457s3.554 12.315 8.844 15.411l0.085 0.046 239.425 138.28c2.559 1.503 5.637 2.39 8.922 2.39 9.854 0 17.842-7.988 17.842-17.842 0-0.002 0-0.002 0-0.004v0-97.063h219.041c9.854 0 17.843-7.988 17.843-17.842v0-46.837c0-9.854-7.988-17.843-17.842-17.843v0z"></path>
</svg>
