<!-- Generated by IcoMoon.io -->
<svg version="1.1" xmlns="http://www.w3.org/2000/svg" width="512" height="512" viewBox="0 0 512 512">
<title></title>
<g id="icomoon-ignore">
</g>
<path d="M313.83 396.811h-39.41v-281.712h39.41c0.017 0 0.036 0 0.054 0 4.122 0 7.463-3.341 7.463-7.463 0-1.406-0.389-2.721-1.065-3.844l0.019 0.034-57.831-100.082c-1.313-2.254-3.717-3.745-6.471-3.745s-5.158 1.491-6.452 3.709l-0.019 0.035-57.785 100.171c-0.657 1.090-1.046 2.404-1.046 3.811 0 4.121 3.341 7.463 7.463 7.463 0.019 0 0.038 0 0.057 0h39.407v281.621h-39.456c-0.017 0-0.036 0-0.054 0-4.121 0-7.463 3.341-7.463 7.463 0 1.406 0.389 2.721 1.065 3.844l-0.019-0.034 57.831 100.171c1.313 2.254 3.718 3.745 6.471 3.745s5.158-1.491 6.452-3.709l0.019-0.036 57.785-100.375c0.585-1.041 0.93-2.284 0.93-3.608 0-4.084-3.281-7.402-7.35-7.462h-0.006z"></path>
</svg>
