<!-- Generated by IcoMoon.io -->
<svg version="1.1" xmlns="http://www.w3.org/2000/svg" width="512" height="512" viewBox="0 0 512 512">
<title></title>
<g id="icomoon-ignore">
</g>
<path d="M508.22 249.526l-100.2-57.802c-1.085-0.647-2.392-1.030-3.789-1.030-4.135 0-7.488 3.352-7.488 7.488 0 0.006 0 0.010 0 0.016v-0 39.422h-281.589v-39.466c0-0.004 0-0.010 0-0.014 0-4.135-3.353-7.488-7.487-7.488-1.397 0-2.704 0.382-3.823 1.048l0.034-0.019-100.132 57.847c-2.255 1.313-3.746 3.719-3.746 6.473s1.491 5.159 3.711 6.454l0.035 0.019 100.2 57.801c1.085 0.647 2.392 1.029 3.789 1.029 4.135 0 7.487-3.353 7.487-7.488 0-0.005 0-0.010 0-0.015v0-39.377h281.589v39.421c0 0.004 0 0.010 0 0.014 0 4.135 3.353 7.488 7.488 7.488 1.397 0 2.704-0.382 3.823-1.048l-0.034 0.019 100.2-57.847c2.236-1.317 3.712-3.713 3.712-6.454 0-2.768-1.507-5.184-3.744-6.473l-0.036-0.019z"></path>
</svg>
