<!-- Generated by IcoMoon.io -->
<svg version="1.1" xmlns="http://www.w3.org/2000/svg" width="512" height="512" viewBox="0 0 512 512">
<title></title>
<g id="icomoon-ignore">
</g>
<path d="M394.191 236.882h-96.974v-219.041c0-9.854-7.988-17.843-17.842-17.843v0h-46.837c-9.854 0-17.843 7.989-17.843 17.843v0 219.041h-96.975c-0.001 0-0.002 0-0.004 0-9.854 0-17.843 7.988-17.843 17.843 0 3.285 0.888 6.362 2.436 9.006l-0.046-0.084 138.28 239.425c3.142 5.375 8.884 8.928 15.457 8.928s12.315-3.553 15.411-8.844l0.046-0.084 138.28-239.425c1.503-2.559 2.39-5.637 2.39-8.922 0-9.854-7.988-17.843-17.842-17.843-0.033 0-0.065 0-0.099 0h0.005z"></path>
</svg>
