<!-- Generated by IcoMoon.io -->
<svg version="1.1" xmlns="http://www.w3.org/2000/svg" width="512" height="512" viewBox="0 0 512 512">
<title></title>
<g id="icomoon-ignore">
</g>
<path d="M230.685 303.259h-70.923v-275.868c0-9.56-7.75-17.31-17.31-17.31v0h-30.826c0 0 0 0 0 0-9.547 0-17.286 7.739-17.286 17.286 0 0.009 0 0.017 0 0.025v-0.001 275.868h-70.9c-9.541 0.007-17.273 7.743-17.273 17.286 0 3.245 0.894 6.281 2.45 8.875l-0.043-0.079 103.622 174.214c3.075 5.092 8.58 8.445 14.867 8.445s11.792-3.352 14.824-8.368l0.043-0.077 103.622-174.214c1.501-2.511 2.388-5.539 2.388-8.774 0-9.541-7.719-17.279-17.253-17.31h-0.003z"></path>
<path d="M503.399 182.658l-103.622-174.214c-3.075-5.092-8.58-8.445-14.868-8.445s-11.792 3.352-14.824 8.367l-0.043 0.078-103.622 174.214c-1.501 2.511-2.388 5.539-2.388 8.774 0 9.541 7.719 17.279 17.253 17.31h70.926v275.915c0 9.56 7.75 17.31 17.31 17.31v0h30.826c0 0 0 0 0 0 9.547 0 17.286-7.74 17.286-17.286 0-0.009 0-0.017 0-0.025v0.001-275.868h70.923c9.543-0.005 17.278-7.742 17.278-17.286 0-3.264-0.905-6.317-2.478-8.922l0.043 0.077z"></path>
</svg>
