<!-- Generated by IcoMoon.io -->
<svg version="1.1" xmlns="http://www.w3.org/2000/svg" width="512" height="512" viewBox="0 0 512 512">
<title></title>
<g id="icomoon-ignore">
</g>
<path d="M503.11 240.565l-239.443-138.291c-2.559-1.503-5.637-2.391-8.922-2.391-9.855 0-17.844 7.989-17.844 17.844 0 0.001 0 0.002 0 0.004v0 97.026h-219.057c-9.855 0-17.844 7.989-17.844 17.844v0 46.841c0 9.855 7.989 17.844 17.844 17.844v0h219.057v96.982c0 0.001 0 0.002 0 0.004 0 9.855 7.989 17.844 17.844 17.844 3.285 0 6.362-0.887 9.006-2.437l-0.084 0.046 239.443-138.291c5.354-3.147 8.89-8.877 8.89-15.435s-3.537-12.288-8.807-15.39l-0.084-0.046z"></path>
</svg>
