<!-- Generated by IcoMoon.io -->
<svg version="1.1" xmlns="http://www.w3.org/2000/svg" width="512" height="512" viewBox="0 0 512 512">
<title></title>
<g id="icomoon-ignore">
</g>
<path d="M256 0c-141.385 0-256 114.615-256 256s114.615 256 256 256c141.385 0 256-114.615 256-256v0c0-141.385-114.615-256-256-256v0zM256 57.158c0.094 0 0.205 0 0.317 0 42.573 0 82.007 13.438 114.291 36.304l-0.617-0.415-276.945 276.945c-22.457-31.766-35.895-71.297-35.895-113.966 0-109.825 89.025-198.856 198.847-198.867h0.001zM256 454.841c-0.094 0-0.206 0-0.317 0-42.573 0-82.007-13.438-114.291-36.305l0.617 0.414 276.944-276.945c22.457 31.766 35.895 71.297 35.895 113.966 0 109.825-89.025 198.856-198.847 198.866h-0.001z"></path>
</svg>
