<!-- Generated by IcoMoon.io -->
<svg version="1.1" xmlns="http://www.w3.org/2000/svg" width="512" height="512" viewBox="0 0 512 512">
<title></title>
<g id="icomoon-ignore">
</g>
<path d="M99.207 234.553h15.966v43.536h-15.966v-43.536z"></path>
<path d="M165.33 234.553h15.966v43.536h-15.966v-43.536z"></path>
<path d="M231.475 234.553h15.966v43.536h-15.966v-43.536z"></path>
<path d="M33.061 190.042h15.966v88.068h-15.966v-88.068z"></path>
<path d="M132.268 190.042h15.966v88.068h-15.966v-88.068z"></path>
<path d="M297.62 190.042h15.966v88.068h-15.966v-88.068z"></path>
<path d="M66.123 234.553h15.966v87.404h-15.966v-87.404z"></path>
<path d="M198.414 234.553h15.966v87.404h-15.966v-87.404z"></path>
<path d="M330.682 234.553h15.966v87.404h-15.966v-87.404z"></path>
<path d="M0 190.042h15.966v131.914h-15.966v-131.914z"></path>
<path d="M264.536 190.042h15.966v131.914h-15.966v-131.914z"></path>
<path d="M363.743 190.042h15.966v131.914h-15.966v-131.914z"></path>
<path d="M429.889 190.042h15.966v88.068h-15.966v-88.068z"></path>
<path d="M462.95 234.553h15.966v87.404h-15.966v-87.404z"></path>
<path d="M396.827 234.553h15.966v43.536h-15.966v-43.536z"></path>
<path d="M496.034 190.042h15.966v131.914h-15.966v-131.914z"></path>
</svg>
