<!-- Generated by IcoMoon.io -->
<svg version="1.1" xmlns="http://www.w3.org/2000/svg" width="512" height="512" viewBox="0 0 512 512">
<title></title>
<g id="icomoon-ignore">
</g>
<path d="M128.363 0c-0.007 0-0.016 0-0.024 0-9.493 0-17.189 7.696-17.189 17.189 0 0.008 0 0.017 0 0.024v-0.001 494.788h2.087l138.47-123.134c1.135-1.014 2.64-1.635 4.292-1.635s3.157 0.62 4.297 1.641l-0.006-0.005 138.47 123.134h2.087v-494.788c0-0.007 0-0.015 0-0.023 0-9.493-7.695-17.189-17.189-17.189-0.008 0-0.017 0-0.024 0h0.001zM381.456 147.287l-55.552 54.168c-1.203 1.161-1.95 2.788-1.95 4.59 0 0.392 0.035 0.775 0.103 1.147l-0.006-0.039 13.108 76.469c0.056 0.32 0.088 0.688 0.088 1.063 0 3.575-2.897 6.472-6.472 6.472-1.095 0-2.127-0.272-3.031-0.752l0.035 0.017-68.661-36.089c-0.871-0.465-1.904-0.738-3.002-0.738s-2.131 0.273-3.036 0.756l0.035-0.017-68.778 36.089c-0.869 0.463-1.901 0.735-2.995 0.735-3.575 0-6.472-2.897-6.472-6.472 0-0.375 0.031-0.744 0.094-1.101l-0.006 0.038 13.108-76.469c0.062-0.333 0.097-0.716 0.097-1.108 0-1.801-0.746-3.429-1.948-4.588l-0.001-0.001-55.552-54.168c-1.201-1.173-1.944-2.806-1.944-4.615 0-3.238 2.387-5.918 5.496-6.379l0.035-0.005 76.774-11.162c2.138-0.322 3.91-1.651 4.837-3.481l0.017-0.037 34.26-69.576c1.073-2.157 3.262-3.614 5.792-3.614s4.719 1.456 5.775 3.576l0.017 0.037 34.33 69.576c0.945 1.867 2.716 3.195 4.818 3.513l0.036 0.004 76.774 11.162c3.224 0.389 5.697 3.108 5.697 6.405 0 1.798-0.735 3.423-1.921 4.593l-0 0z"></path>
</svg>
