<!-- Generated by IcoMoon.io -->
<svg version="1.1" xmlns="http://www.w3.org/2000/svg" width="549" height="512" viewBox="0 0 549 512">
<title></title>
<g id="icomoon-ignore">
</g>
<path d="M274.286 0l274.286 109.715v36.572h-36.572c0 10-8.857 18.286-19.714 18.286h-436c-10.857 0-19.715-8.286-19.715-18.286h-36.572v-36.572zM73.144 182.857h73.143v219.429h36.572v-219.429h73.143v219.429h36.572v-219.429h73.143v219.429h36.572v-219.429h73.143v219.429h16.857c10.857 0 19.715 8.286 19.715 18.286v18.286h-475.428v-18.286c0-10 8.857-18.286 19.715-18.286h16.857v-219.429zM528.857 457.143c10.857 0 19.715 8.286 19.715 18.286v36.572h-548.572v-36.572c0-10 8.857-18.286 19.715-18.286h509.143z"></path>
</svg>
