<!-- Generated by IcoMoon.io -->
<svg version="1.1" xmlns="http://www.w3.org/2000/svg" width="512" height="512" viewBox="0 0 512 512">
<title></title>
<g id="icomoon-ignore">
</g>
<path d="M204.8 0h-170.667c-18.773 0-34.133 15.36-34.133 34.133v170.667c0 18.774 15.358 34.133 34.133 34.133h170.667c18.774 0 34.133-15.36 34.133-34.133v-170.667c0-18.773-15.36-34.133-34.133-34.133zM204.8 136.534h-170.667v-34.133h170.667v34.133zM477.866 0h-170.667c-18.776 0-34.134 15.36-34.134 34.133v443.733c0 18.774 15.358 34.134 34.134 34.134h170.667c18.774 0 34.134-15.36 34.134-34.134v-443.733c0-18.773-15.36-34.133-34.134-34.133zM477.866 307.2h-170.667v-34.133h170.667v34.134zM477.866 204.8h-170.667v-34.133h170.667v34.133zM204.8 273.067h-170.667c-18.773 0-34.133 15.36-34.133 34.134v170.667c0 18.774 15.358 34.134 34.133 34.134h170.667c18.774 0 34.133-15.36 34.133-34.134v-170.667c0-18.774-15.36-34.134-34.133-34.134zM204.8 409.6h-68.267v68.267h-34.133v-68.267h-68.266v-34.134h68.266v-68.267h34.133v68.267h68.267v34.134z"></path>
</svg>
