<!-- Generated by IcoMoon.io -->
<svg version="1.1" xmlns="http://www.w3.org/2000/svg" width="585" height="512" viewBox="0 0 585 512">
<title></title>
<g id="icomoon-ignore">
</g>
<path d="M585.143 438.857v36.572h-585.143v-438.857h36.572v402.286h548.572zM548.572 82.285v124.285c0 8-9.715 12.286-15.715 6.286l-34.572-34.571-180.857 180.857c-3.714 3.714-9.428 3.714-13.143 0l-66.572-66.572-118.857 118.857-54.857-54.857 167.143-167.143c3.714-3.714 9.429-3.714 13.143 0l66.572 66.571 132.572-132.571-34.572-34.572c-6-6-1.714-15.715 6.286-15.715h124.286c5.143 0 9.143 4 9.143 9.143z"></path>
</svg>
