<!-- Generated by IcoMoon.io -->
<svg version="1.1" xmlns="http://www.w3.org/2000/svg" width="512" height="512" viewBox="0 0 512 512">
<title></title>
<g id="icomoon-ignore">
</g>
<path d="M506.538 111.154l-33.908-33.791c-3.377-3.38-8.044-5.472-13.199-5.472s-9.822 2.091-13.199 5.471v0l-243.278 242.275-137.193-136.494c-3.376-3.374-8.038-5.46-13.188-5.46s-9.812 2.087-13.188 5.46v0l-33.908 33.674c-3.384 3.349-5.479 7.994-5.479 13.13s2.095 9.78 5.478 13.128l0.002 0.001 137.17 136.611-0.374 0.373 60.306 60.050 0.374-0.373 0.374 0.373 60.307-60.050-0.396-0.373 243.301-242.275c3.373-3.355 5.46-7.999 5.46-13.13s-2.087-9.775-5.459-13.129l-0-0.001z"></path>
</svg>
