<!-- Generated by IcoMoon.io -->
<svg version="1.1" xmlns="http://www.w3.org/2000/svg" width="512" height="512" viewBox="0 0 512 512">
<title></title>
<g id="icomoon-ignore">
</g>
<path d="M422.514 92.070h-29.452v14.839h-274.124v-10.625c0-1.427 0-2.855 0.181-4.259h-29.633c-6.162 0.246-11.064 5.3-11.064 11.5 0 0.154 0.003 0.308 0.009 0.461l-0.001-0.022v396.098c-0.005 0.131-0.008 0.284-0.008 0.439 0 6.2 4.902 11.254 11.041 11.5l0.022 0.001h333.026c6.161-0.246 11.064-5.3 11.064-11.5 0-0.154-0.003-0.308-0.009-0.461l0 0.022v-396.053c0.005-0.131 0.009-0.284 0.009-0.439 0-6.2-4.902-11.254-11.041-11.499l-0.022-0.001z"></path>
<path d="M336.425 42.365h-38.060c0-23.397-18.967-42.365-42.365-42.365s-42.365 18.967-42.365 42.365v0h-29.927c-21.041 0.002-38.303 16.184-40.022 36.781l-0.010 0.146c0 1.065-0.159 2.266-0.159 3.24v8.020h224.963v-16.062c-0.012-17.713-14.349-32.073-32.052-32.124h-0.005zM256 14.726c12.913 0 23.38 10.467 23.38 23.38s-10.467 23.38-23.38 23.38c-12.912 0-23.38-10.468-23.38-23.38 0-0.008 0-0.016 0-0.024v0.001c0.012-12.903 10.476-23.357 23.38-23.357v0z"></path>
</svg>
