<!-- Generated by IcoMoon.io -->
<svg version="1.1" xmlns="http://www.w3.org/2000/svg" width="512" height="512" viewBox="0 0 512 512">
<title></title>
<g id="icomoon-ignore">
</g>
<path d="M354.157 380.445c5.49-4.219 10.359-8.458 14.96-12.969l-0.026 0.026-0.877-0.426c-4.401 4.72-8.988 9.089-13.821 13.175l-0.235 0.193z"></path>
<path d="M256 0c-141.385 0-256 114.615-256 256s114.615 256 256 256c141.385 0 256-114.615 256-256v0c0-141.385-114.615-256-256-256v0zM432.593 350.033c-7.598 14.474-22.522 24.176-39.712 24.176-7.523 0-14.612-1.858-20.834-5.14l0.244 0.118-3.224-1.683c-29.084 28.523-68.966 46.127-112.959 46.127-0.038 0-0.075 0-0.113 0h0.006c-88.368 0-160-70.566-160-157.63 0-2.085 0-4.172 0.166-6.234 3.319-84.172 73.6-151.395 159.834-151.395 88.368 0 160 70.566 160 157.63-0.004 11.76-1.308 23.213-3.776 34.226l0.196-1.041 1.043 0.568c14.461 7.595 24.156 22.509 24.156 39.688 0 7.524-1.86 14.613-5.144 20.834l0.118-0.243z"></path>
<path d="M406.045 311.111v0l-130.252-67.46v-93.962c0-12.149-9.848-21.997-21.997-21.997s-21.997 9.848-21.997 21.997v105.814c0.51 9.214 5.575 17.144 12.964 21.621l0.12 0.067 140.942 73.055c2.939 1.554 6.423 2.467 10.122 2.467 12.149 0 21.998-9.849 21.998-21.998 0-8.452-4.766-15.79-11.757-19.474l-0.12-0.058z"></path>
</svg>
