<!-- Generated by IcoMoon.io -->
<svg version="1.1" xmlns="http://www.w3.org/2000/svg" width="512" height="512" viewBox="0 0 512 512">
<title></title>
<g id="icomoon-ignore">
</g>
<path d="M256 0c-141.385 0-256 114.615-256 256s114.615 256 256 256c141.385 0 256-114.615 256-256v0c0-141.385-114.615-256-256-256v0zM414.815 341.334c-3.731 7.142-11.087 11.934-19.56 11.934-3.687 0-7.161-0.907-10.214-2.51l0.12 0.058-1.091-0.568-139.852-72.486c-7.51-4.546-12.575-12.474-13.082-21.619l-0.004-0.070v-105.814c0-12.149 9.848-21.997 21.997-21.997s21.997 9.848 21.997 21.997v93.962l130.228 67.484c7.153 3.729 11.953 11.089 11.953 19.57 0 3.683-0.905 7.154-2.505 10.204l0.058-0.12z"></path>
</svg>
