<!-- Generated by IcoMoon.io -->
<svg version="1.1" xmlns="http://www.w3.org/2000/svg" width="512" height="512" viewBox="0 0 512 512">
<title></title>
<g id="icomoon-ignore">
</g>
<path d="M405.334 512c-58.816 0-106.666-47.851-106.666-106.666v-64h-85.334v64c0 58.816-47.851 106.666-106.666 106.666s-106.666-47.851-106.666-106.666 47.85-106.666 106.666-106.666h64v-85.334h-64c-58.816 0-106.666-47.851-106.666-106.666s47.85-106.666 106.666-106.666 106.666 47.85 106.666 106.666v64h85.334v-64c0-58.816 47.851-106.666 106.666-106.666s106.666 47.85 106.666 106.666-47.851 106.666-106.666 106.666h-64v85.334h64c58.816 0 106.666 47.851 106.666 106.666s-47.849 106.666-106.666 106.666zM341.334 341.334v64c0 35.289 28.711 64 64 64s64-28.711 64-64-28.711-64-64-64h-64zM106.666 341.334c-35.289 0-64 28.711-64 64s28.71 64 64 64 64-28.711 64-64v-64h-64zM213.333 298.666h85.333v-85.334h-85.334v85.334zM341.334 170.667h64c35.289 0 64-28.71 64-64s-28.711-64-64-64-64 28.71-64 64v64zM106.666 42.666c-35.289 0-64 28.71-64 64s28.71 64 64 64h64v-64c0-35.29-28.709-64-64-64z"></path>
</svg>
