<!-- Generated by IcoMoon.io -->
<svg version="1.1" xmlns="http://www.w3.org/2000/svg" width="512" height="512" viewBox="0 0 512 512">
<title></title>
<g id="icomoon-ignore">
</g>
<path d="M328.561 296.036l59.261 18.796q-13.571 49.581-45.238 73.601t-80.41 24.067q-60.257 0-99.093-41.189t-38.814-112.642q0-75.524 39.040-117.346t102.577-41.822q55.529 0 90.249 32.843 20.628 19.407 30.942 55.733l-60.483 14.453c-3.098-15.080-11.12-27.919-22.28-37.072l-0.113-0.089q-17.032-13.571-41.392-13.571-33.657 0-54.625 24.135t-20.945 78.261q0 57.406 20.651 81.745t53.675 24.361c0.356 0.007 0.776 0.012 1.198 0.012 15.658 0 29.944-5.873 40.776-15.536l-0.060 0.053q17.462-15.539 25.084-48.789z"></path>
<path d="M256 512c-141.385 0-256-114.615-256-256s114.615-256 256-256c141.385 0 256 114.615 256 256v0c-0.168 141.317-114.682 255.832-255.983 256h-0.016zM256 45.238c-116.4 0-210.762 94.362-210.762 210.762s94.362 210.762 210.762 210.762c116.4 0 210.762-94.362 210.762-210.762v0c-0.142-116.344-94.418-210.62-210.749-210.762h-0.013z"></path>
</svg>
