<!-- Generated by IcoMoon.io -->
<svg version="1.1" xmlns="http://www.w3.org/2000/svg" width="549" height="512" viewBox="0 0 549 512">
<title></title>
<g id="icomoon-ignore">
</g>
<path d="M502.858 36.571c25.143 0 45.714 20.572 45.714 45.714v347.43c0 25.143-20.572 45.714-45.714 45.714h-457.145c-25.143 0-45.715-20.572-45.715-45.714v-347.43c0-25.143 20.572-45.715 45.715-45.715h457.145zM45.714 73.142c-4.857 0-9.143 4.285-9.143 9.143v64h475.43v-64c0-4.857-4.286-9.143-9.143-9.143h-457.145zM502.858 438.858c4.857 0 9.143-4.286 9.143-9.143v-173.715h-475.43v173.715c0 4.857 4.285 9.143 9.143 9.143h457.145zM73.142 402.286v-36.572h73.144v36.572h-73.144zM182.857 402.286v-36.572h109.715v36.572h-109.715z"></path>
</svg>
