<!-- Generated by IcoMoon.io -->
<svg version="1.1" xmlns="http://www.w3.org/2000/svg" width="512" height="512" viewBox="0 0 512 512">
<title></title>
<g id="icomoon-ignore">
</g>
<path d="M478.274 65.457c0.089 0.392 0.141 0.842 0.141 1.304 0 0.004 0 0.007 0 0.011v-0.001c0 22.406-99.534 40.584-222.344 40.584s-222.321-18.178-222.321-40.584c0.004-0.467 0.046-0.921 0.124-1.364l-0.007 0.049h-0.446v117.877h0.329c0 22.429 99.534 40.584 222.321 40.584s222.344-18.154 222.344-40.584h0.329v-117.877z"></path>
<path d="M478.132 210.789c0.017 0.197 0.026 0.426 0.026 0.658s-0.010 0.46-0.028 0.688l0.002-0.030c0 22.429-99.534 40.608-222.321 40.608s-222.226-18.178-222.226-40.608c0.001-0.466 0.052-0.921 0.148-1.357l-0.008 0.042h-0.47v117.877h0.329c0 22.43 99.535 40.608 222.344 40.608s222.321-18.178 222.321-40.608h0.329v-117.877z"></path>
<path d="M478.132 353.468c0.017 0.197 0.026 0.426 0.026 0.658s-0.010 0.461-0.028 0.688l0.002-0.029c0 22.43-99.534 40.608-222.321 40.608s-222.226-18.131-222.226-40.561c0.001-0.466 0.052-0.921 0.148-1.356l-0.008 0.041h-0.47v117.877h0.329c0 22.43 99.535 40.608 222.344 40.608s222.321-18.178 222.321-40.608h0.329v-117.925z"></path>
<path d="M478.274 39.292c-3.781-21.819-101.813-39.292-222.203-39.292s-218.422 17.474-222.203 39.292c-0.070 0.393-0.113 0.847-0.117 1.311v0.005c0 22.429 99.535 40.607 222.321 40.607s222.344-18.178 222.344-40.608c-0-0.466-0.052-0.92-0.149-1.356l0.007 0.041z"></path>
</svg>
