<!-- Generated by IcoMoon.io -->
<svg version="1.1" xmlns="http://www.w3.org/2000/svg" width="512" height="512" viewBox="0 0 512 512">
<title></title>
<g id="icomoon-ignore">
</g>
<path d="M428.692 181.28c-2.017 0-3.941 0.232-5.841 0.417h-71.603l0.626 82.707c0.008 0.239 0.013 0.521 0.013 0.803 0 13.555-10.752 24.598-24.193 25.065l-0.043 0.001h-2.318c-13.647-0.232-24.622-11.35-24.622-25.031 0-0.164 0.002-0.328 0.005-0.491l-0 0.024-0.649-83.124h-96.939c63.119 6.073 66.318 66.852 66.318 66.852v186.901h242.555v-186.854s-12.68-70.189-83.309-67.268z"></path>
<path d="M189.126 184.664c-3.084-0.307-6.667-0.482-10.29-0.482-1.321 0-2.637 0.024-3.947 0.070l0.19-0.006q-3.593 0-6.954 0.417h-0.626c-62.261 6.398-63.073 66.249-63.073 66.249l0.139 184.536h150.091v-184.721s-3.153-60.036-65.529-66.063z"></path>
<path d="M394.593 88.142c0.001-0.063 0.002-0.136 0.002-0.21 0-6.221-4.991-11.276-11.188-11.38h-0.010l-54.659 0.463c-1.478 0.019-2.877 0.332-4.149 0.885l0.070-0.027c-7.976 0.675-14.194 7.316-14.194 15.409 0 0.173 0.002 0.346 0.009 0.517l-0-0.025 1.228 161.286c-0.002 0.077-0.002 0.167-0.002 0.257 0 8.411 6.748 15.247 15.125 15.389h1.45c8.287-0.304 14.889-7.095 14.889-15.428 0-0.167-0.002-0.332-0.008-0.498l0 0.024-0.858-109.919 41.562-0.348c6.132-0.228 11.016-5.254 11.016-11.421 0-0.125-0.002-0.25-0.006-0.374l0 0.018z"></path>
<path d="M427.486 164.080c-4.611-16.008-12.793-29.755-23.661-40.861l0.017 0.017v13.908c0 8.298-5.795 15.067-13.097 15.137l-38.989 0.579-0.185 11.311z"></path>
<path d="M173.016 164.173c2.319 0 4.474 0.209 6.607 0.394l1.298 0.162-2.319-0.649h122.854l-0.255-60.547h-182.659c43.578 10.894 52.642 48.632 54.473 60.639z"></path>
<path d="M90.588 230.815s0.858-59.851 66.364-66.179h0.232c-2.666-14.951-14.766-55.632-68.15-60.593-3.344-0.313-7.233-0.493-11.162-0.493-1.275 0-2.546 0.019-3.812 0.056l0.186-0.004c-2.48 0-4.891 0.231-7.233 0.441h-0.649c-65.507 6.374-66.365 66.226-66.365 66.226l0.139 184.536h90.541z"></path>
</svg>
