<!-- Generated by IcoMoon.io -->
<svg version="1.1" xmlns="http://www.w3.org/2000/svg" width="512" height="512" viewBox="0 0 512 512">
<title></title>
<g id="icomoon-ignore">
</g>
<path d="M454.766 72.551c-1.394 0-2.724 0.153-4.009 0.283h-49.305l0.436 56.887c0.005 0.166 0.009 0.359 0.009 0.554 0 9.315-7.389 16.903-16.625 17.224l-0.029 0.001h-1.613c-9.396-0.159-16.952-7.813-16.952-17.232 0-0.070 0-0.139 0.001-0.209v0.011l-0.436-57.17h-66.625c43.378 4.183 45.579 45.971 45.579 45.971v128.545h166.803v-128.545s-8.715-48.303-57.235-46.32z"></path>
<path d="M289.967 74.882c-2.121-0.208-4.585-0.326-7.077-0.326-0.905 0-1.807 0.016-2.705 0.047l0.13-0.004c-1.634 0-3.202 0.153-4.75 0.283h-0.414c-42.856 4.358-43.422 45.514-43.422 45.514v126.889h103.207v-126.977s-2.070-41.287-44.969-45.426z"></path>
<path d="M431.257 8.518c0.001-0.046 0.002-0.099 0.002-0.153 0-4.27-3.431-7.739-7.687-7.799h-0.005l-37.583 0.305c-1.018 0.015-1.981 0.23-2.86 0.607l0.049-0.019c-5.469 0.496-9.721 5.058-9.721 10.613 0 0.098 0.002 0.197 0.004 0.295l-0-0.014 0.849 110.919c-0.001 0.052-0.002 0.114-0.002 0.176 0 5.788 4.642 10.49 10.406 10.587h0.924c5.7-0.203 10.244-4.873 10.244-10.604 0-0.102-0.002-0.204-0.004-0.305l0 0.014-0.589-75.58 28.585-0.261c4.236-0.108 7.63-3.566 7.63-7.819 0-0.093-0.002-0.185-0.005-0.277l0 0.013z"></path>
<path d="M367.442 428.663v-173.231h35.317v173.231h-35.317z"></path>
<path d="M271.142 511.433h33.422l-304.565-304.543v33.4l271.142 271.143z"></path>
<path d="M0 474.351v37.082h249.573l-114.862-114.863-134.711 77.781z"></path>
<path d="M0 261.86v192.12l121.791-70.308-121.791-121.813z"></path>
</svg>
