<!-- Generated by IcoMoon.io -->
<svg version="1.1" xmlns="http://www.w3.org/2000/svg" width="512" height="512" viewBox="0 0 512 512">
<title></title>
<g id="icomoon-ignore">
</g>
<path d="M398.856 119.612c-2.286 0-4.572 0.251-6.858 0.457h-84.983l0.755 93.279c0 0.069 0.001 0.149 0.001 0.23 0 15.918-12.834 28.84-28.719 28.982h-2.779c-0.068 0-0.149 0.001-0.229 0.001-15.918 0-28.84-12.833-28.982-28.719v-0.013l-0.755-93.714h-114.88c74.811 6.858 78.606 75.428 78.606 75.428v210.857h287.611v-210.971s-15.040-79.085-98.788-75.817z"></path>
<path d="M261.051 425.509h89.349v86.491h-89.349v-86.491z"></path>
<path d="M357.12 13.052c-0.051-7.22-5.916-13.052-13.142-13.052-0.041 0-0.080 0-0.12 0.001h0.007l-64.823 0.525c-1.75 0.022-3.413 0.373-4.937 0.993l0.091-0.032c-9.371 0.571-16.755 8.31-16.755 17.774 0 0.059 0 0.119 0.001 0.177v-0.009l1.486 181.965c0.077 9.762 8.009 17.647 17.783 17.647 0.057 0 0.113 0 0.169-0h1.683c9.762-0.077 17.647-8.009 17.647-17.782 0-0.056 0-0.113-0-0.169v0.008l-0.983-123.999 49.257-0.525c7.223-0.064 13.052-5.934 13.052-13.165 0-0.041 0-0.081-0-0.121v0.007z"></path>
<path d="M114.788 123.43c-3.665-0.352-7.924-0.552-12.229-0.552-1.559 0-3.112 0.026-4.659 0.079l0.225-0.006c-2.835 0-5.554 0.228-8.183 0.48h-0.731c-73.897 7.223-74.857 74.72-74.857 74.72l0.16 208.182h177.965v-208.388s-3.749-67.725-77.692-74.514zM118.537 207.383c0 8.357-6.775 15.131-15.132 15.131v0c0 0 0 0 0 0-8.344 0-15.109-6.764-15.109-15.108 0-0.008 0-0.016 0-0.024v0.001-44.091c0-8.344 6.764-15.108 15.108-15.108v0 0c0.007 0 0.015 0 0.023 0 8.344 0 15.108 6.764 15.108 15.108v0z"></path>
</svg>
