<!-- Generated by IcoMoon.io -->
<svg version="1.1" xmlns="http://www.w3.org/2000/svg" width="512" height="512" viewBox="0 0 512 512">
<title></title>
<g id="icomoon-ignore">
</g>
<path d="M489.123 208.047h-192.817v-42.463h-80.613v42.463h-68.63v-21.329c0-0.001 0-0.002 0-0.004 0-9.626-7.803-17.429-17.429-17.429-3.209 0-6.215 0.867-8.797 2.38l0.082-0.044-106.757 61.636c-5.25 3.069-8.722 8.678-8.722 15.099s3.471 12.030 8.639 15.054l0.082 0.045 106.757 61.636c2.5 1.468 5.506 2.335 8.715 2.335 9.626 0 17.429-7.803 17.429-17.43 0-0.002 0-0.002 0-0.004v0-21.329h342.060c9.626 0 17.43-7.803 17.43-17.43v0-45.753c0-9.626-7.803-17.429-17.43-17.429v0z"></path>
<path d="M22.876 128.545h342.060v21.329c0 0.001 0 0.002 0 0.004 0 9.626 7.803 17.429 17.43 17.429 3.209 0 6.215-0.867 8.797-2.38l-0.082 0.044 106.757-61.636c5.25-3.069 8.721-8.678 8.721-15.099s-3.471-12.030-8.639-15.054l-0.082-0.044-106.757-61.636c-2.5-1.468-5.506-2.335-8.715-2.335-9.626 0-17.43 7.803-17.43 17.43 0 0.002 0 0.003 0 0.004v0 21.33h-68.63v-30.502c0-9.626-7.803-17.43-17.43-17.43v0h-45.753c-9.626 0-17.429 7.803-17.429 17.43v0 30.502h-192.817c-9.626 0-17.43 7.803-17.43 17.43v0 45.753c0 9.626 7.803 17.429 17.43 17.429v0z"></path>
<path d="M215.693 494.57c0 9.626 7.804 17.43 17.429 17.43v0h45.753c9.626 0 17.43-7.803 17.43-17.43v0-172.119h-80.613z"></path>
</svg>
