<!-- Generated by IcoMoon.io -->
<svg version="1.1" xmlns="http://www.w3.org/2000/svg" width="512" height="512" viewBox="0 0 512 512">
<title></title>
<g id="icomoon-ignore">
</g>
<path d="M19.23 211.53h473.54c10.62 0 19.23 8.609 19.23 19.23v50.479c0 10.62-8.61 19.23-19.23 19.23h-473.54c-10.62 0-19.23-8.61-19.23-19.23v-50.479c0-10.62 8.61-19.23 19.23-19.23z"></path>
<path d="M300.47 84.132c0 24.56-19.91 44.469-44.469 44.469s-44.469-19.91-44.469-44.469c0-24.56 19.91-44.469 44.469-44.469s44.469 19.91 44.469 44.469z"></path>
<path d="M300.47 427.868c0 24.56-19.91 44.469-44.469 44.469s-44.469-19.91-44.469-44.469c0-24.56 19.91-44.469 44.469-44.469s44.469 19.91 44.469 44.469z"></path>
</svg>
