<!-- Generated by IcoMoon.io -->
<svg version="1.1" xmlns="http://www.w3.org/2000/svg" width="439" height="512" viewBox="0 0 439 512">
<title></title>
<g id="icomoon-ignore">
</g>
<path d="M333.428 453.144c-0.572-2-2.286-4.857-6.857-1.428-9.714 7.143-31.428 16-62.286 16s-45.428-6.572-55.143-14c-1.429-1.143-0.857-1.143-3.714-1.143-3.143 0-4.857 1.428-7.429 3.428-2.286 2-3.429 6.857 0 10.286 21.143 19.428 56.572 17.714 82.572 15.428 26.286-2.572 48.572-18 50.857-20.286 3.428-3.428 2.572-6.286 2-8.286zM322.286 420.286c-2-4.857-5.428-13.428-11.143-17.428-5.714-3.714-14-4.286-21.714-4.286s-12-0.572-20.286 2.857-16.857 11.143-22.286 16-6.286 8.572-3.429 12.572c2.857 3.714 6 1.428 14-5.428 8.286-6.572 13.714-12.572 30.572-12.572s19.714 6.286 23.143 12.572 3.714 7.143 7.143 5.428c4-2 6-4.857 4-9.714zM423.714 340c0-14.857-6.572-40-30.857-40-22.857 0-69.143 47.428-93.428 47.714-28.286 0.572-67.428-56-124-55.428-44.572 0.286-79.715 35.714-80.285 73.428-0.285 21.143 6.572 36.857 21.143 46.857 9.715 6.572 18.572 10.572 47.428 10.572 48 0 108.857-59.428 136.857-58.572 22.286 0.857 56.857 55.428 74.286 56.572 13.714 1.143 20.857-5.143 32.572-22 11.428-17.143 16.286-44 16.286-59.143zM438.857 294.286c0 128-101.143 212.571-217.429 212.571-116.572 0-221.429-91.714-221.429-216.572 0-124.572 97.143-182.286 115.143-191.714 21.429-11.428 36.857-17.428 61.143-36.857 12-9.428 22-23.143 25.143-56.572 17.429 20.857 38.285 45.143 53.143 55.143 24.286 16 48.572 22.285 74 38.285 15.428 9.428 110.286 67.428 110.286 195.714z"></path>
</svg>
