<!-- Generated by IcoMoon.io -->
<svg version="1.1" xmlns="http://www.w3.org/2000/svg" width="110" height="512" viewBox="0 0 110 512">
<title></title>
<g id="icomoon-ignore">
</g>
<path d="M109.715 374.858v54.858c0 15.143-12.285 27.428-27.428 27.428h-54.858c-15.143 0-27.428-12.286-27.428-27.428v-54.858c0-15.143 12.286-27.428 27.428-27.428h54.858c15.143 0 27.428 12.286 27.428 27.428zM109.715 228.571v54.857c0 15.143-12.285 27.428-27.428 27.428h-54.858c-15.143 0-27.428-12.286-27.428-27.428v-54.858c0-15.143 12.286-27.428 27.428-27.428h54.858c15.143 0 27.428 12.286 27.428 27.428zM109.715 82.284v54.858c0 15.143-12.285 27.428-27.428 27.428h-54.858c-15.143 0-27.428-12.286-27.428-27.428v-54.858c0-15.143 12.286-27.428 27.428-27.428h54.858c15.143 0 27.428 12.285 27.428 27.428z"></path>
</svg>
