<!-- Generated by IcoMoon.io -->
<svg version="1.1" xmlns="http://www.w3.org/2000/svg" width="512" height="512" viewBox="0 0 512 512">
<title></title>
<g id="icomoon-ignore">
</g>
<path d="M158.571 363.142l22.285-40.286c-33.143-24-52.857-62.572-52.857-103.428 0-22.572 6-44.857 17.429-64.286-44.572 22.857-81.715 58.857-108.857 100.857 29.715 46 71.715 84.571 122 107.143zM269.714 146.286c0-7.428-6.286-13.714-13.714-13.714-47.714 0-86.857 39.143-86.857 86.857 0 7.429 6.286 13.714 13.714 13.714s13.714-6.286 13.714-13.714c0-32.857 26.857-59.429 59.429-59.429 7.428 0 13.714-6.286 13.714-13.714zM373.428 91.714c0 0.572 0 2-0.286 2.572-60.286 107.715-120 216-180.286 323.715l-14 25.428c-1.714 2.857-4.857 4.572-8 4.572-5.143 0-32.286-16.572-38.286-20-2.857-1.714-4.572-4.572-4.572-8 0-4.572 9.715-20 12.572-24.857-55.428-25.143-102-68-134.857-119.428-3.715-5.714-5.715-12.572-5.715-19.714 0-6.857 2-14 5.715-19.714 56.572-86.857 144.857-144.857 250.286-144.857 17.143 0 34.571 1.715 51.429 4.857l15.428-27.715c1.714-2.857 4.572-4.572 8-4.572 5.143 0 32 16.572 38 20 2.857 1.715 4.572 4.572 4.572 7.715zM384 219.429c0 53.143-32.857 100.571-82.286 119.429l80-143.429c1.428 8 2.286 16 2.286 24zM512 256c0 7.428-2 13.428-5.714 19.714-8.857 14.572-20 28.572-31.143 41.428-56 64.286-133.143 103.428-219.143 103.428l21.143-37.714c83.143-7.143 153.714-57.714 198.286-126.857-21.143-32.857-48.286-61.715-80.572-84l18-32c35.428 23.715 71.143 59.429 93.428 96.285 3.714 6.286 5.714 12.286 5.714 19.714z"></path>
</svg>
