<!-- Generated by IcoMoon.io -->
<svg version="1.1" xmlns="http://www.w3.org/2000/svg" width="512" height="512" viewBox="0 0 512 512">
<title></title>
<g id="icomoon-ignore">
</g>
<path d="M148.155 243.924c6.377-0.332 12.28-2.068 17.499-4.904l-0.216 0.107c6.385-4.461 10.811-11.345 11.951-19.291l0.018-0.152c0.469-2.669 0.736-5.742 0.736-8.877 0-5.303-0.766-10.428-2.194-15.268l0.096 0.381v0.972c-0.916-3.983-2.892-7.413-5.614-10.086l-0.003-0.003c-2.827-2.488-6.296-4.313-10.125-5.197l-0.157-0.031c-4.353-1.221-9.352-1.923-14.515-1.923-0.077 0-0.154 0-0.231 0h0.012l-15.339 0.281v63.989h0.54c2.621 0.164 5.685 0.257 8.771 0.257s6.149-0.094 9.189-0.278l-0.417 0.020z"></path>
<path d="M0 448.097l291.991 50.444v-485.082l-291.991 51.805zM92.008 147.011l61.116-3.175c1.831-0.126 3.968-0.198 6.122-0.198 9.752 0 19.161 1.478 28.011 4.223l-0.669-0.179c11.069 3.246 20.168 10.255 26.029 19.515l0.111 0.188c6.25 9.744 10.192 21.508 10.796 34.147l0.006 0.16c0.153 1.894 0.238 4.101 0.238 6.327 0 10.692-1.998 20.917-5.64 30.323l0.195-0.573q-11.904 27.955-35.905 35.581c-12.474 4.014-26.825 6.328-41.715 6.328-3.566 0-7.101-0.132-10.6-0.394l0.467 0.027v73.149l-38.497-4.45z"></path>
<path d="M501.198 85.419h-182.202v67.964c10.447-7.851 23.637-12.574 37.929-12.574 0.595 0 1.188 0.008 1.779 0.024l-0.087-0.002v66.085h65.523c0 0.025 0 0.056 0 0.087 0 36.476-29.515 66.060-65.966 66.171h-0.010c-14.712-0.291-28.231-5.164-39.251-13.248l0.192 0.134v45.367h143.512v22.489h-143.619v27.501h143.512v22.014h-143.512v49.99h182.202c7.366 0 10.802-3.889 10.802-11.45v-319.729c0-7.237-3.5-10.823-10.802-10.823zM368.51 195.922v-66.646c0.019 0 0.041 0 0.063 0 18.224 0 34.712 7.435 46.595 19.438l0.005 0.006c12.508 12.53 19.011 28.279 19.335 47.225z"></path>
</svg>
