<!-- Generated by IcoMoon.io -->
<svg version="1.1" xmlns="http://www.w3.org/2000/svg" width="512" height="512" viewBox="0 0 512 512">
<title></title>
<g id="icomoon-ignore">
</g>
<path d="M512 157.589v223.531c0 4.906-1.707 9.046-5.077 12.288-3.37 3.286-7.51 4.906-12.373 4.906h-182.336v-148.458l34.133 26.218c2.176 1.813 4.885 2.688 8.086 2.688 3.158 0 5.909-0.875 8.298-2.709l149.269-118.464zM312.214 114.475h182.336c4.502 0 8.384 1.344 11.584 4.096 3.2 2.731 4.992 6.4 5.291 10.88l-157.205 125.355-42.005-33.046v-107.285zM285.952 18.432v475.115l-285.952-49.408v-374.933l285.952-50.773zM199.573 256.938c-0.427-24.171-6.678-44.202-18.752-60.032-11.84-15.786-27.2-24.128-45.462-24.832-17.578 0.704-32.618 9.024-44.8 24.832-12.16 15.829-18.24 35.882-18.56 60.032 0.32 23.829 6.72 43.669 18.88 59.541 12.181 15.786 27.178 24.171 44.822 25.088 18.24-0.747 33.578-9.046 45.76-24.96 12.16-15.957 18.56-35.84 18.88-59.67h-0.768zM133.013 203.989c9.195 0.427 16.939 5.462 23.104 15.296 6.080 9.834 9.28 22.293 9.28 37.376 0 15.382-3.179 27.882-9.28 37.781-6.422 9.899-14.080 15.019-23.381 15.019s-16.96-4.822-23.36-14.72-9.28-22.4-9.28-37.418c0-15.040 2.88-27.541 9.28-37.12 6.058-9.6 13.781-14.72 23.062-15.381l0.576-0.832z"></path>
</svg>
