<!-- Generated by IcoMoon.io -->
<svg version="1.1" xmlns="http://www.w3.org/2000/svg" width="512" height="512" viewBox="0 0 512 512">
<title></title>
<g id="icomoon-ignore">
</g>
<path d="M368.347 0v91.971h87.594z"></path>
<path d="M344.414 114.713v-113.715h-274.080c-7.883 0-14.273 6.391-14.273 14.274v0 482.454c0 7.884 6.391 14.274 14.273 14.274v0h368.74c7.884 0 14.274-6.39 14.274-14.274v0-383.014zM258.438 397.43c0 0.036 0 0.079 0 0.124 0 3.050-1.392 5.774-3.577 7.572l-0.016 0.014c-1.634 1.303-3.73 2.091-6.008 2.091-2.658 0-5.065-1.070-6.815-2.805l-74.056-74.057h-34.543c-5.256 0-9.516-4.261-9.516-9.515v0-96.181c0-5.256 4.261-9.516 9.516-9.516v0h34.543l73.915-74.010c1.78-1.815 4.257-2.939 6.999-2.939 0.452 0 0.896 0.030 1.332 0.090l-0.050-0.006c4.697 0.632 8.279 4.615 8.279 9.435 0 0.029 0 0.056-0 0.085v-0.005zM288.58 341.5c-7.952-0.014-14.392-6.463-14.392-14.416 0-3.975 1.608-7.574 4.212-10.183v0c11.279-11.319 18.251-26.935 18.251-44.178s-6.974-32.859-18.254-44.179l0.002 0.001c-2.606-2.606-4.217-6.205-4.217-10.183 0-7.953 6.447-14.399 14.399-14.399 3.976 0 7.576 1.612 10.183 4.218v0c16.505 16.524 26.712 39.34 26.712 64.541s-10.207 48.018-26.713 64.543l0.001-0.001c-2.589 2.615-6.178 4.235-10.147 4.235-0.012 0-0.026 0-0.037 0h0.002zM349.909 364.457c-2.603 2.575-6.185 4.166-10.137 4.166-7.962 0-14.417-6.454-14.417-14.417 0-3.954 1.591-7.534 4.167-10.138l-0.001 0.001c18.251-18.271 29.538-43.502 29.538-71.37s-11.288-53.097-29.539-71.37l0 0c-2.057-2.474-3.305-5.684-3.305-9.185 0-7.962 6.454-14.417 14.417-14.417 3.543 0 6.788 1.279 9.298 3.399l-0.022-0.018c23.472 23.478 37.99 55.911 37.99 91.733s-14.517 68.255-37.99 91.734l0-0z"></path>
</svg>
