<!-- Generated by IcoMoon.io -->
<svg version="1.1" xmlns="http://www.w3.org/2000/svg" width="512" height="512" viewBox="0 0 512 512">
<title></title>
<g id="icomoon-ignore">
</g>
<path d="M368.406 0v91.971h87.594l-87.594-91.971z"></path>
<path d="M344.473 0.999h-125.109v22.576h-24.575v24.575h24.575v24.599h-24.575v24.575h24.575v24.575h-24.575v24.599h24.575v24.575h-24.575v24.599h24.575v24.575h-24.575v24.575h24.575v24.599h-24.575v24.575h24.575v24.599h-24.575v50.458c28.263 5.916 49.185 30.631 49.185 60.232 0 33.95-27.522 61.472-61.472 61.472s-61.472-27.522-61.472-61.472c0-29.601 20.922-54.315 48.785-60.161l0.4-0.070v-25.884h-24.599v-24.575h24.575v-24.599h-24.575v-24.575h24.575v-24.599h-24.575v-24.575h24.575v-24.575h-24.575v-24.599h24.575v-24.575h-24.575v-24.599h24.575v-24.575h-24.575v-24.575h24.575v-24.599h-24.575v-24.575h24.575v-22.576h-99.916c-7.883 0-14.273 6.391-14.273 14.274v0 482.454c0 7.884 6.391 14.274 14.273 14.274v0h368.74c7.884 0 14.274-6.39 14.274-14.274v0-383.014h-108.814z"></path>
<path d="M145.639 429c0.013 20.355 16.517 36.85 36.874 36.85 20.365 0 36.874-16.509 36.874-36.874s-16.509-36.874-36.874-36.874v0c-0.029 0-0.061 0-0.095 0-20.313 0-36.779 16.466-36.779 36.779 0 0.041 0 0.084 0 0.125v-0.007z"></path>
</svg>
