<!-- Generated by IcoMoon.io -->
<svg version="1.1" xmlns="http://www.w3.org/2000/svg" width="512" height="512" viewBox="0 0 512 512">
<title></title>
<g id="icomoon-ignore">
</g>
<path d="M368.346 0.001v91.971h87.594l-87.594-91.971z"></path>
<path d="M344.413 1h-274.080c-7.883 0-14.273 6.391-14.273 14.274v0 482.453c0 7.884 6.391 14.274 14.273 14.274v0h368.738c7.884 0 14.274-6.39 14.274-14.274v0-383.013h-108.933zM199.416 348.327l-28.238 28.238-94.207-94.207 94.207-94.112 28.238 28.262-65.993 65.85zM237.931 388.651l-20.459-5.591 56.5-207.231 20.459 5.591zM434.909 282.384l-94.207 94.207-28.238-28.262 65.993-65.969-65.921-65.921 28.167-28.191z"></path>
</svg>
