<!-- Generated by IcoMoon.io -->
<svg version="1.1" xmlns="http://www.w3.org/2000/svg" width="537" height="512" viewBox="0 0 537 512">
<title></title>
<g id="icomoon-ignore">
</g>
<path d="M536.869 290.286c0 6.857-4.285 13.715-8.857 18.858l-96.002 113.145c-16.572 19.429-50.286 34.858-75.43 34.858h-310.863c-10.285 0-24.858-3.143-24.858-16 0-6.857 4.285-13.715 8.857-18.858l96.002-113.145c16.572-19.429 50.286-34.858 75.43-34.858h310.864c10.285 0 24.857 3.143 24.857 16zM438.866 191.999v45.715h-237.72c-35.715 0-80.001 20.286-103.145 47.716l-97.716 114.859c0-2.286-0.285-4.857-0.285-7.143v-274.291c0-35.144 28.858-64.001 64.001-64.001h91.43c35.144 0 64.001 28.858 64.001 64.001v9.143h155.432c35.144 0 64.002 28.857 64.002 64.001z"></path>
</svg>
