<!-- Generated by IcoMoon.io -->
<svg version="1.1" xmlns="http://www.w3.org/2000/svg" width="512" height="512" viewBox="0 0 512 512">
<title></title>
<g id="icomoon-ignore">
</g>
<path fill="#000" d="M452.3 180.5c-0.2-3.3-0.6-6.5-1-9.7-0.2-1.6-0.4-3.2-0.7-4.8-0.7-4.8-1.6-9.5-2.7-14.2-0.4-1.6-0.7-3.1-1.1-4.7-0.8-3.1-1.7-6.2-2.6-9.2s-1.9-6-3-9c-1.1-3-2.2-5.9-3.5-8.8-1.2-2.9-2.5-5.7-3.9-8.5s-2.8-5.6-4.3-8.3c-2.2-4.1-4.6-8.1-7.1-12-1.7-2.6-3.4-5.2-5.2-7.7-0.9-1.3-1.8-2.5-2.7-3.7-2.8-3.7-5.7-7.3-8.7-10.8-2-2.3-4.1-4.6-6.2-6.8s-4.3-4.4-6.5-6.5c-43.5-41.6-103.9-60.4-163.2-51-2.6 0.4-5.2 0.9-7.8 1.4-1.9 0.4-3.7 0.8-5.6 1.2-5.2 1.2-10.3 2.6-15.3 4.2-2 0.6-4 1.3-5.9 2-1.1 0.4-2.2 0.8-3.2 1.2-2.4 0.9-4.8 1.8-7.1 2.8-2.2 0.9-4.4 1.9-6.6 2.9-4 1.9-7.9 3.9-11.8 6-1.7 1-3.4 1.9-5.1 3-1.8 1.1-3.6 2.2-5.4 3.3-2.6 1.7-5.1 3.5-7.7 5.3-2.2 1.6-4.4 3.2-6.6 4.9-2.7 2.1-5.4 4.3-8 6.6-1.2 1.1-2.5 2.2-3.7 3.3-1.6 1.5-3.2 3-4.8 4.5-1.1 1.1-2.2 2.2-3.3 3.3-1.6 1.7-3.2 3.3-4.8 5.1-2.1 2.3-4.1 4.6-6.1 7s-3.9 4.8-5.7 7.3c-1.5 2-2.9 4-4.3 6-0.7 1-1.4 2.1-2.1 3.1-2.2 3.4-4.3 6.8-6.4 10.3-1.3 2.2-2.5 4.5-3.7 6.8-1 1.9-1.9 3.7-2.8 5.6-1.4 2.8-2.6 5.7-3.9 8.5-1.2 2.9-2.4 5.8-3.5 8.8s-2.1 5.9-3 9c-0.9 3-1.8 6.1-2.6 9.2-0.4 1.5-0.8 3.1-1.1 4.7-1.1 4.7-2 9.4-2.7 14.2-0.2 1.6-0.5 3.2-0.7 4.8-0.4 3.2-0.7 6.5-1 9.7-0.4 4.9-0.6 9.8-0.6 14.8 0 3.9 0.1 7.8 0.3 11.6 0.2 3.9 0.6 7.7 1 11.5 0.7 5.7 1.6 11.3 2.8 16.8 0.8 3.7 1.7 7.3 2.7 10.9 0.7 2.4 1.3 4.7 2.1 7.1 1.8 5.8 3.9 11.4 6.2 16.9 0.6 1.5 1.3 2.9 1.9 4.4 1.2 2.6 2.4 5.2 3.6 7.7 1.5 2.9 3 5.8 4.7 8.6 1.8 3.1 3.6 6.2 5.6 9.2 0.6 0.9 1.2 1.8 1.8 2.7 1.4 2.1 2.8 4.2 4.2 6.2 4.2 5.8 8.7 11.3 13.5 16.5l133 183c1.4 1.9 3.3 3.4 5.5 4.1 2.1 0.8 4.4 0.9 6.6 0.4 2.7-0.6 5.2-2.2 6.8-4.5l133.2-183.4c7.2-7.9 13.7-16.4 19.5-25.3 1.9-3 3.8-6.1 5.6-9.2 1.6-2.8 3.2-5.7 4.7-8.6 1.3-2.5 2.5-5.1 3.6-7.7 0.7-1.5 1.3-2.9 1.9-4.4 2.3-5.5 4.4-11.2 6.2-16.9 2.4-7.7 4.4-15.6 5.8-23.5 0.7-3.7 1.2-7.5 1.7-11.2 0.5-3.8 0.8-7.6 1-11.5 0.2-3.8 0.3-7.7 0.3-11.6 0.1-5.1-0.1-10-0.5-14.9zM157.2 209.6v22.8c0 0 0 0 0 0 0 2-1.6 3.6-3.6 3.5-0.8 0-1.6-0.3-2.2-0.8l-57.1-44.1c-0.9-0.7-1.4-1.8-1.4-2.9s0.5-2.2 1.4-2.8l57.1-44.2c0.6-0.5 1.4-0.8 2.2-0.8 0 0 0 0 0 0 2 0 3.6 1.6 3.6 3.6v22.7h80.6v43h-80.6zM355.7 277.4h-1.6l-70.6 36.2v-36.2h-86v-47.3l11.4-8.8v44.7h74.6v-166l50.2-25.8h-124.7v80.9l-11.4-8.8v-83.4h158.1v214.5z"></path>
</svg>
