<!-- Generated by IcoMoon.io -->
<svg version="1.1" xmlns="http://www.w3.org/2000/svg" width="512" height="512" viewBox="0 0 512 512">
<title></title>
<g id="icomoon-ignore">
</g>
<path d="M431.705 80.019v0c-0.007 0-0.015 0-0.022 0-15.9 0-28.789 12.889-28.789 28.79v0 122.316h-21.609v-172.715c0-15.9-12.889-28.79-28.789-28.79v0 0c-15.904 0-28.8 12.887-28.813 28.788v172.807h-21.587v-201.595c0.007-0.241 0.011-0.524 0.011-0.808 0-15.912-12.899-28.813-28.813-28.813s-28.813 12.899-28.813 28.813c0 0.284 0.004 0.567 0.012 0.849l-0.001-0.041v201.595h-21.496v-165.602c-0.45-15.561-13.173-28.005-28.801-28.005s-28.351 12.444-28.8 27.964l-0.001 0.041v273.627l-61.792-53.457c-5.441-6.594-13.614-10.766-22.763-10.766-16.263 0-29.447 13.183-29.447 29.447 0 5.758 1.653 11.13 4.509 15.668l-0.072-0.122c1.004 2.305 2.14 4.285 3.463 6.121l-0.066-0.096 83.991 118.012c31.888 41.482 81.528 67.954 137.349 67.954 0.010 0 0.021 0 0.031 0h35.991c79.538 0 144.016-64.478 144.016-144.016v0-259.175c0 0 0 0 0 0 0-15.9-12.889-28.79-28.789-28.79-0.039 0-0.080 0-0.12 0h0.007z"></path>
</svg>
