<!-- Generated by IcoMoon.io -->
<svg version="1.1" xmlns="http://www.w3.org/2000/svg" width="658" height="512" viewBox="0 0 658 512">
<title></title>
<g id="icomoon-ignore">
</g>
<path d="M468.82 271.602c-18.781-24.644-38.197-50.118-60.13-73.020l-4.177-4.398-39.193 43.84c-13.003 14.702-31.913 23.925-52.976 23.925-0.045 0-0.091 0-0.136 0h-0.906c-21.546-0.235-40.758-10.030-53.625-25.338l-0.089-0.108c-9.096-10.841-14.623-24.945-14.623-40.339 0-15.651 5.712-29.968 15.163-40.98l-0.070 0.084 54.351-63.257-6.307-3.347c-15.212-7.855-32.112-7.302-48.459-6.776-3.956 0-7.717 0.249-11.423 0.249-18.954 0.128-36.072 7.886-48.455 20.353l-0.004 0.004-42.623 42.678h-46.827v164.047h5.532c1.659 0 3.319 0 4.951 0 9.902-0.166 17.702-0.304 24.534 6.334l83.448 82.037c22.487 21.74 45.25 32.776 67.682 32.776 0.339 0.007 0.736 0.012 1.137 0.012 13.504 0 25.9-4.741 35.615-12.649l-0.103 0.082c3.502 0.938 7.522 1.477 11.669 1.477 7.863 0 15.272-1.938 21.778-5.362l-0.257 0.123c9.619-4.901 17.089-12.862 21.241-22.581l0.111-0.293h0.193c0.111 0 0.241 0.002 0.373 0.002 13.518 0 25.791-5.334 34.827-14.013l-0.017 0.016c6.737-6.207 11.897-14.026 14.877-22.846l0.113-0.387c2.099 0.353 4.519 0.555 6.983 0.555 0.122 0 0.243-0 0.365-0.002h-0.019c17.978 0 33.191-9.017 40.493-24.147 2.697-5.486 4.275-11.94 4.275-18.763 0-10.543-3.767-20.207-10.029-27.719l0.056 0.070z"></path>
<path d="M521.788 154.161l-42.401-48.653c-12.752-14.243-31.172-23.186-51.681-23.261h-47.034c-18.048 0.091-34.212 8.088-45.217 20.701l-58.81 68.39c-5.714 6.63-9.194 15.326-9.194 24.834 0 9.358 3.37 17.93 8.964 24.566l-0.047-0.058c8.644 10.148 21.433 16.542 35.715 16.542 13.831 0 26.262-5.996 34.833-15.531l0.038-0.042 54.267-61.072c2.237-2.547 5.5-4.145 9.137-4.145 2.351 0 4.545 0.667 6.404 1.823l-0.051-0.030c3.71 2.062 6.178 5.958 6.178 10.43 0 1.386-0.237 2.716-0.673 3.953l0.026-0.083-0.969 2.987 2.074 2.406c4.757 5.532 9.764 11.064 14.604 16.401 5.974 6.638 12.17 13.498 17.896 20.274 8.768 10.898 17.481 22.321 25.916 33.385 5.007 6.528 10.151 13.305 15.268 19.86 8.146 10.074 13.752 22.517 15.665 36.145l0.045 0.393 0.581 4.978h37.589v-155.195z"></path>
<path d="M73.019 112.174h-55.041c-9.923 0.016-17.962 8.055-17.978 17.977v188.748c0.032 9.916 8.062 17.947 17.976 17.978h55.045c9.93 0 17.978-8.050 17.978-17.978v0-188.746c0-9.93-8.049-17.978-17.978-17.978v0zM45.636 315.11c-10.693 0-19.361-8.668-19.361-19.361s8.669-19.361 19.361-19.361c10.693 0 19.361 8.668 19.361 19.361v0c0 10.693-8.669 19.361-19.361 19.361v0z"></path>
<path d="M640.308 112.174h-55.042c-9.923 0.016-17.962 8.055-17.978 17.977v188.748c0.032 9.916 8.062 17.947 17.976 17.978h55.045c9.929 0 17.978-8.050 17.978-17.978v0-188.746c0-9.93-8.049-17.978-17.978-17.978v0zM612.787 315.11c-10.693 0-19.361-8.668-19.361-19.361s8.668-19.361 19.361-19.361c10.693 0 19.361 8.668 19.361 19.361v0c0 10.693-8.668 19.361-19.361 19.361v0z"></path>
</svg>
