<!-- Generated by IcoMoon.io -->
<svg version="1.1" xmlns="http://www.w3.org/2000/svg" width="512" height="512" viewBox="0 0 512 512">
<title></title>
<g id="icomoon-ignore">
</g>
<path d="M375.543 36.715c-50.005 0-96.897 39.359-119.477 61.627-22.558-22.224-69.384-61.783-119.388-61.805-85.43 0-136.612 49.871-136.679 133.589 0 68.583 62.761 126.056 65.050 128.056l178.149 172.149c3.236 3.173 7.673 5.131 12.568 5.131s9.331-1.958 12.571-5.134l-0.003 0.003 178.126-171.281c2.578-2.555 65.472-60.005 65.539-128.5 0.067-83.719-51.048-133.767-136.456-133.834zM402.635 270.069l-147.146 141.59-147.168-141.99c-0.489-0.511-47.359-43.649-47.315-90.030 0-71.118 48.227-86.141 88.786-86.118 37.781 0 80.319 40.87 93.497 56.605 3.071 3.397 7.494 5.521 12.412 5.521s9.341-2.125 12.399-5.506l0.013-0.014c13.201-15.713 55.827-56.493 93.586-56.45 40.559 0 88.719 15.023 88.652 86.252-0.022 46.404-46.959 89.475-47.716 90.23z"></path>
</svg>
