<!-- Generated by IcoMoon.io -->
<svg version="1.1" xmlns="http://www.w3.org/2000/svg" width="512" height="512" viewBox="0 0 512 512">
<title></title>
<g id="icomoon-ignore">
</g>
<path d="M438.916 287.002v152.43c0 11.115-9.209 20.324-20.324 20.324h-121.944v-121.944h-81.296v121.944h-121.944c-11.115 0-20.323-9.209-20.323-20.324v-152.43c0-0.635 0.317-1.271 0.317-1.906l182.598-150.524 182.598 150.524c0.317 0.635 0.317 1.271 0.317 1.906zM509.733 265.090l-19.689 23.5c-1.587 1.906-4.128 3.175-6.669 3.493h-0.952c-2.541 0-4.763-0.635-6.669-2.223l-219.754-183.233-219.754 183.233c-2.223 1.587-4.763 2.541-7.622 2.223-2.541-0.317-5.081-1.587-6.669-3.493l-19.689-23.5c-3.494-4.128-2.858-10.798 1.271-14.29l228.327-190.22c13.338-11.114 34.932-11.114 48.269 0l77.486 64.782v-61.925c0-5.716 4.446-10.162 10.162-10.162h60.972c5.716 0 10.162 4.446 10.162 10.162v129.565l69.546 57.797c4.128 3.494 4.763 10.162 1.271 14.29z"></path>
</svg>
