<!-- Generated by IcoMoon.io -->
<svg version="1.1" xmlns="http://www.w3.org/2000/svg" width="512" height="512" viewBox="0 0 512 512">
<title></title>
<g id="icomoon-ignore">
</g>
<path d="M0.001 6.933v498.135h512v-498.135zM97.258 46.891c33.755 0 61.119 27.364 61.119 61.119s-27.364 61.119-61.119 61.119c-33.755 0-61.119-27.364-61.119-61.119v0c0-0.007 0-0.015 0-0.023 0-33.743 27.353-61.096 61.096-61.096 0.008 0 0.016 0 0.024 0h-0.001zM478.656 481.202h-445.312c-6.372-0.007-11.535-5.173-11.535-11.546 0-2.116 0.569-4.099 1.564-5.805l-0.029 0.055 86.053-149.127c2.021-3.479 5.731-5.782 9.978-5.782s7.957 2.303 9.948 5.726l0.030 0.055 69.802 120.897 126.579-219.224c2.027-3.478 5.74-5.779 9.99-5.779s7.962 2.3 9.96 5.724l0.029 0.054 142.945 247.522c0.94 1.635 1.495 3.594 1.495 5.683 0 6.359-5.14 11.517-11.493 11.546h-0.002z"></path>
</svg>
