<!-- Generated by IcoMoon.io -->
<svg version="1.1" xmlns="http://www.w3.org/2000/svg" width="576" height="512" viewBox="0 0 576 512">
<title></title>
<g id="icomoon-ignore">
</g>
<path d="M544.002 63.998h-512.005c-17.6 0-32.001 14.4-32.001 32v320.002c0 17.6 14.4 32 32.001 32h512.005c17.6 0 32-14.4 32-32v-320.002c0-17.6-14.4-32.001-32-32.001zM320 127.999h64v64.001h-64v-64.001zM416.001 224v64h-64v-64h64zM224 127.999h64v64.001h-64v-64.001zM320 224v64h-64v-64h64zM127.999 127.999h64.001v64.001h-64.001v-64.001zM224 224v64h-64v-64h64zM63.998 127.999h32.001v64.001h-32.001v-64.001zM63.998 224h64.001v64h-64.001v-64zM95.999 384.001h-32.001v-64h32.001v64zM384.001 384.001h-256.002v-64h256.002v64zM512.002 384.001h-96.001v-64h96.001v64zM512.002 288h-64v-64h64v64zM512.002 192h-96.001v-64.001h96.001v64.001z"></path>
</svg>
