<!-- Generated by IcoMoon.io -->
<svg version="1.1" xmlns="http://www.w3.org/2000/svg" width="512" height="512" viewBox="0 0 512 512">
<title></title>
<g id="icomoon-ignore">
</g>
<path d="M95.856 142.66c0 26.47-21.459 47.929-47.928 47.929s-47.928-21.459-47.928-47.928c0-26.47 21.459-47.928 47.928-47.928s47.928 21.459 47.928 47.928z"></path>
<path d="M165.72 104.709h319.211c14.95 0 27.070 12.12 27.070 27.070v21.91c0 14.951-12.12 27.070-27.070 27.070h-319.211c-14.951 0-27.070-12.119-27.070-27.070v-21.91c0-14.951 12.119-27.070 27.070-27.070z"></path>
<path d="M95.856 256.074c0 26.47-21.459 47.928-47.928 47.928s-47.928-21.459-47.928-47.928c0-26.47 21.459-47.928 47.928-47.928s47.928 21.459 47.928 47.928z"></path>
<path d="M165.72 218.122h319.211c14.95 0 27.070 12.119 27.070 27.070v21.91c0 14.95-12.12 27.070-27.070 27.070h-319.211c-14.951 0-27.070-12.12-27.070-27.070v-21.91c0-14.951 12.119-27.070 27.070-27.070z"></path>
<path d="M95.856 369.34c0 26.47-21.459 47.928-47.928 47.928s-47.928-21.459-47.928-47.928c0-26.47 21.459-47.928 47.928-47.928s47.928 21.459 47.928 47.928z"></path>
<path d="M165.72 331.389h319.211c14.95 0 27.070 12.12 27.070 27.070v21.91c0 14.95-12.12 27.070-27.070 27.070h-319.211c-14.951 0-27.070-12.12-27.070-27.070v-21.91c0-14.95 12.119-27.070 27.070-27.070z"></path>
</svg>
