<!-- Generated by IcoMoon.io -->
<svg version="1.1" xmlns="http://www.w3.org/2000/svg" width="512" height="512" viewBox="0 0 512 512">
<title></title>
<g id="icomoon-ignore">
</g>
<path d="M245.707 219.802h-143.28v157.309c33.584-16.506 71.456-35.167 79.297-39.201 30.054-15.428 71.639-35.877 110.038-48.967 7.313-2.476 38.72-12.15 56.945-15.406 7.13-1.26 10.087-2.452 9.995-3.783-0.252-3.783-7.358-4.035-19.418-3.462-36.68 1.742-107.287 29.803-127.576 40.531l-22.924-71.067h146.328c6.648-18.363-86.541-15.772-89.406-15.956z"></path>
<path d="M369.752 273.95c1.834-1.995 9.995-16.964 10.889-24.599 1.26-10.844-8.024-12.448-20.839-12.448h-20.403c-1.055 0-1.949 0.71-3.209 2.292-1.252 1.702-2.918 3.029-4.853 3.846l-0.076 0.029c-4.585 2.292-16.346 3.462-21.87 3.943s-6.762 0.986-6.877 3.049 0.803 2.843 8.413 2.843c17.538 0 49.082-6.602 58.572-3.577 5.043 1.605 0.986 10.545-3.118 22.306-1.467 4.631 1.558 4.31 3.37 2.315z"></path>
<path d="M409.619 148.162c0-81.818-68.774-148.162-153.596-148.162s-153.596 66.344-153.596 148.162c0 2.292 0 4.585 0.183 6.877-0.101 0.535-0.168 1.16-0.183 1.796l-0.001 0.014v9.766h1.146c32.989 6.877 195.112 40.072 198.689 40.691 46.056 8.138 44.635 17.033 44.635 17.033 32.278-0.184 36.267 1.146 41.906 5.846 16.987 14.167-10.637 55.959-10.637 55.959-3.187 2.293-202.724 79.64-275.784 107.906v104.834c0 0 0 0 0 0 0 6.019 4.873 10.899 10.888 10.912h17.423c6.026 0 10.912-4.885 10.912-10.912v0-50.067h228.743v52.269c0 6.026 4.885 10.912 10.912 10.912v0h17.423c6.017-0.013 10.889-4.894 10.889-10.912 0 0 0 0 0 0v0-344.215c-0.016-0.651-0.082-1.276-0.195-1.884l0.011 0.073c0.161-2.292 0.229-4.585 0.229-6.9z"></path>
</svg>
