<!-- Generated by IcoMoon.io -->
<svg version="1.1" xmlns="http://www.w3.org/2000/svg" width="512" height="512" viewBox="0 0 512 512">
<title></title>
<g id="icomoon-ignore">
</g>
<path d="M449.018 178.47c-0.24-3.269-0.589-6.539-0.981-9.743-0.217-1.613-0.436-3.226-0.675-4.817q-1.111-7.193-2.724-14.233c-0.37-1.548-0.741-3.095-1.134-4.643-0.807-3.095-1.678-6.147-2.615-9.177s-1.962-6.016-3.029-8.98-2.18-5.885-3.466-8.719-2.529-5.754-3.88-8.566-2.79-5.602-4.36-8.348c-2.18-4.098-4.599-8.13-7.127-12.032-1.678-2.615-3.401-5.188-5.209-7.716-0.894-1.264-1.809-2.528-2.724-3.77q-4.185-5.579-8.719-10.898-3.051-3.531-6.256-6.888c-2.18-2.18-4.36-4.359-6.539-6.539-5.392-5.143-11.161-10.049-17.202-14.614l-0.497-0.359c-9.235-6.977-19.674-13.419-30.702-18.848l-1.142-0.508c-24.42-12.034-53.159-19.072-83.543-19.072-0.132 0-0.263 0-0.394 0.001h0.021c-0.015 0-0.032 0-0.050 0-10.655 0-21.109 0.856-31.299 2.503l1.118-0.149c-2.637 0.414-5.231 0.894-7.825 1.395-1.875 0.37-3.749 0.763-5.601 1.199q-7.781 1.787-15.257 4.229c-2.006 0.633-3.989 1.308-5.951 2.005l-3.248 1.198c-2.398 0.894-4.751 1.831-7.106 2.812s-4.359 1.94-6.539 2.942q-6.016 2.811-11.77 6.015c-1.744 0.959-3.444 1.94-5.143 2.965s-3.662 2.18-5.449 3.334q-3.923 2.528-7.716 5.231c-2.18 1.569-4.359 3.226-6.539 4.904-2.746 2.18-5.405 4.359-8.021 6.539-1.264 1.090-2.484 2.18-3.706 3.291-1.635 1.504-3.226 3.008-4.817 4.556l-3.487 3.291c-1.635 1.678-3.226 3.356-4.796 5.078-2.18 2.289-4.12 4.642-6.082 7.019s-3.879 4.817-5.754 7.302c-1.46 1.984-2.898 3.989-4.359 6.016-0.719 1.025-1.417 2.070-2.18 3.117q-3.356 5.035-6.408 10.31c-1.264 2.18-2.507 4.512-3.706 6.8-0.959 1.853-1.918 3.728-2.834 5.623-1.351 2.811-2.659 5.667-3.88 8.566s-2.376 5.82-3.466 8.719-2.18 5.951-3.029 8.98-1.809 6.082-2.615 9.177c-0.392 1.548-0.763 3.095-1.133 4.643q-1.591 7.018-2.725 14.233c-0.24 1.591-0.458 3.204-0.675 4.817-0.392 3.226-0.741 6.539-0.981 9.743-0.37 4.926-0.566 9.874-0.566 14.887 0 3.923 0.13 7.803 0.349 11.661s0.589 7.694 1.025 11.487c0.697 5.689 1.613 11.313 2.79 16.827 0.784 3.684 1.656 7.345 2.637 10.899 0.653 2.376 1.373 4.73 2.18 7.084 1.809 5.776 3.901 11.444 6.234 16.98 0.632 1.482 1.286 2.942 1.94 4.36 1.177 2.594 2.376 5.166 3.662 7.694v0q2.18 4.36 4.642 8.719v0q2.681 4.687 5.579 9.176c0.588 0.915 1.221 1.765 1.831 2.659 1.373 2.070 2.768 4.163 4.228 6.19 4.513 6.174 8.938 11.572 13.631 16.72l-0.139-0.154 56.3 77.334 77.226 106.237c0.837 1.178 1.865 2.159 3.052 2.916l0.044 0.026c0.703 0.479 1.51 0.892 2.367 1.197l0.075 0.024c0.757 0.279 1.642 0.493 2.558 0.604l0.058 0.005c0.381 0.041 0.821 0.065 1.268 0.065 0.964 0 1.903-0.111 2.803-0.322l-0.083 0.017c2.822-0.671 5.188-2.293 6.799-4.5l0.023-0.033 133.286-183.483c6.949-7.579 13.406-15.879 19.165-24.678l0.452-0.736q2.899-4.512 5.579-9.176v0q2.42-4.36 4.642-8.719v0c1.286-2.529 2.485-5.101 3.662-7.694 0.654-1.482 1.308-2.942 1.94-4.36 2.332-5.536 4.36-11.203 6.234-16.98 2.115-6.351 4.139-14.28 5.656-22.388l0.186-1.196c0.675-3.727 1.243-7.476 1.7-11.269s0.784-7.629 1.024-11.487 0.349-7.738 0.349-11.661c0-4.992-0.197-9.939-0.458-14.865zM256.118 278.363c-54.026 0-97.823-43.797-97.823-97.823s43.797-97.823 97.823-97.823c54.026 0 97.823 43.797 97.823 97.823 0 0.007 0 0.016 0 0.023v-0.001c-0.012 54.017-43.805 97.802-97.823 97.802v0z"></path>
</svg>
