<!-- Generated by IcoMoon.io -->
<svg version="1.1" xmlns="http://www.w3.org/2000/svg" width="512" height="512" viewBox="0 0 512 512">
<title></title>
<g id="icomoon-ignore">
</g>
<path d="M11.806 30.543v338.255c0.053 3.021 1.382 5.721 3.468 7.592l0.009 0.009 144.423 135.601v-373.151l-123.462-115.907c-8.499-7.992-24.439-3.041-24.439 7.602z"></path>
<path d="M496.671 135.601l-144.446-135.601v187.105q41.254 1.106 67.605 12.346c19.332 8.139 35.557 20.328 48.206 35.589l0.166 0.207c12.433 15.245 21.955 33.4 27.401 53.242l0.24 1.026c1.728 6.173 3.156 12.485 4.353 18.888v-165.2c-0.065-3.028-1.41-5.727-3.514-7.591l-0.011-0.010z"></path>
<path d="M465.829 479.798l9.858 9.214c8.5 7.993 24.439 3.017 24.439-7.601v-71.912c-1.932 11.223-4.892 21.216-8.865 30.679l0.342-0.92c-6.632 15.603-15.305 29.010-25.88 40.658l0.106-0.118z"></path>
<path d="M332.692 0.001l-147.878 138.849v48.118h147.878v-186.966z"></path>
<path d="M484.255 354.055c0.002-0.351 0.003-0.765 0.003-1.18 0-20.224-2.878-39.776-8.248-58.269l0.366 1.474c-5.254-18.516-13.974-34.575-25.493-48.191l0.155 0.188c-11.815-13.736-26.665-24.524-43.534-31.375l-0.76-0.273c-16.492-6.795-37.845-10.411-63.873-10.918-2.142 0-4.238 0-6.45 0h-147.256v299.442h147.21c21.146-0.358 41.439-3.345 60.774-8.647l-1.716 0.401c17.31-4.568 32.304-12.803 44.725-23.865l-0.108 0.094c2.764-2.303 5.39-4.906 7.924-7.532 10.029-10.413 18.295-22.611 24.261-36.057l0.316-0.798q11.678-26.512 11.701-74.491zM377.286 407.863q-7.417 16.124-20.57 22.481t-44.179 6.473h-24.278v-163.542h24.716c3.087 0 6.058 0 8.937 0.253 7.609 0.387 14.764 1.532 21.639 3.366l-0.724-0.164c9.974 2.4 18.563 7.339 25.339 14.098l-0.001-0.001q16.63 17.598 16.63 65.14 0 32.432-6.081 48.648c-0.484 1.082-0.945 2.257-1.428 3.248z"></path>
</svg>
