<!-- Generated by IcoMoon.io -->
<svg version="1.1" xmlns="http://www.w3.org/2000/svg" width="512" height="512" viewBox="0 0 512 512">
<title></title>
<g id="icomoon-ignore">
</g>
<path d="M448.932 178.47c-0.24-3.269-0.589-6.539-0.981-9.743-0.217-1.613-0.436-3.226-0.675-4.817q-1.111-7.193-2.724-14.233c-0.37-1.548-0.741-3.095-1.134-4.643-0.807-3.095-1.678-6.147-2.615-9.177s-1.962-6.016-3.029-8.98-2.18-5.885-3.466-8.719-2.529-5.754-3.88-8.566-2.79-5.602-4.36-8.348c-2.18-4.098-4.599-8.13-7.127-12.032-1.678-2.615-3.401-5.188-5.209-7.716-0.894-1.264-1.809-2.528-2.724-3.77q-4.185-5.579-8.719-10.898-3.051-3.531-6.256-6.888c-2.18-2.18-4.36-4.359-6.539-6.539-5.392-5.143-11.161-10.049-17.202-14.614l-0.497-0.359c-9.235-6.977-19.674-13.419-30.702-18.848l-1.142-0.508c-24.42-12.034-53.159-19.072-83.543-19.072-0.132 0-0.263 0-0.394 0.001h0.021c-0.015 0-0.032 0-0.050 0-10.655 0-21.109 0.856-31.299 2.503l1.118-0.149c-2.637 0.414-5.231 0.894-7.825 1.395-1.875 0.37-3.749 0.763-5.601 1.199q-7.781 1.787-15.257 4.229c-2.006 0.633-3.989 1.308-5.951 2.005l-3.248 1.198c-2.398 0.894-4.751 1.831-7.106 2.812s-4.359 1.94-6.539 2.942q-6.016 2.811-11.77 6.015c-1.744 0.959-3.444 1.94-5.143 2.965s-3.662 2.18-5.449 3.334q-3.923 2.528-7.716 5.231c-2.18 1.569-4.359 3.226-6.539 4.904-2.746 2.18-5.405 4.359-8.021 6.539-1.264 1.090-2.484 2.18-3.706 3.291-1.635 1.504-3.226 3.008-4.817 4.556l-3.487 3.291c-1.635 1.678-3.226 3.356-4.796 5.078-2.18 2.289-4.12 4.642-6.082 7.019s-3.879 4.817-5.754 7.302c-1.46 1.984-2.898 3.989-4.359 6.016-0.719 1.025-1.417 2.070-2.18 3.117s-1.678 2.572-2.484 3.858c60.877 12.489 214.107 43.942 217.965 44.617 54.644 9.655 52.943 20.184 52.943 20.184 38.252-0.218 43.005 1.351 49.674 6.931 20.14 16.805-12.599 66.349-12.599 66.349-3.204 2.376-172.192 68.027-276.99 108.59l46.361 63.602 77.225 106.236c0.837 1.178 1.865 2.159 3.052 2.916l0.044 0.026c0.703 0.479 1.51 0.892 2.367 1.197l0.075 0.024c0.757 0.279 1.642 0.493 2.558 0.604l0.058 0.005c0.381 0.041 0.821 0.065 1.268 0.065 0.965 0 1.903-0.111 2.804-0.322l-0.083 0.017c2.822-0.671 5.188-2.293 6.799-4.5l0.023-0.033 133.286-183.483c6.949-7.579 13.406-15.879 19.164-24.678l0.452-0.736q2.899-4.512 5.579-9.176v0q2.42-4.36 4.642-8.719v0c1.286-2.529 2.485-5.101 3.662-7.694 0.654-1.482 1.308-2.942 1.94-4.36 2.332-5.536 4.36-11.203 6.234-16.979 2.115-6.351 4.139-14.28 5.656-22.388l0.186-1.196c0.675-3.706 1.243-7.476 1.7-11.269s0.784-7.629 1.024-11.487 0.349-7.738 0.349-11.661c0-4.992-0.197-9.939-0.458-14.865z"></path>
<path d="M390.082 214.238c2.18-2.354 11.836-20.118 12.904-29.142 1.482-12.86-9.503-14.778-24.717-14.778h-24.172c-1.264 0-2.31 0.85-3.815 2.811-1.479 2.030-3.455 3.613-5.752 4.587l-0.089 0.034c-5.34 2.637-19.377 4.098-25.916 4.665s-8.043 1.155-8.13 3.596 0.937 3.488 9.939 3.488c20.793 0 58.197-7.846 69.444-4.25 5.973 1.918 1.177 12.511-3.683 26.461-1.853 5.275 1.809 4.904 3.989 2.529z"></path>
<path d="M242.955 150.069h-175.462c-1.046 4.555-1.94 9.155-2.659 13.841-0.24 1.591-0.458 3.204-0.675 4.817-0.392 3.226-0.741 6.539-0.981 9.743-0.37 4.926-0.566 9.874-0.566 14.887 0 3.923 0.13 7.804 0.349 11.661s0.589 7.694 1.025 11.487c0.697 5.689 1.613 11.313 2.79 16.827 0.784 3.684 1.656 7.345 2.637 10.899 0.653 2.376 1.373 4.73 2.18 7.084 1.809 5.776 3.901 11.444 6.234 16.979 0.632 1.482 1.286 2.942 1.94 4.36 1.177 2.594 2.376 5.166 3.662 7.694v0q2.18 4.36 4.642 8.719v0q2.681 4.687 5.579 9.176c0.588 0.915 1.221 1.765 1.831 2.659 1.373 2.070 2.768 4.163 4.228 6.19 2.942 4.054 6.103 7.955 9.351 11.77 27.528-13.558 51.57-25.458 58.087-28.793 35.638-18.309 85.006-42.547 130.496-58.066 8.719-2.942 45.904-14.407 67.569-18.266 8.413-1.504 11.945-2.899 11.836-4.49-0.284-4.49-8.719-4.774-23.017-4.098-43.593 2.18-127.204 35.332-151.268 47.952l-27.159-84.047h173.5c7.781-21.84-102.683-18.789-106.149-18.984z"></path>
</svg>
