<!-- Generated by IcoMoon.io -->
<svg version="1.1" xmlns="http://www.w3.org/2000/svg" width="512" height="512" viewBox="0 0 512 512">
<title></title>
<g id="icomoon-ignore">
</g>
<path d="M378.76 301.562v-284.188c0-9.583-8.799-17.374-19.658-17.374h-206.407c-10.837 0-19.636 7.792-19.636 17.374v284.188h0.336l17.911 194.474c0.828 8.955 9.358 15.964 19.591 15.964h170.159c10.232 0 18.74-6.94 19.591-15.919l18.293-194.519zM166.062 314.995c-0.088 0.004-0.19 0.007-0.294 0.007-3.633 0-6.593-2.885-6.713-6.488l-0-0.011v-21.919c0.12-3.615 3.080-6.499 6.714-6.499 0.103 0 0.207 0.002 0.31 0.007l-0.014-0h31.345c0.081-0.003 0.177-0.005 0.273-0.005 3.633 0 6.592 2.884 6.713 6.487l0 0.011v21.919c-0.121 3.615-3.081 6.498-6.714 6.498-0.095 0-0.191-0.002-0.286-0.005l0.013 0zM219.796 487.147c-0.133 3.604-3.088 6.476-6.713 6.476-0.096 0-0.192-0.002-0.286-0.005l0.013 0h-33.248c-0.082 0.003-0.177 0.005-0.273 0.005-3.625 0-6.579-2.872-6.713-6.464l-0-0.012v-15.673c0.133-3.604 3.088-6.476 6.713-6.476 0.096 0 0.192 0.002 0.286 0.005l-0.013-0h33.293c0.082-0.003 0.177-0.005 0.273-0.005 3.625 0 6.579 2.872 6.713 6.464l0 0.012zM219.796 443.779c-0.121 3.615-3.081 6.498-6.714 6.498-0.095 0-0.191-0.002-0.286-0.005l0.013 0h-33.248c-0.081 0.003-0.177 0.005-0.273 0.005-3.633 0-6.592-2.884-6.713-6.487l-0-0.011v-15.673c0.121-3.615 3.081-6.498 6.714-6.498 0.095 0 0.191 0.002 0.286 0.005l-0.013-0h33.293c0.081-0.003 0.177-0.005 0.273-0.005 3.633 0 6.592 2.884 6.713 6.487l0 0.011zM219.796 400.433c-0.133 3.604-3.088 6.476-6.713 6.476-0.096 0-0.192-0.002-0.286-0.005l0.013 0h-33.248c-0.081 0.003-0.177 0.005-0.273 0.005-3.633 0-6.592-2.884-6.713-6.487l-0-0.011v-15.673c0.133-3.604 3.088-6.476 6.713-6.476 0.096 0 0.192 0.002 0.286 0.005l-0.013-0h33.293c0.082-0.003 0.177-0.005 0.273-0.005 3.625 0 6.579 2.872 6.713 6.464l0 0.012zM219.796 357.087c-0.133 3.604-3.088 6.476-6.713 6.476-0.096 0-0.192-0.002-0.286-0.005l0.013 0h-33.248c-0.082 0.003-0.177 0.005-0.273 0.005-3.625 0-6.579-2.872-6.713-6.464l-0-0.012v-15.673c0.133-3.604 3.088-6.476 6.713-6.476 0.096 0 0.192 0.002 0.286 0.005l-0.013-0h33.293c0.082-0.003 0.177-0.005 0.273-0.005 3.625 0 6.579 2.872 6.713 6.464l0 0.012zM280.002 487.147c-0.132 3.605-3.087 6.477-6.712 6.477-0.104 0-0.207-0.002-0.31-0.007l0.014 0h-33.226c-0.082 0.003-0.177 0.005-0.273 0.005-3.625 0-6.579-2.872-6.713-6.464l-0-0.012v-15.673c0.133-3.604 3.088-6.476 6.713-6.476 0.096 0 0.192 0.002 0.286 0.005l-0.013-0h33.27c0.089-0.004 0.192-0.007 0.295-0.007 3.625 0 6.579 2.872 6.712 6.465l0 0.012zM280.002 443.779c-0.12 3.615-3.080 6.499-6.714 6.499-0.103 0-0.207-0.002-0.31-0.007l0.014 0h-33.226c-0.081 0.003-0.177 0.005-0.273 0.005-3.633 0-6.592-2.884-6.713-6.487l-0-0.011v-15.673c0.121-3.615 3.081-6.498 6.714-6.498 0.095 0 0.191 0.002 0.286 0.005l-0.013-0h33.27c0.088-0.004 0.19-0.007 0.295-0.007 3.634 0 6.592 2.885 6.713 6.488l0 0.011zM280.002 400.433c-0.132 3.605-3.087 6.477-6.712 6.477-0.104 0-0.207-0.002-0.31-0.007l0.014 0h-33.226c-0.082 0.003-0.177 0.005-0.273 0.005-3.625 0-6.579-2.872-6.713-6.464l-0-0.012v-15.673c0.133-3.604 3.088-6.476 6.713-6.476 0.096 0 0.192 0.002 0.286 0.005l-0.013-0h33.27c0.089-0.004 0.192-0.007 0.295-0.007 3.625 0 6.579 2.872 6.712 6.465l0 0.012zM280.002 357.087c-0.132 3.605-3.087 6.477-6.712 6.477-0.104 0-0.207-0.002-0.31-0.007l0.014 0h-33.226c-0.082 0.003-0.177 0.005-0.273 0.005-3.625 0-6.579-2.872-6.713-6.464l-0-0.012v-15.673c0.133-3.604 3.088-6.476 6.713-6.476 0.096 0 0.192 0.002 0.286 0.005l-0.013-0h33.27c0.089-0.004 0.192-0.007 0.295-0.007 3.625 0 6.579 2.872 6.712 6.465l0 0.012zM220.065 314.995c-0.081 0.003-0.177 0.005-0.273 0.005-3.633 0-6.592-2.884-6.713-6.487l-0-0.011v-21.919c0.121-3.615 3.081-6.498 6.714-6.498 0.095 0 0.191 0.002 0.286 0.005l-0.013-0h70.751c0.088-0.004 0.19-0.007 0.295-0.007 3.634 0 6.592 2.885 6.713 6.488l0 0.011v21.919c-0.12 3.615-3.080 6.499-6.714 6.499-0.103 0-0.207-0.002-0.31-0.007l0.014 0zM340.207 487.147c-0.132 3.605-3.087 6.477-6.712 6.477-0.104 0-0.207-0.002-0.31-0.007l0.014 0h-33.226c-0.089 0.004-0.192 0.007-0.295 0.007-3.625 0-6.579-2.872-6.712-6.465l-0-0.012v-15.673c0.132-3.605 3.087-6.477 6.712-6.477 0.104 0 0.207 0.002 0.31 0.007l-0.014-0h33.248c0.089-0.004 0.192-0.007 0.295-0.007 3.625 0 6.579 2.872 6.712 6.465l0 0.012zM340.207 443.779c-0.12 3.615-3.080 6.499-6.714 6.499-0.103 0-0.207-0.002-0.31-0.007l0.014 0h-33.226c-0.088 0.004-0.19 0.007-0.295 0.007-3.634 0-6.592-2.885-6.713-6.488l-0-0.011v-15.673c0.12-3.615 3.080-6.499 6.714-6.499 0.103 0 0.207 0.002 0.31 0.007l-0.014-0h33.248c0.088-0.004 0.19-0.007 0.295-0.007 3.634 0 6.592 2.885 6.713 6.488l0 0.011zM340.207 400.433c-0.132 3.605-3.087 6.477-6.712 6.477-0.104 0-0.207-0.002-0.31-0.007l0.014 0h-33.226c-0.101 0.005-0.22 0.009-0.339 0.009-3.634 0-6.594-2.885-6.713-6.491l-0-0.011v-15.673c0.132-3.605 3.087-6.477 6.712-6.477 0.104 0 0.207 0.002 0.31 0.007l-0.014-0h33.293c0.089-0.004 0.192-0.007 0.295-0.007 3.625 0 6.579 2.872 6.712 6.465l0 0.012zM340.207 357.087c-0.132 3.605-3.087 6.477-6.712 6.477-0.104 0-0.207-0.002-0.31-0.007l0.014 0h-33.226c-0.089 0.004-0.192 0.007-0.295 0.007-3.625 0-6.579-2.872-6.712-6.465l-0-0.012v-15.673c0.132-3.605 3.087-6.477 6.712-6.477 0.104 0 0.207 0.002 0.31 0.007l-0.014-0h33.248c0.089-0.004 0.192-0.007 0.295-0.007 3.625 0 6.579 2.872 6.712 6.465l0 0.012zM351.871 308.502c-0.12 3.615-3.080 6.499-6.714 6.499-0.103 0-0.207-0.002-0.31-0.007l0.014 0h-31.345c-0.081 0.003-0.176 0.005-0.272 0.005-3.633 0-6.592-2.884-6.713-6.487l-0-0.011v-21.919c0.121-3.615 3.080-6.498 6.714-6.498 0.096 0 0.192 0.002 0.286 0.005l-0.014-0h31.345c0.088-0.004 0.19-0.007 0.295-0.007 3.634 0 6.592 2.885 6.713 6.488l0 0.011zM354.647 259.246c0 1.236-1.002 2.239-2.239 2.239v0h-192.817c-1.237 0-2.239-1.002-2.239-2.239v0-226.804c0-1.236 1.002-2.239 2.239-2.239v0h192.773c1.236 0 2.239 1.003 2.239 2.239v0z"></path>
</svg>
