<!-- Generated by IcoMoon.io -->
<svg version="1.1" xmlns="http://www.w3.org/2000/svg" width="402" height="512" viewBox="0 0 402 512">
<title></title>
<g id="icomoon-ignore">
</g>
<path d="M75.055 288.905l-29.41 29.411c-7.862-19.219-12.23-40.185-12.23-62.316v-37.273c0-10.192 8.444-18.637 18.636-18.637s18.636 8.445 18.636 18.637v37.273c0 11.357 1.748 22.422 4.368 32.905zM399.447 113.605l-105.122 105.122v37.273c0 51.25-41.933 93.183-93.183 93.183-11.065 0-21.839-2.038-31.74-5.533l-27.955 27.955c17.763 9.319 38.147 14.851 59.696 14.851 71.925 0 130.456-58.531 130.456-130.456v-37.273c0-10.192 8.445-18.637 18.637-18.637s18.637 8.445 18.637 18.637v37.273c0 86.194-65.228 157.246-149.093 166.564v38.438h74.547c10.192 0 18.637 8.445 18.637 18.637s-8.445 18.637-18.637 18.637h-186.365c-10.192 0-18.636-8.445-18.636-18.637s8.445-18.637 18.636-18.637h74.546v-38.438c-24.751-2.621-48.048-11.065-68.431-23.587l-73.964 73.964c-3.786 3.786-9.61 3.786-13.395 0l-23.878-23.878c-3.786-3.786-3.786-9.61 0-13.395l359.336-359.336c3.786-3.786 9.61-3.786 13.395 0l23.878 23.878c3.786 3.786 3.786 9.609 0 13.395zM288.793 75.166l-180.833 180.833v-149.093c0-51.251 41.933-93.183 93.183-93.183 40.185 0 74.547 25.916 87.65 61.442z"></path>
</svg>
