<!-- Generated by IcoMoon.io -->
<svg version="1.1" xmlns="http://www.w3.org/2000/svg" width="329" height="512" viewBox="0 0 329 512">
<title></title>
<g id="icomoon-ignore">
</g>
<path d="M329.144 219.429v36.571c0 84.572-64 154.286-146.286 163.429v37.714h73.144c10 0 18.286 8.286 18.286 18.286s-8.286 18.286-18.286 18.286h-182.858c-10 0-18.285-8.286-18.285-18.286s8.285-18.286 18.285-18.286h73.144v-37.714c-82.286-9.143-146.286-78.858-146.286-163.429v-36.572c0-10 8.286-18.286 18.285-18.286s18.285 8.286 18.285 18.286v36.572c0 70.572 57.429 128 128 128s128-57.429 128-128v-36.572c0-10 8.286-18.286 18.286-18.286s18.286 8.286 18.286 18.286zM256 109.714v146.286c0 50.286-41.143 91.429-91.429 91.429s-91.429-41.143-91.429-91.429v-146.286c0-50.285 41.143-91.429 91.429-91.429s91.429 41.143 91.429 91.429z"></path>
</svg>
