<!-- Generated by IcoMoon.io -->
<svg version="1.1" xmlns="http://www.w3.org/2000/svg" width="768" height="768" viewBox="0 0 768 768">
<title></title>
<g id="icomoon-ignore">
</g>
<path d="M618 384c36 0 64-28 64-64s-28-64-64-64-64 28-64 64 28 64 64 64zM490 214c36 0 64-28 64-64s-28-64-64-64-64 28-64 64 28 64 64 64zM278 214c36 0 64-28 64-64s-28-64-64-64-64 28-64 64 28 64 64 64zM150 384c36 0 64-28 64-64s-28-64-64-64-64 28-64 64 28 64 64 64zM384 0c212 0 384 154 384 342 0 118-96 212-214 212h-74c-36 0-64 28-64 64 0 16 6 30 16 42s16 28 16 44c0 36-28 64-64 64-212 0-384-172-384-384s172-384 384-384z"></path>
</svg>
