<!-- Generated by IcoMoon.io -->
<svg version="1.1" xmlns="http://www.w3.org/2000/svg" width="512" height="512" viewBox="0 0 512 512">
<title></title>
<g id="icomoon-ignore">
</g>
<path d="M66.251 100.722s261.903 53.83 267.101 54.755c60.173 10.616 58.301 22.333 58.301 22.333 42.135-0.242 47.377 1.498 54.711 7.62 22.202 18.524-13.875 73.080-13.875 73.080-5.11 3.832-394.693 154.177-394.693 154.177h407.468l66.736-313.398h-445.44z"></path>
<path d="M371.17 202.259c-5.881 2.929-21.32 4.537-28.633 5.132s-8.81 1.299-8.964 3.987 1.058 3.722 11.013 3.722c22.906 0 64.115-8.634 76.493-4.669 6.608 2.203 1.3 13.788-4.075 29.139-2.070 5.924 2.005 5.506 4.405 2.886s13.039-22.157 14.206-32.112c1.63-14.162-10.462-16.277-27.224-16.277h-26.584c-1.387 0-2.555 0.947-4.185 3.127-1.643 2.221-3.824 3.957-6.353 5.028l-0.1 0.037z"></path>
<path d="M51.164 171.754l-51.164 240.957s156.732-76.868 175.872-86.714c39.271-20.153 93.564-46.87 143.76-63.873 9.559-3.26 50.658-15.88 74.401-20.131 9.272-1.651 13.215-3.194 13.039-4.934-0.33-4.956-9.625-5.264-25.373-4.515-48.016 2.203-140.103 38.918-166.6 52.861l-29.888-92.726h191.113c8.568-24.052-113.122-20.703-116.933-20.924h-208.227z"></path>
</svg>
