<!-- Generated by IcoMoon.io -->
<svg version="1.1" xmlns="http://www.w3.org/2000/svg" width="512" height="512" viewBox="0 0 512 512">
<title></title>
<g id="icomoon-ignore">
</g>
<path d="M145.581 294.235c-3.042 9.602-4.381 19.703-6.81 31.438 68.824-28.692 134.878-59.948 208.513-68.347-54.341-6.81-103.236 14.233-153.922 31.12-6.606-24.493-12.962-48.349-19.953-74.43l149.654 8.103 0.681-3.45c-6.174-2.429-12.144-6.038-18.546-7.083-22.495-3.745-45.035-7.945-67.711-9.511-53.729-3.791-107.48-6.22-161.345-9.057l-11.962-0.636c3.677 4.313 5.72 6.81 7.922 9.284 22.585 24.606 45.058 49.326 67.915 73.636 5.334 5.743 8.149 10.782 5.561 18.931z"></path>
<path d="M305.904 235.581c14.323 0.318 28.647 0.386 42.947 0.953s15.685 2.519 10.329 15.889c-1.090 2.724-2.020 5.493-3.041 8.24 5.065-5.643 9.054-12.369 11.57-19.775l0.119-0.404c0.998-3.405-1.793-11.35-3.813-11.667-11.94-2.043-24.334-4.177-36.319-2.928-9.919 1.044-19.317 6.81-26.876 9.534-0.091-0.113 2.497 0.090 5.084 0.159z"></path>
<path d="M269.813 0.373c-4.127-0.237-8.954-0.373-13.813-0.373-141.385 0-256 114.615-256 256s114.615 256 256 256c136.519 0 248.078-106.861 255.596-241.5l0.029-0.666c0.238-4.133 0.374-8.967 0.374-13.834 0-136.526-106.873-248.090-241.522-255.597l-0.666-0.029zM464.434 198.127c-44.581-9.079-87.050-17.797-129.635-25.922-8.127-1.543-12.212-5.153-15.3-12.507-16.298-38.997-33.072-77.812-49.711-116.673-0.432-0.953-0.908-1.907-1.452-2.928 93.722 5.524 171.010 69.927 195.725 156.505l0.373 1.526zM39.962 244.343c6.38-114.307 100.627-204.583 215.96-204.583 2.657 0 5.304 0.047 7.939 0.143l-0.382-0.011-69.096 123.075c7.582 2.043 14.528 3.814 21.405 5.743 32.46 9.079 65.645 16.366 97.039 28.306 18.636 7.083 35.342 18.409 56.384 19.022 8.875 0.25 13.257 7.604 13.983 16.366 1.362 16.23-15.050 41.653-30.349 46.805q-110.317 37.136-220.816 74.271c-5.016 22.132-10.055 44.422-15.367 67.961-47.205-39.878-76.979-99.11-76.979-165.296 0-4.16 0.117-8.292 0.349-12.393l-0.026 0.569zM244.254 472.014c-47.393-2.611-90.24-20.163-124.398-47.978l0.392 0.31c2.497-1.044 4.653-1.93 6.81-2.906 37.204-17.047 74.521-33.867 111.498-51.368 7.468-3.541 12.78-2.906 19.612 1.248 34.934 21.315 70.163 42.13 105.301 63.081 2.27 1.43 4.767 2.769 7.832 4.54-32.65 20.935-72.49 33.371-115.233 33.371-4.14 0-8.252-0.116-12.334-0.347l0.566 0.026zM471.925 267.723c-3.918 71.165-41.731 132.732-97.442 169.238l-0.822 0.505c-5.199-45.398-10.010-89.139-15.435-132.721-0.201-0.94-0.316-2.018-0.316-3.124 0-5.158 2.5-9.733 6.356-12.576l0.043-0.030c31.506-27.239 62.74-54.75 94.065-82.171 2.065-1.816 4.086-3.745 6.696-6.174 4.58 16.626 7.212 35.718 7.212 55.423 0 4.083-0.113 8.139-0.336 12.166l0.025-0.56z"></path>
</svg>
