<!-- Generated by IcoMoon.io -->
<svg version="1.1" xmlns="http://www.w3.org/2000/svg" width="512" height="512" viewBox="0 0 512 512">
<title></title>
<g id="icomoon-ignore">
</g>
<path d="M508.397 250.789l-228.301-190.284c-6.577-5.191-14.987-8.328-24.129-8.328s-17.551 3.136-24.212 8.391l0.083-0.063-228.302 190.284c-2.174 1.917-3.537 4.709-3.537 7.82 0 2.459 0.853 4.719 2.279 6.501l-0.016-0.021 19.678 23.502c1.676 1.887 4.003 3.162 6.625 3.473l0.050 0.005c0.335 0.043 0.723 0.067 1.116 0.067 0.84 0 1.654-0.111 2.428-0.32l-0.065 0.015c1.599-0.334 2.999-1.031 4.163-2l219.711-183.186 219.726 183.198c1.149 0.957 2.548 1.652 4.086 1.976l0.062 0.011c0.709 0.193 1.522 0.305 2.363 0.305 0.393 0 0.781-0.024 1.161-0.072l-0.046 0.005c2.672-0.315 5-1.591 6.666-3.467l0.010-0.010 19.786-23.502c1.383-1.751 2.219-3.99 2.219-6.425 0-3.14-1.39-5.955-3.588-7.864l-0.012-0.011z"></path>
<path d="M425.708 118.57c0-0.013 0-0.028 0-0.044 0-1.969 1.386-3.614 3.235-4.012l0.027-0.005c1.978-0.278 4.264-0.437 6.586-0.437 1.651 0 3.284 0.080 4.894 0.237l-0.204-0.016c15.942 0 26.634 5.465 41.863 5.465 0.512 0.017 1.114 0.028 1.719 0.028 7.986 0 15.565-1.745 22.377-4.874l-0.334 0.138c1.423-0.638 2.396-2.041 2.398-3.672v0-52.123c-0.030-2.255-1.866-4.072-4.125-4.072-0.569 0-1.111 0.115-1.604 0.324l0.027-0.010c-5.375 2.099-11.599 3.316-18.105 3.316-0.827 0-1.649-0.020-2.466-0.059l0.115 0.005c-15.25 0-25.921-5.465-41.906-5.465-0.802-0.041-1.742-0.065-2.687-0.065-6.191 0-12.146 1.012-17.708 2.88l0.392-0.114c-1.61 0.56-2.747 2.057-2.765 3.821v97.898l8.252 6.653z"></path>
<path d="M285.906 344.344c8.446-2.873 44.692-14.041 65.753-17.778 8.209-1.469 11.643-2.83 11.535-4.32-0.303-4.32-8.511-4.666-22.421-3.996-42.468 1.988-123.839 34.411-147.275 46.767l-26.418-82.019h168.92c7.582-21.255-99.991-18.296-103.361-18.469h-134.315l-24.885 20.629c-0.213 0.468-0.337 1.015-0.337 1.591 0 0.109 0.004 0.217 0.013 0.324l-0.001-0.014v152.417c0 1.308 0.134 2.584 0.388 3.815l-0.021-0.122c37.132-18.253 76.835-37.824 85.389-42.23 34.67-17.886 82.667-41.496 127.036-56.594z"></path>
<path d="M375.853 327.041c2.161-2.311 11.535-19.593 12.572-28.384 1.447-12.529-9.267-14.408-24.064-14.408h-23.502c-1.231 0-2.161 0.842-3.694 2.765-1.454 1.966-3.38 3.503-5.614 4.459l-0.089 0.034c-5.206 2.57-18.858 3.996-25.23 4.536s-7.82 1.123-7.928 3.5 0.928 3.305 9.721 3.305c20.219 0 56.659-7.625 67.611-4.125 5.81 1.858 1.145 12.183-3.608 25.748-1.815 5.228 1.771 4.86 3.824 2.57z"></path>
<path d="M255.968 134.576l-103.944 85.778c65.559 13.458 143.366 29.399 146.001 29.875 53.182 9.397 51.541 19.657 51.541 19.657 37.24-0.216 41.863 1.318 48.365 6.74 19.613 16.352-12.269 64.587-12.269 64.587-3.456 2.57-204.043 80.334-299.455 117.25 2.132 0.858 4.604 1.358 7.192 1.361h325.14c11.211-0.037 20.289-9.115 20.327-20.323v-152.507c0.002-0.050 0.003-0.11 0.003-0.17 0-0.605-0.137-1.178-0.381-1.69l0.010 0.024z"></path>
</svg>
