<!-- Generated by IcoMoon.io -->
<svg version="1.1" xmlns="http://www.w3.org/2000/svg" width="512" height="512" viewBox="0 0 512 512">
<title></title>
<g id="icomoon-ignore">
</g>
<path d="M405.587 21.183c0-5.942-4.817-10.759-10.759-10.759h-277.565c-5.942 0-10.759 4.817-10.759 10.759v0 131.256h299.082z"></path>
<path d="M482.332 174.072h-452.526c-16.485 0-29.806 16.739-29.806 37.541v191.492c0 20.779 13.322 37.657 29.76 37.657h56.589v-116.179h339.394v116.179h56.497c16.439 0 29.76-16.855 29.76-37.657v-191.492c0.092-20.803-13.229-37.541-29.668-37.541zM457.651 282.586c-13.669 0-24.75-11.082-24.75-24.75s11.082-24.75 24.75-24.75c13.669 0 24.75 11.082 24.75 24.75v0c0 13.669-11.082 24.75-24.75 24.75v0z"></path>
<path d="M106.505 490.378c-0.001 0.070-0.002 0.151-0.002 0.233 0 5.985 4.794 10.849 10.751 10.965h277.575c5.968-0.115 10.762-4.98 10.762-10.965 0-0.082-0.001-0.163-0.002-0.245v0.012-144.277h-299.082zM133.149 373.322h245.795v11.175h-245.795zM133.149 413.61h245.795v11.197h-245.795zM133.149 453.899h245.795v11.197h-245.795z"></path>
</svg>
