<!-- Generated by IcoMoon.io -->
<svg version="1.1" xmlns="http://www.w3.org/2000/svg" width="513" height="512" viewBox="0 0 513 512">
<title></title>
<g id="icomoon-ignore">
</g>
<path d="M239.076 348.115l-4.373 107.293-0.583 6.414-122.454-8.455c-15.161-1.166-27.698-15.452-33.237-28.281-11.662-27.115 3.498-59.187 12.246-85.135 0 0 22.45 3.498 148.403 8.163zM126.243 177.263l52.481 110.501-42.859-26.823c-65.6 74.93-71.723 130.618-71.723 130.618l-55.396-104.087c-11.371-16.911-1.167-35.279-1.167-35.279s10.204-18.368 33.237-54.813l-40.818-25.074zM485.151 327.998l-54.813 104.67c-7.58 18.952-28.572 20.7-28.572 20.7s-20.7 2.041-63.851 3.498l2.332 47.815-67.058-107.002 61.519-105.544 2.041 50.44c98.838 11.954 148.403-14.577 148.403-14.577zM256.278 58.599c0 0-13.703 18.077-77.263 126.828l-92.424-54.522-5.54-3.499 65.6-103.795c8.163-12.829 26.532-17.494 40.818-16.036 29.156 2.624 50.148 30.905 68.808 51.023zM447.248 148.107l61.81 105.836c7.872 13.12 3.207 31.488-4.373 43.733-15.744 24.491-50.731 30.322-76.971 37.611 0 0-9.913-20.7-77.263-127.12l91.257-56.854zM405.555 82.216l41.401-24.2-64.142 108.751-122.163-5.832 44.026-25.074c-34.987-93.007-81.345-125.079-81.345-125.079l118.081 0.291c20.409-1.749 31.488 15.744 31.488 15.744s11.371 17.785 32.654 55.396z"></path>
</svg>
