<!-- Generated by IcoMoon.io -->
<svg version="1.1" xmlns="http://www.w3.org/2000/svg" width="512" height="512" viewBox="0 0 512 512">
<title></title>
<g id="icomoon-ignore">
</g>
<path d="M498.744 153.564l-175.996-101.681c-3.824-2.245-8.421-3.572-13.329-3.572-14.719 0-26.652 11.93-26.658 26.648v52.388h-75.156q-75.973 0-107.317 6.897c-20.493 4.169-38.438 13.105-53.273 25.611l0.178-0.147q-21.574 18.568-34.373 49.624t-12.82 81.146q0 60.411 13.97 91.645t36.252 49.337c13.002 11.025 28.702 19.298 45.949 23.7l0.802 0.173q36.428 8.356 107.162 8.356h207.296c9.767 0 17.683-7.917 17.683-17.683v0-49.801c0-9.767-7.917-17.683-17.683-17.683v0h-210.789q-54.377 0-70.491-3.161c-17.096-3.415-31.566-12.81-41.454-25.868l-0.124-0.171q-15.672-20.557-15.694-56.256 0-36.229 14.832-54.665c8.78-11.401 21.466-19.418 36.028-22.051l0.357-0.054q21.574-3.758 71.641-3.736h87.025v65.739c0.031 14.7 11.954 26.604 26.658 26.604 4.908 0 9.505-1.326 13.455-3.64l-0.126 0.068 175.996-101.681c7.983-4.704 13.255-13.258 13.255-23.044s-5.272-18.34-13.131-22.977l-0.125-0.068z"></path>
</svg>
