<!-- Generated by IcoMoon.io -->
<svg version="1.1" xmlns="http://www.w3.org/2000/svg" width="512" height="512" viewBox="0 0 512 512">
<title></title>
<g id="icomoon-ignore">
</g>
<path d="M256.178 98.601l-248.070 143.271c-4.883 2.876-8.108 8.107-8.108 14.092s3.225 11.216 8.033 14.050l0.076 0.041 248.164 143.271c2.338 1.373 5.149 2.184 8.15 2.184 8.994 0 16.286-7.284 16.3-16.274v-105.293l206.851 119.431c2.337 1.375 5.149 2.188 8.15 2.188 8.989 0 16.276-7.287 16.276-16.276 0-0.001 0-0.002 0-0.003v0-286.565c0-0.001 0-0.002 0-0.004 0-8.989-7.287-16.276-16.276-16.276-3.002 0-5.813 0.813-8.226 2.229l0.077-0.041-207.014 119.408v-105.316c-0.023-8.984-7.312-16.259-16.3-16.259-2.973 0-5.759 0.796-8.158 2.185l0.079-0.041z"></path>
</svg>
