<!-- Generated by IcoMoon.io -->
<svg version="1.1" xmlns="http://www.w3.org/2000/svg" width="512" height="512" viewBox="0 0 512 512">
<title></title>
<g id="icomoon-ignore">
</g>
<path d="M487.491 204.463l-54.813-10.684c-2.208-6.38-4.945-12.142-7.108-17.792l31.259-46.358c8.543-12.12 6.38-29.206-3.599-39.736l-29.824-29.912c-5.634-5.641-13.421-9.13-22.022-9.13-6.625 0-12.767 2.069-17.814 5.598l0.101-0.066-46.358 31.369c-4.611-2.239-10.483-4.656-16.502-6.765l-1.269-0.388-10.707-54.813c-3.272-14.566-15.969-25.331-31.229-25.607l-0.030-0.001h-42.561c-0.006 0-0.013 0-0.019 0-15.054 0-27.638 10.583-30.715 24.715l-0.038 0.207-10.685 54.813c-6.38 2.208-12.142 4.945-17.792 7.108l-46.358-31.259c-4.879-3.313-10.898-5.29-17.379-5.29-8.489 0-16.186 3.392-21.811 8.894l0.005-0.005-29.603 29.824c-5.641 5.634-9.13 13.421-9.13 22.022 0 6.625 2.069 12.767 5.598 17.814l-0.066-0.101 31.259 46.358c-2.198 4.58-4.594 10.462-6.69 16.484l-0.396 1.308-54.857 10.684c-15.652 3.599-26.336 16.335-26.336 31.369v42.672c0.040 15.005 10.588 27.536 24.671 30.625l0.208 0.038 54.835 10.552c2.208 6.38 4.922 12.142 7.086 17.793l-31.259 46.226c-8.543 12.12-6.38 29.205 3.599 39.736l29.912 29.912c5.634 5.641 13.421 9.13 22.023 9.13 6.625 0 12.767-2.070 17.814-5.598l-0.101 0.067 46.358-31.259c4.613 2.226 10.495 4.63 16.522 6.724l1.27 0.385 10.684 54.813c2.811 14.27 15.222 24.884 30.113 24.884 0.193 0 0.386-0.002 0.578-0.005l-0.029 0h43.4c15.002-0.034 27.531-10.586 30.603-24.671l0.038-0.207 10.707-54.813c7.104-2.327 12.99-4.734 18.672-7.493l-0.88 0.385 46.358 31.259c12.142 8.543 29.205 6.38 39.736-3.599l29.934-29.912c5.627-5.524 9.115-13.212 9.115-21.714 0-6.543-2.065-12.603-5.58-17.565l0.064 0.095-31.281-46.358c2.226-4.613 4.63-10.495 6.724-16.522l0.385-1.271 54.813-10.685c14.281-2.803 24.906-15.219 24.906-30.118 0-0.192-0.002-0.383-0.005-0.574l0 0.029v-43.179c0.003-0.173 0.006-0.379 0.006-0.584 0-14.713-10.438-26.988-24.313-29.825l-0.197-0.034zM255.987 353.868c-53.998 0-97.772-43.774-97.772-97.772s43.774-97.772 97.772-97.772c53.998 0 97.772 43.774 97.772 97.772v0c0 53.998-43.774 97.772-97.772 97.772v0z"></path>
</svg>
