<!-- Generated by IcoMoon.io -->
<svg version="1.1" xmlns="http://www.w3.org/2000/svg" width="512" height="512" viewBox="0 0 512 512">
<title></title>
<g id="icomoon-ignore">
</g>
<path d="M331.033 179.358l39.565-4.413q1.457 12.093 7.569 17.896c3.963 3.627 9.265 5.85 15.086 5.85 0.368 0 0.733-0.009 1.096-0.026l-0.051 0.002q12.666 0 21.537-11.651t11.342-48.281c-9.027 10.964-22.603 17.902-37.798 17.902-0.264 0-0.529-0.002-0.791-0.006l0.039 0q-25.156 0-43.404-19.418t-18.271-50.554q0-32.438 19.286-52.298t49.077-19.86c0.414-0.009 0.904-0.015 1.394-0.015 20.964 0 39.646 9.764 51.75 24.991l0.104 0.136q20.786 25.090 20.809 82.529 0 58.499-21.692 84.382t-56.424 25.928q-25.024 0-40.448-13.24t-19.772-39.852zM423.537 90.055q0-19.86-9.091-30.695t-21.007-10.923c-0.11-0.002-0.24-0.003-0.37-0.003-7.471 0-14.128 3.483-18.437 8.913l-0.037 0.048q-7.481 8.937-7.481 29.304t8.142 30.32c4.808 5.931 12.094 9.691 20.257 9.691 7.993 0 15.144-3.604 19.916-9.276l0.033-0.040q8.076-9.29 8.076-27.34z"></path>
<path d="M216.111 349.757h-55.541v-338.723c0-6.093-4.94-11.034-11.034-11.034v0h-29.856c-6.094 0-11.034 4.939-11.034 11.034v0 338.723h-55.498c-5.809 0.005-10.517 4.716-10.517 10.526 0 1.933 0.521 3.745 1.431 5.301l-0.027-0.050 81.492 141.226c1.856 3.156 5.236 5.24 9.103 5.24s7.245-2.084 9.076-5.191l0.027-0.050 81.492-141.226c0.883-1.507 1.404-3.318 1.404-5.252 0-5.81-4.708-10.521-10.517-10.526h-0z"></path>
<path d="M439.16 502.303h-40.845v-154.047c-14.62 13.613-32.26 24.192-51.789 30.611l-0.995 0.283v-37.005q15.976-5.229 34.755-19.86c11.542-8.601 20.424-20.176 25.577-33.599l0.174-0.516h33.1z"></path>
</svg>
