<!-- Generated by IcoMoon.io -->
<svg version="1.1" xmlns="http://www.w3.org/2000/svg" width="512" height="512" viewBox="0 0 512 512">
<title></title>
<g id="icomoon-ignore">
</g>
<path d="M288.916 228.678v-38.838l111.988-138.336h-99.3v-36.079h156.078v33.453l-116.733 143.853h121.368v35.947z"></path>
<path d="M192.463 349.758h-55.519v-338.724c0-6.093-4.94-11.034-11.034-11.034v0h-29.9c-6.094 0-11.034 4.939-11.034 11.034v0 338.724h-55.498c-0.002 0-0.005 0-0.008 0-5.801 0-10.504 4.703-10.504 10.503 0 1.942 0.527 3.762 1.447 5.323l-0.027-0.049 81.47 141.227c1.862 3.154 5.245 5.238 9.114 5.238s7.251-2.083 9.087-5.188l0.027-0.049 81.493-141.227c0.883-1.507 1.404-3.318 1.404-5.252 0-5.81-4.708-10.521-10.517-10.526h-0z"></path>
<path d="M493.034 502.305h-46.825l-18.624-48.437h-85.244l-17.654 48.437h-45.524l83.037-213.253h45.546zM413.769 417.923l-29.393-79.197-28.797 79.132z"></path>
</svg>
