<!-- Generated by IcoMoon.io -->
<svg version="1.1" xmlns="http://www.w3.org/2000/svg" width="512" height="512" viewBox="0 0 512 512">
<title></title>
<g id="icomoon-ignore">
</g>
<path d="M185.834 350.16h-55.381v-337.878c0-6.078-4.927-11.006-11.006-11.006v0h-29.782c-6.078 0-11.006 4.928-11.006 11.006v0 337.878h-55.381c-5.795 0.005-10.491 4.704-10.491 10.5 0 1.928 0.52 3.736 1.427 5.288l-0.027-0.050 81.288 140.874c1.852 3.147 5.224 5.228 9.080 5.228s7.228-2.079 9.053-5.178l0.026-0.050 81.288-140.874c0.881-1.503 1.4-3.31 1.4-5.238 0-5.796-4.696-10.495-10.49-10.5h-0z"></path>
<path d="M499.213 11.006v29.782c0 6.078-4.928 11.006-11.006 11.006h-319.168c-6.078 0-11.006-4.928-11.006-11.006v-29.782c0-6.078 4.928-11.006 11.006-11.006h319.168c6.078 0 11.006 4.928 11.006 11.006z"></path>
<path d="M246.081 290.553v29.782c0 6.078-4.928 11.006-11.006 11.006h-66.035c-6.078 0-11.006-4.928-11.006-11.006v-29.782c0-6.078 4.928-11.006 11.006-11.006h66.035c6.078 0 11.006 4.928 11.006 11.006z"></path>
<path d="M435.93 80.892v29.782c0 6.078-4.928 11.006-11.006 11.006h-255.885c-6.078 0-11.006-4.927-11.006-11.006v-29.782c0-6.078 4.928-11.006 11.006-11.006h255.885c6.078 0 11.006 4.927 11.006 11.006z"></path>
<path d="M372.647 150.78v29.782c0 6.078-4.928 11.006-11.006 11.006h-192.601c-6.078 0-11.006-4.928-11.006-11.006v-29.782c0-6.078 4.928-11.006 11.006-11.006h192.601c6.078 0 11.006 4.928 11.006 11.006z"></path>
<path d="M309.364 220.666v29.782c0 6.078-4.928 11.006-11.006 11.006h-129.317c-6.078 0-11.006-4.928-11.006-11.006v-29.782c0-6.078 4.928-11.006 11.006-11.006h129.317c6.078 0 11.006 4.928 11.006 11.006z"></path>
</svg>
