<!-- Generated by IcoMoon.io -->
<svg version="1.1" xmlns="http://www.w3.org/2000/svg" width="512" height="512" viewBox="0 0 512 512">
<title></title>
<g id="icomoon-ignore">
</g>
<path d="M432.555 228.704h-40.846v-154.048c-14.63 13.608-32.277 24.186-51.81 30.61l-0.997 0.284v-37.006q15.976-5.23 34.755-19.861c11.542-8.6 20.424-20.176 25.577-33.599l0.174-0.517h33.101z"></path>
<path d="M213.941 349.784h-55.564v-338.724c0-6.093-4.94-11.034-11.034-11.034v0h-29.834c-6.094 0-11.034 4.939-11.034 11.034v0 338.724h-55.52c-5.809 0.005-10.517 4.716-10.517 10.526 0 1.933 0.521 3.745 1.431 5.302l-0.026-0.050 81.493 141.226c1.862 3.154 5.245 5.237 9.113 5.237s7.251-2.082 9.087-5.188l0.026-0.049 81.47-141.226c0.893-1.512 1.419-3.331 1.419-5.274 0-5.801-4.703-10.503-10.504-10.503-0.002 0-0.006 0-0.008 0h0z"></path>
<path d="M333.255 452.504l39.565-4.413c0.949 8.054 3.487 14.012 7.546 17.896 3.976 3.627 9.288 5.849 15.119 5.849 0.363 0 0.726-0.009 1.085-0.026l-0.051 0.002q12.644 0 21.537-11.651t11.342-48.281c-9.027 10.965-22.603 17.902-37.799 17.902-0.264 0-0.529-0.002-0.791-0.007l0.039 0q-25.156 0-43.427-19.441t-18.249-50.532q0-32.438 19.264-52.298t49.099-19.861c0.401-0.009 0.874-0.014 1.348-0.014 20.973 0 39.666 9.752 51.796 24.969l0.103 0.134q20.786 25.089 20.786 82.551 0 58.499-21.67 84.383t-56.425 25.928q-25.024 0-40.448-13.24t-19.772-39.853zM425.759 363.178q0-19.861-9.091-30.673t-21.029-10.923c-0.106-0.002-0.233-0.002-0.359-0.002-7.467 0-14.122 3.483-18.426 8.913l-0.038 0.049q-7.525 8.827-7.502 29.305t8.165 30.32c4.808 5.931 12.094 9.69 20.257 9.69 7.993 0 15.144-3.604 19.916-9.276l0.033-0.039q8.077-9.29 8.077-27.363z"></path>
</svg>
