<!-- Generated by IcoMoon.io -->
<svg version="1.1" xmlns="http://www.w3.org/2000/svg" width="512" height="512" viewBox="0 0 512 512">
<title></title>
<g id="icomoon-ignore">
    <line stroke-width="1" x1="16" y1="0" x2="16" y2="512" stroke="#449FDB" opacity="0.3"></line>
    <line stroke-width="1" x1="32" y1="0" x2="32" y2="512" stroke="#449FDB" opacity="1"></line>
    <line stroke-width="1" x1="48" y1="0" x2="48" y2="512" stroke="#449FDB" opacity="0.3"></line>
    <line stroke-width="1" x1="64" y1="0" x2="64" y2="512" stroke="#449FDB" opacity="1"></line>
    <line stroke-width="1" x1="80" y1="0" x2="80" y2="512" stroke="#449FDB" opacity="0.3"></line>
    <line stroke-width="1" x1="96" y1="0" x2="96" y2="512" stroke="#449FDB" opacity="1"></line>
    <line stroke-width="1" x1="112" y1="0" x2="112" y2="512" stroke="#449FDB" opacity="0.3"></line>
    <line stroke-width="1" x1="128" y1="0" x2="128" y2="512" stroke="#449FDB" opacity="1"></line>
    <line stroke-width="1" x1="144" y1="0" x2="144" y2="512" stroke="#449FDB" opacity="0.3"></line>
    <line stroke-width="1" x1="160" y1="0" x2="160" y2="512" stroke="#449FDB" opacity="1"></line>
    <line stroke-width="1" x1="176" y1="0" x2="176" y2="512" stroke="#449FDB" opacity="0.3"></line>
    <line stroke-width="1" x1="192" y1="0" x2="192" y2="512" stroke="#449FDB" opacity="1"></line>
    <line stroke-width="1" x1="208" y1="0" x2="208" y2="512" stroke="#449FDB" opacity="0.3"></line>
    <line stroke-width="1" x1="224" y1="0" x2="224" y2="512" stroke="#449FDB" opacity="1"></line>
    <line stroke-width="1" x1="240" y1="0" x2="240" y2="512" stroke="#449FDB" opacity="0.3"></line>
    <line stroke-width="1" x1="256" y1="0" x2="256" y2="512" stroke="#449FDB" opacity="1"></line>
    <line stroke-width="1" x1="272" y1="0" x2="272" y2="512" stroke="#449FDB" opacity="0.3"></line>
    <line stroke-width="1" x1="288" y1="0" x2="288" y2="512" stroke="#449FDB" opacity="1"></line>
    <line stroke-width="1" x1="304" y1="0" x2="304" y2="512" stroke="#449FDB" opacity="0.3"></line>
    <line stroke-width="1" x1="320" y1="0" x2="320" y2="512" stroke="#449FDB" opacity="1"></line>
    <line stroke-width="1" x1="336" y1="0" x2="336" y2="512" stroke="#449FDB" opacity="0.3"></line>
    <line stroke-width="1" x1="352" y1="0" x2="352" y2="512" stroke="#449FDB" opacity="1"></line>
    <line stroke-width="1" x1="368" y1="0" x2="368" y2="512" stroke="#449FDB" opacity="0.3"></line>
    <line stroke-width="1" x1="384" y1="0" x2="384" y2="512" stroke="#449FDB" opacity="1"></line>
    <line stroke-width="1" x1="400" y1="0" x2="400" y2="512" stroke="#449FDB" opacity="0.3"></line>
    <line stroke-width="1" x1="416" y1="0" x2="416" y2="512" stroke="#449FDB" opacity="1"></line>
    <line stroke-width="1" x1="432" y1="0" x2="432" y2="512" stroke="#449FDB" opacity="0.3"></line>
    <line stroke-width="1" x1="448" y1="0" x2="448" y2="512" stroke="#449FDB" opacity="1"></line>
    <line stroke-width="1" x1="464" y1="0" x2="464" y2="512" stroke="#449FDB" opacity="0.3"></line>
    <line stroke-width="1" x1="480" y1="0" x2="480" y2="512" stroke="#449FDB" opacity="1"></line>
    <line stroke-width="1" x1="496" y1="0" x2="496" y2="512" stroke="#449FDB" opacity="0.3"></line>
    <line stroke-width="1" x1="0" y1="16" x2="512" y2="16" stroke="#449FDB" opacity="0.3"></line>
    <line stroke-width="1" x1="0" y1="32" x2="512" y2="32" stroke="#449FDB" opacity="1"></line>
    <line stroke-width="1" x1="0" y1="48" x2="512" y2="48" stroke="#449FDB" opacity="0.3"></line>
    <line stroke-width="1" x1="0" y1="64" x2="512" y2="64" stroke="#449FDB" opacity="1"></line>
    <line stroke-width="1" x1="0" y1="80" x2="512" y2="80" stroke="#449FDB" opacity="0.3"></line>
    <line stroke-width="1" x1="0" y1="96" x2="512" y2="96" stroke="#449FDB" opacity="1"></line>
    <line stroke-width="1" x1="0" y1="112" x2="512" y2="112" stroke="#449FDB" opacity="0.3"></line>
    <line stroke-width="1" x1="0" y1="128" x2="512" y2="128" stroke="#449FDB" opacity="1"></line>
    <line stroke-width="1" x1="0" y1="144" x2="512" y2="144" stroke="#449FDB" opacity="0.3"></line>
    <line stroke-width="1" x1="0" y1="160" x2="512" y2="160" stroke="#449FDB" opacity="1"></line>
    <line stroke-width="1" x1="0" y1="176" x2="512" y2="176" stroke="#449FDB" opacity="0.3"></line>
    <line stroke-width="1" x1="0" y1="192" x2="512" y2="192" stroke="#449FDB" opacity="1"></line>
    <line stroke-width="1" x1="0" y1="208" x2="512" y2="208" stroke="#449FDB" opacity="0.3"></line>
    <line stroke-width="1" x1="0" y1="224" x2="512" y2="224" stroke="#449FDB" opacity="1"></line>
    <line stroke-width="1" x1="0" y1="240" x2="512" y2="240" stroke="#449FDB" opacity="0.3"></line>
    <line stroke-width="1" x1="0" y1="256" x2="512" y2="256" stroke="#449FDB" opacity="1"></line>
    <line stroke-width="1" x1="0" y1="272" x2="512" y2="272" stroke="#449FDB" opacity="0.3"></line>
    <line stroke-width="1" x1="0" y1="288" x2="512" y2="288" stroke="#449FDB" opacity="1"></line>
    <line stroke-width="1" x1="0" y1="304" x2="512" y2="304" stroke="#449FDB" opacity="0.3"></line>
    <line stroke-width="1" x1="0" y1="320" x2="512" y2="320" stroke="#449FDB" opacity="1"></line>
    <line stroke-width="1" x1="0" y1="336" x2="512" y2="336" stroke="#449FDB" opacity="0.3"></line>
    <line stroke-width="1" x1="0" y1="352" x2="512" y2="352" stroke="#449FDB" opacity="1"></line>
    <line stroke-width="1" x1="0" y1="368" x2="512" y2="368" stroke="#449FDB" opacity="0.3"></line>
    <line stroke-width="1" x1="0" y1="384" x2="512" y2="384" stroke="#449FDB" opacity="1"></line>
    <line stroke-width="1" x1="0" y1="400" x2="512" y2="400" stroke="#449FDB" opacity="0.3"></line>
    <line stroke-width="1" x1="0" y1="416" x2="512" y2="416" stroke="#449FDB" opacity="1"></line>
    <line stroke-width="1" x1="0" y1="432" x2="512" y2="432" stroke="#449FDB" opacity="0.3"></line>
    <line stroke-width="1" x1="0" y1="448" x2="512" y2="448" stroke="#449FDB" opacity="1"></line>
    <line stroke-width="1" x1="0" y1="464" x2="512" y2="464" stroke="#449FDB" opacity="0.3"></line>
    <line stroke-width="1" x1="0" y1="480" x2="512" y2="480" stroke="#449FDB" opacity="1"></line>
    <line stroke-width="1" x1="0" y1="496" x2="512" y2="496" stroke="#449FDB" opacity="0.3"></line>
</g>
<path d="M425.2 219.7c-2.7-0.5-8.1-0.8-16.3-0.8h-10.9v31.8h12.4c8.9 0 14.9-0.6 17.9-1.8s5.4-3 7.1-5.5c1.7-2.5 2.6-5.4 2.6-8.7 0-4.1-1.2-7.4-3.6-10.1-2.5-2.5-5.5-4.2-9.2-4.9z"></path>
<path d="M512 150l-150.1-150h-212.2l-150 150v212.2l150.1 150.1h212.2l150-150.1v-212.2zM136.3 297.5c-3.6 5.6-8.6 9.8-15.1 12.5s-14.7 4.1-24.4 4.1c-14.2 0-25.1-3.3-32.7-9.8-7.6-6.6-12.1-16.1-13.6-28.6l22-2.1c1.3 7.4 4 12.8 8.1 16.3s9.5 5.2 16.4 5.2c7.3 0 12.8-1.5 16.5-4.6s5.5-6.7 5.5-10.8c0-2.6-0.8-4.9-2.3-6.8-1.6-1.9-4.3-3.5-8.1-4.9-2.7-0.9-8.7-2.5-18.1-4.9-12.1-3-20.7-6.7-25.5-11.1-6.9-6.2-10.3-13.7-10.3-22.6 0-5.7 1.6-11 4.9-16 3.2-5 7.9-8.8 14-11.4s13.4-3.9 22.1-3.9c14.1 0 24.7 3.1 31.8 9.3s10.8 14.4 11.2 24.7l-22.6 1c-1-5.8-3-9.9-6.2-12.4s-8-3.8-14.3-3.8c-6.6 0-11.7 1.4-15.5 4.1-2.4 1.7-3.6 4-3.6 7 0 2.7 1.1 4.9 3.4 6.8 2.9 2.4 9.8 4.9 20.8 7.5s19.2 5.3 24.4 8.1c5.3 2.8 9.4 6.6 12.4 11.4s4.5 10.8 4.5 17.9c-0.4 6.2-2.2 12.2-5.7 17.8zM241.7 219h-33.2v93.1h-22.6v-93.1h-33.3v-19h89.1v19zM342.9 298.7c-9.8 10.2-23 15.3-39.5 15.3-16.7 0-29.9-5.1-39.8-15.3-9.8-10.2-14.8-24.2-14.8-42 0-11.4 1.7-21 5.1-28.8 2.5-5.7 6-10.8 10.4-15.4 4.4-4.5 9.2-7.9 14.5-10.1 7-3 15-4.4 24.2-4.4 16.5 0 29.7 5.1 39.7 15.4 9.9 10.2 14.9 24.5 14.9 42.8 0.1 18.1-4.8 32.3-14.7 42.5zM457.5 251.9c-2.5 4.7-5.7 8.4-9.5 11-3.8 2.7-7.8 4.5-11.7 5.3-5.4 1.1-13.2 1.6-23.5 1.6h-14.8v42.3h-22.6v-112.1h36.3c13.8 0 22.7 0.6 26.9 1.7 6.4 1.7 11.8 5.3 16.1 11 4.3 5.6 6.5 12.9 6.5 21.8 0 6.9-1.2 12.7-3.7 17.4z"></path>
<path d="M303.4 217.4c-9.3 0-16.9 3.2-22.6 9.6s-8.6 16-8.6 28.9c0 12.7 2.9 22.3 8.8 28.9s13.3 9.8 22.3 9.8c9 0 16.4-3.2 22.2-9.7s8.7-16.3 8.7-29.3c0-12.9-2.8-22.4-8.4-28.8-5.6-6.2-13.1-9.4-22.4-9.4z"></path>
</svg>
