<!-- Generated by IcoMoon.io -->
<svg version="1.1" xmlns="http://www.w3.org/2000/svg" width="433" height="512" viewBox="0 0 433 512">
<title></title>
<g id="icomoon-ignore">
</g>
<path d="M128 130.998c0-20.285-16.285-36.572-36.572-36.572s-36.572 16.285-36.572 36.572 16.285 36.572 36.572 36.572 36.572-16.286 36.572-36.572zM432.861 295.572c0 9.714-4 19.143-10.572 25.715l-140.287 140.573c-6.857 6.572-16.286 10.572-26 10.572s-19.143-4-25.715-10.572l-204.287-204.573c-14.572-14.286-26-42-26-62.286v-118.859c0-20 16.572-36.572 36.572-36.572h118.859c20.286 0 48 11.428 62.572 26.001l204.288 204.002c6.572 6.857 10.572 16.286 10.572 26z"></path>
</svg>
