<!-- Generated by IcoMoon.io -->
<svg version="1.1" xmlns="http://www.w3.org/2000/svg" width="512" height="512" viewBox="0 0 512 512">
<title></title>
<g id="icomoon-ignore">
</g>
<path d="M209.373 408.981v-339.849h-131.881v-69.070h352.948v69.293h-131.411v339.76z"></path>
<path d="M477.469 449.015l-87.98-50.785c-0.942-0.555-2.075-0.884-3.286-0.884-3.617 0-6.55 2.932-6.55 6.55 0 0.004 0 0.009 0 0.013v-0 34.601h-247.31v-34.601c0-0.003 0-0.008 0-0.012 0-3.617-2.932-6.55-6.549-6.55-1.21 0-2.344 0.328-3.317 0.901l0.031-0.017-87.98 50.785c-1.965 1.161-3.262 3.267-3.262 5.678s1.297 4.517 3.232 5.661l0.031 0.017 87.98 50.808c0.942 0.555 2.076 0.884 3.285 0.884 3.617 0 6.55-2.932 6.55-6.55 0-0.004 0-0.009 0-0.013v0-34.624h247.31v34.624c0 0.003 0 0.008 0 0.012 0 3.617 2.932 6.55 6.55 6.55 1.211 0 2.344-0.328 3.317-0.901l-0.031 0.017 87.98-50.808c1.964-1.161 3.262-3.267 3.262-5.678s-1.298-4.517-3.232-5.661l-0.031-0.017z"></path>
</svg>
