<!-- Generated by IcoMoon.io -->
<svg version="1.1" xmlns="http://www.w3.org/2000/svg" width="512" height="512" viewBox="0 0 512 512">
<title></title>
<g id="icomoon-ignore">
</g>
<path d="M466.634 354.171c-6.171-0.343-12.389-0.183-18.582-0.206-19.84 0-39.68 0-59.428 0-3.726 0-4.892-1.257-4.8-4.8 0.16-8.091 0-16.183 0-24.274-0.021-0.165-0.032-0.356-0.032-0.55 0-2.198 1.506-4.045 3.543-4.563l0.033-0.007c10.882-4.384 19.908-11.454 26.535-20.406l0.117-0.165c12.457-15.84 24.435-32 36.571-48.206 8.618-11.429 17.28-22.857 25.555-34.674 9.143-13.052 0.206-21.988-11.017-22.172-13.143-0.206-26.286-0.137-39.428-0.16-12.389 0-24.777 0-37.166 0-3.406 0-4.8-1.257-4.755-4.571 0-8.228 0-16.435 0.137-24.64 0.091-1.712 0.966-3.201 2.269-4.126l0.017-0.011c15.223-5.988 25.486-17.554 34.925-30.217 16.274-21.805 32.754-43.428 48.983-65.28 3.094-4.102 5.983-8.737 8.445-13.623l0.24-0.526c0.77-1.438 1.221-3.145 1.221-4.959 0-4.715-3.056-8.715-7.295-10.128l-0.075-0.022c-3.483-1.316-7.51-2.142-11.709-2.284l-0.063-0.002q-35.657-0.32-71.291 0c-3.68 0-5.691-0.572-6.263-4.846-1.285-10.715-8.083-19.587-17.434-23.787l-0.189-0.076c-0.938-0.434-1.897-0.8-2.88-1.143l-1.166-0.32c-5.463-1.166-10.788-2.765-16.16-3.429h-8.914c-58.788 0.457-119.268 1.371-177.942 1.371-2.81 1.131-6.080 1.996-9.482 2.446l-0.209 0.022c-2.398 1.005-4.418 2.054-6.342 3.243l0.194-0.112c-7.56 4.57-12.812 12.305-13.929 21.322l-0.014 0.142c-0.595 4.572-2.72 5.257-6.743 5.234q-35.085-0.252-70.126 0c-4.398 0.147-8.569 0.898-12.505 2.169l0.321-0.090c-6.285 1.897-9.828 9.303-6.605 14.925 5.16 8.841 10.157 16.302 15.557 23.445l-0.425-0.588q24.343 32.754 49.166 65.211c6.669 9.149 15.606 16.271 25.996 20.605l0.404 0.149c2.599 0.711 4.477 3.051 4.477 5.83 0 0.363-0.032 0.719-0.094 1.064l0.006-0.036c-0.228 7.566 0 15.154 0 22.857 0 4.343-0.709 5.006-5.143 5.006h-70.857c-0.164-0.001-0.358-0.002-0.551-0.002-2.333 0-4.639 0.117-6.912 0.345l0.286-0.024c-10.675 1.143-17.349 9.988-9.486 21.394 8.228 11.931 17.097 23.383 25.782 34.994 11.154 14.948 22.285 29.898 33.599 44.708 8.297 10.857 17.828 20.252 31.132 24.937 1.169 0.774 1.955 2.046 2.057 3.506l0 0.014c0.183 8.846 0 17.692 0 26.537 0 3.497-2.286 3.566-4.915 3.566-24.388 0-48.777-0.137-73.143 0-4.136 0.101-8.049 0.931-11.657 2.365l0.228-0.080c-3.947 1.442-6.713 5.164-6.713 9.534 0 1.667 0.403 3.24 1.117 4.627l-0.026-0.057c4.56 7.904 8.995 14.577 13.794 20.958l-0.377-0.524c14.72 19.978 29.715 39.748 44.503 59.634 8.206 10.995 16.868 21.829 29.715 27.2 6.492 2.697 7.589 6.971 8.937 12.618 2.423 10.125 9.371 16.663 18.788 20.731l1.691 0.8h211.588c8.846-3.634 16-9.143 19.452-18.286 1.166-3.017 1.417-6.4 2.445-9.486 0.526-1.531 1.531-3.566 2.812-4.023 12.365-4.435 21.6-12.937 29.303-23.040 18.675-24.435 37.005-49.097 55.383-73.737 2.675-3.611 4.822-7.589 7.177-11.429 5.075-8.274-1.783-17.303-11.657-17.829zM257.697 481.622c-35.264-0.207-63.772-28.843-63.772-64.136 0-35.422 28.715-64.137 64.137-64.137 35.382 0 64.071 28.649 64.137 64.016v0.007c0 0.075 0 0.164 0 0.253 0 35.346-28.654 64-64 64-0.177 0-0.353-0-0.531-0.002h0.027zM193.606 257.142c1.006-36.343 28.869-63.794 64-63.863 0.305-0.006 0.667-0.008 1.028-0.008 35.485 0 64.251 28.767 64.251 64.251s-28.767 64.252-64.251 64.252c-0.483 0-0.963-0.005-1.442-0.016l0.072 0.001c-35.749-0.411-63.2-28.731-63.657-64.617zM257.308 161.714c-35.096-0.427-63.382-28.976-63.382-64.132 0-35.422 28.715-64.137 64.137-64.137 35.268 0 63.887 28.465 64.135 63.674v0.023c0.002 0.172 0.002 0.374 0.002 0.578 0 35.347-28.654 64-64 64-0.314 0-0.628-0.002-0.942-0.007l0.048 0z"></path>
</svg>
