<!-- Generated by IcoMoon.io -->
<svg version="1.1" xmlns="http://www.w3.org/2000/svg" width="512" height="512" viewBox="0 0 512 512">
<title></title>
<g id="icomoon-ignore">
</g>
<path d="M19.866 62.31h216.304c10.971 0 19.866 8.895 19.866 19.866v205.64c0 10.971-8.894 19.866-19.866 19.866h-216.304c-10.972 0-19.866-8.894-19.866-19.866v-205.639c0-10.972 8.895-19.866 19.866-19.866z"></path>
<path d="M439.615 409.062c0 22.438-18.19 40.627-40.627 40.627s-40.627-18.19-40.627-40.627c0-22.438 18.19-40.627 40.627-40.627s40.627 18.19 40.627 40.627z"></path>
<path d="M135.662 409.062c0 22.438-18.189 40.627-40.627 40.627s-40.627-18.19-40.627-40.627c0-22.438 18.189-40.627 40.627-40.627s40.627 18.19 40.627 40.627z"></path>
<path d="M508.365 231.215l-83.355-118.58c-1.877-2.849-4.767-4.9-8.147-5.647l-0.087-0.016-0.118-0.165h-1.203c-0.208-0.011-0.451-0.017-0.696-0.017s-0.488 0.007-0.729 0.019l0.034-0.001h-125.705c-4.506 0-8.187 4.719-8.187 10.593v213.921h-269.836c-0.007 0-0.015 0-0.024 0-5.694 0-10.31 4.616-10.31 10.31 0 0 0 0 0 0v0 44.993c0 5.707 4.627 10.334 10.334 10.334v0h28.855c3.727-27.815 27.307-49.042 55.845-49.042s52.119 21.227 55.814 48.753l0.032 0.289h192.261c3.769-27.786 27.339-48.974 55.857-48.974s52.089 21.189 55.825 48.683l0.033 0.291h48.178c4.506 0 8.163-4.719 8.163-10.617v-137.101c0.51-1.768 0.802-3.798 0.802-5.896 0-4.516-1.357-8.714-3.685-12.21l0.050 0.081zM478.732 239.284h-155.504v-110.888h78.141c2.293 0.922 4.19 2.424 5.566 4.328l0.026 0.037 69.624 97.039c1.466 2.025 2.344 4.558 2.344 7.297 0 0.782-0.072 1.547-0.209 2.289l0.012-0.077z"></path>
</svg>
