<!-- Generated by IcoMoon.io -->
<svg version="1.1" xmlns="http://www.w3.org/2000/svg" width="512" height="512" viewBox="0 0 512 512">
<title></title>
<g id="icomoon-ignore">
</g>
<path d="M462.257 2.143h-412.514c-26.255 0.085-47.516 21.346-47.601 47.593v412.522c0.085 26.255 21.346 47.516 47.593 47.601h412.522c26.255-0.085 47.516-21.346 47.601-47.593v-412.522c-0.085-26.255-21.346-47.516-47.593-47.601h-0.008zM445.118 138.69c-10.603 15.744-23.452 29.035-38.26 39.791l-0.451 0.312c0.15 3.321 0.214 6.662 0.214 10.047 0 102.55-78.086 220.824-220.803 220.824-0.138 0-0.303 0-0.467 0-44.020 0-85.013-12.966-119.365-35.288l0.851 0.519c5.511 0.709 11.887 1.114 18.358 1.114 0.061 0 0.122 0 0.183 0h-0.010c0.081 0 0.177 0 0.272 0 36.432 0 69.941-12.522 96.455-33.497l-0.326 0.248c-33.839-0.713-62.308-22.916-72.359-53.478l-0.156-0.55c4.391 0.868 9.446 1.374 14.617 1.392h0.015c7.278-0.002 14.323-0.995 21.010-2.851l-0.552 0.13c-35.739-7.426-62.211-38.657-62.211-76.070 0-0.008 0-0.016 0-0.024v0.001-0.964c10.141 5.715 22.191 9.252 35.027 9.679l0.127 0.004c-20.921-14.15-34.492-37.791-34.492-64.601 0-14.355 3.891-27.802 10.675-39.342l-0.198 0.365c38.439 47.040 95.308 77.767 159.426 81.084l0.536 0.022c-1.26-5.238-1.982-11.252-1.982-17.435 0-42.9 34.778-77.678 77.679-77.678 22.267 0 42.346 9.37 56.51 24.381l0.036 0.038c18.582-3.743 35.089-10.275 49.977-19.224l-0.705 0.393c-6.060 18.245-18.113 33.124-33.78 42.65l-0.346 0.196c16.519-1.977 31.566-6.272 45.505-12.582l-0.968 0.392z"></path>
</svg>
