<!-- Generated by IcoMoon.io -->
<svg version="1.1" xmlns="http://www.w3.org/2000/svg" width="512" height="512" viewBox="0 0 512 512">
<title></title>
<g id="icomoon-ignore">
</g>
<path d="M499.218 209.304q-12.803-31.070-34.298-49.644c-14.651-12.358-32.587-21.296-52.306-25.344l-0.766-0.131q-31.379-6.9-107.361-6.9h-75.186v-52.321c0-0.004 0-0.010 0-0.016 0-14.728-11.94-26.669-26.669-26.669-4.928 0-9.543 1.337-13.504 3.666l0.125-0.068-176.068 101.723c-7.944 4.716-13.185 13.25-13.185 23.009s5.242 18.293 13.062 22.941l0.123 0.067 176.068 101.722c3.825 2.246 8.424 3.573 13.334 3.573 14.726 0 26.663-11.935 26.669-26.659v-65.767h87.061q50.087 0 71.67 3.738c14.923 2.688 27.615 10.708 36.297 21.976l0.101 0.137q14.838 18.399 14.838 54.687 0 35.691-15.7 56.279c-10.017 13.234-24.493 22.634-41.159 25.976l-0.437 0.074q-16.099 3.14-70.52 3.163h-210.831c-9.77 0-17.691 7.921-17.691 17.691v0 49.822c0 9.771 7.921 17.691 17.691 17.691v0h207.336q70.764 0 107.073-8.358c18.057-4.577 33.762-12.853 46.938-24.022l-0.168 0.139q22.313-18.133 36.266-49.357t13.976-91.683q0.045-50.043-12.782-81.135z"></path>
</svg>
