<!-- Generated by IcoMoon.io -->
<svg version="1.1" xmlns="http://www.w3.org/2000/svg" width="549" height="512" viewBox="0 0 549 512">
<title></title>
<g id="icomoon-ignore">
</g>
<path d="M169.429 256c-29.715 0.857-56.572 13.714-75.715 36.572h-38.285c-28.572 0-55.428-13.714-55.428-45.428 0-23.143-0.857-100.857 35.428-100.857 6 0 35.715 24.285 74.285 24.285 13.143 0 25.715-2.286 38-6.572-0.857 6.286-1.429 12.572-1.429 18.857 0 26 8.286 51.715 23.143 73.143zM475.428 438c0 46.286-30.572 74-76.286 74h-249.714c-45.715 0-76.285-27.714-76.285-74 0-64.572 15.143-163.714 98.857-163.714 9.714 0 45.143 39.714 102.286 39.714s92.572-39.714 102.286-39.714c83.714 0 98.857 99.143 98.857 163.714zM182.857 73.143c0 40.285-32.857 73.143-73.143 73.143s-73.143-32.857-73.143-73.143 32.857-73.143 73.143-73.143 73.143 32.857 73.143 73.143zM384 182.857c0 60.571-49.143 109.715-109.714 109.715s-109.714-49.143-109.714-109.714 49.143-109.715 109.714-109.715 109.714 49.143 109.714 109.715zM548.572 247.143c0 31.715-26.857 45.429-55.428 45.429h-38.286c-19.143-22.857-46-35.714-75.714-36.572 14.857-21.428 23.143-47.143 23.143-73.143 0-6.286-0.572-12.571-1.428-18.857 12.286 4.286 24.857 6.572 38 6.572 38.572 0 68.286-24.286 74.285-24.286 36.285 0 35.428 77.714 35.428 100.857zM512 73.143c0 40.285-32.857 73.143-73.143 73.143s-73.143-32.857-73.143-73.143 32.857-73.143 73.143-73.143 73.143 32.857 73.143 73.143z"></path>
</svg>
