<!-- Generated by IcoMoon.io -->
<svg version="1.1" xmlns="http://www.w3.org/2000/svg" width="583" height="512" viewBox="0 0 583 512">
<title></title>
<g id="icomoon-ignore">
</g>
<path d="M201.143 256c-60.571 0-109.715-49.143-109.715-109.714s49.143-109.715 109.715-109.715 109.715 49.143 109.715 109.715-49.143 109.714-109.714 109.714zM508.857 347.428l71.143 71.143c1.715 1.714 2.572 4 2.572 6.572 0 2.286-0.857 4.572-2.572 6.286l-38.857 38.857c-1.715 1.714-4 2.572-6.285 2.572-2.572 0-4.857-0.857-6.572-2.572l-71.143-71.143-71.143 71.143c-1.714 1.714-4 2.572-6.572 2.572-2.286 0-4.572-0.857-6.286-2.572l-38.857-38.857c-1.714-1.714-2.572-4-2.572-6.286 0-2.572 0.857-4.857 2.572-6.572l71.143-71.143-71.143-71.143c-1.714-1.714-2.572-4-2.572-6.572 0-2.286 0.857-4.572 2.572-6.286l38.857-38.857c1.714-1.714 4-2.571 6.286-2.571 2.572 0 4.857 0.857 6.572 2.571l71.143 71.143 71.143-71.143c1.715-1.714 4-2.571 6.572-2.571 2.285 0 4.572 0.857 6.285 2.571l38.857 38.857c1.715 1.714 2.572 4 2.572 6.286 0 2.572-0.857 4.857-2.572 6.572zM366.572 347.428l-51.714 51.714c-6.857 6.857-10.572 16.286-10.572 26 0 9.428 3.714 18.857 10.572 25.714l23.714 23.714c-4 0.572-8.286 0.857-12.572 0.857h-249.714c-45.715 0-76.285-27.428-76.285-74 0-64.572 15.143-163.714 98.857-163.714 4.572 0 7.715 2 11.143 4.857 27.428 21.715 55.428 34.857 91.143 34.857s63.714-13.143 91.143-34.857c3.428-2.857 6.572-4.857 11.143-4.857 5.428 0 10.857 0.571 16.286 1.714-9.428 9.143-15.428 16.572-15.428 30.286 0 9.714 3.714 19.143 10.572 26z"></path>
</svg>
