<!-- Generated by IcoMoon.io -->
<svg version="1.1" xmlns="http://www.w3.org/2000/svg" width="512" height="512" viewBox="0 0 512 512">
<title></title>
<g id="icomoon-ignore">
</g>
<path d="M86.75 17.894l107.816 107.816-68.856 68.856-107.816-107.816c-11.29 21.406-17.916 46.781-17.916 73.703 0 88.672 71.883 160.556 160.556 160.556 21.060 0 41.173-4.055 59.6-11.426l-1.082 0.382 185.828 185.805c10.079 10.016 23.97 16.207 39.307 16.207s29.228-6.191 39.31-16.209l-0.002 0.002 12.277-12.023c10.016-10.079 16.207-23.97 16.207-39.306s-6.191-29.228-16.209-39.31l-185.802-185.826c6.989-17.345 11.044-37.458 11.044-58.518 0-88.672-71.883-160.556-160.556-160.556-26.923 0-52.298 6.627-74.584 18.337l0.88-0.422z"></path>
</svg>
