<svg xmlns="http://www.w3.org/2000/svg" viewBox="0 0 304.1 51.91"><defs><style>.cls-1{fill:#336;}.cls-2{fill:#999;}</style></defs><title>Asset 3</title><g id="Layer_2" data-name="Layer 2"><g id="Layer_1-2" data-name="Layer 1"><path class="cls-1" d="M8.67,1.39h50L51.17,36.5H4.71S49,19.16,49.45,18.84c0,0,4-5.25,1.61-7.39-.75-.75-1.82-.75-5.78-.75,0,0-.11-1.49-6.32-3C38.21,7.49,8.67,1.39,8.67,1.39ZM43.46,12.84a16.21,16.21,0,0,1-3.21.75c-.65,0-1,0-1,.22s.86.21,1.29.21c1.5,0,7.17-.32,8.45-.21,1.07.11-.1,2.25-.53,3.64-.11.53.21.21.32,0a16.46,16.46,0,0,0,1.61-3.64c.21-1.61-1-1.82-2.89-1.82h-3c-.22,0-.22.11-.32.21A2.21,2.21,0,0,1,43.46,12.84ZM24.94,24.73A76.49,76.49,0,0,1,36.61,19.8a41.57,41.57,0,0,1,6.63-1.92,31.92,31.92,0,0,0,4.5-1c.53-.21-.54-.75-2.89-.64-5.67.21-15.2,4.07-19,5.89L22.48,11.88H44c-.21-2.46-12.73-2.46-13.06-2.46H7L1.28,36.5,24.94,24.73"/><path class="cls-1" d="M90.88.75h7.17L94,20a22.9,22.9,0,0,1-2.89,7.38,18.26,18.26,0,0,1-4.28,5,16.13,16.13,0,0,1-5,2.89,14.27,14.27,0,0,1-5,1H72.68a9.51,9.51,0,0,1-3.75-.75,18.75,18.75,0,0,1-3.64-2.14,11.79,11.79,0,0,1-2.67-3.86A12.29,12.29,0,0,1,61.55,24a15.33,15.33,0,0,1,.1-2.14A15.86,15.86,0,0,1,62,19.59L66,.54h7.28L69.25,19.16a20.31,20.31,0,0,0-.53,4.07c0,2.35.64,4.07,1.71,5a7.56,7.56,0,0,0,4.93,1.6h.32a11.09,11.09,0,0,0,7.06-2.46c1.93-1.71,3.32-4.49,4.18-8.24Z"/><path class="cls-1" d="M95.69,36.39l1.4-6.2h14.55a3,3,0,0,0,3.21-2.47,2.23,2.23,0,0,0-.32-1.28,4.86,4.86,0,0,0-.64-1h0L103.4,14.66A6.49,6.49,0,0,1,102,12.31a5,5,0,0,1-.64-2.57V9a1.2,1.2,0,0,1,.1-.53V8.35a9.54,9.54,0,0,1,1.61-4A8.94,8.94,0,0,1,105.65,2,9.89,9.89,0,0,1,108.75,1c1.07-.1,2.14-.21,3-.21h15.63l-1.29,6.31H111.86a2.93,2.93,0,0,0-1.93.54,2,2,0,0,0-1.07,1.07l-.11.54v.1a2.1,2.1,0,0,0,.32,1.07,10.75,10.75,0,0,0,1.07,1.5c.54.54,1,1.07,1.61,1.71l1.82,1.82c1,.86,1.82,1.82,2.89,2.89a26.43,26.43,0,0,1,2.68,3.11,11.26,11.26,0,0,1,1.92,3.21,9.28,9.28,0,0,1,.75,3.32v.75a1.55,1.55,0,0,1-.11.64,12.79,12.79,0,0,1-1,2.67A11.71,11.71,0,0,1,119,34.36a7.37,7.37,0,0,1-2.36,1.71,8.25,8.25,0,0,1-3,.64H95.59v-.32Z"/><path class="cls-1" d="M138.94,7.06l-6.21,29.33h-7.17L133.26.75h16.81c3.43,0,5.89.75,7.49,2.25a8.14,8.14,0,0,1,2.36,6.21,15.54,15.54,0,0,1-.32,3.1,10.55,10.55,0,0,1-2.47,5,20,20,0,0,1-4.6,3.75A25.51,25.51,0,0,1,147,23.44a21.15,21.15,0,0,1-5.46.86L140.86,18a15.19,15.19,0,0,0,4.5-.53A12.31,12.31,0,0,0,149,16.06a17.15,17.15,0,0,0,2.46-1.93,7.48,7.48,0,0,0,1.29-2.36v-.1a6.11,6.11,0,0,0,.1-1.29,3.67,3.67,0,0,0-.32-1.71,2.06,2.06,0,0,0-1-1c-.32-.22-.75-.32-1.07-.54a2.59,2.59,0,0,0-.86-.11Z"/><path class="cls-1" d="M158.31,36.39l1.39-6.2h14.56a3,3,0,0,0,3.21-2.47,2.31,2.31,0,0,0-.32-1.28,4.86,4.86,0,0,0-.64-1h0L166,14.66a6.49,6.49,0,0,1-1.39-2.35,10.88,10.88,0,0,1-.32-2.57V9a1.2,1.2,0,0,1,.1-.53V8.35a9.54,9.54,0,0,1,1.61-4A8.94,8.94,0,0,1,168.59,2,9.89,9.89,0,0,1,171.69,1c1.07-.1,2.14-.21,3-.21h15.63l-1.39,6.31H174.69a2.93,2.93,0,0,0-1.93.54,2,2,0,0,0-1.07,1.07l-.11.54v.1a2,2,0,0,0,.33,1.07,9.31,9.31,0,0,0,1.07,1.5c.53.54,1,1.07,1.6,1.71l1.82,1.82c1,.86,1.82,1.82,2.89,2.89A26.43,26.43,0,0,1,182,21.41a12.68,12.68,0,0,1,1.92,3.21,7.43,7.43,0,0,1,.75,3.32v.75a1.69,1.69,0,0,1-.1.64,13.43,13.43,0,0,1-1,2.67,8.59,8.59,0,0,1-1.71,2.36,7.44,7.44,0,0,1-2.35,1.71,8.3,8.3,0,0,1-3,.64h-18.2v-.32Z"/><path class="cls-1" d="M198.56,3.75A3.32,3.32,0,1,1,195.24.43h0a3.2,3.2,0,0,1,3.32,3.32Zm-6.21,0a2.79,2.79,0,1,0,5.57.21V3.75a2.79,2.79,0,0,0-5.57-.22Zm2.14,1.82H194V1.71h1.49c.86,0,1.29.32,1.29,1.07a1,1,0,0,1-1,1.07l1.07,1.72h-.65l-1.07-1.72h-.75l.11,1.72ZM195,3.43c.64,0,1.07,0,1.07-.75,0-.54-.54-.65-.86-.65h-.86v1.4Z"/><path class="cls-2" d="M228.85,19.48A28.13,28.13,0,0,1,226.18,27a19.67,19.67,0,0,1-4.07,5.14,15.65,15.65,0,0,1-5,2.89,17.17,17.17,0,0,1-5.68,1H193L200.59.21h18.09a13.41,13.41,0,0,1,4.07.65A9.91,9.91,0,0,1,226.28,3a10.51,10.51,0,0,1,2.57,3.74,13.89,13.89,0,0,1,1,5.46,15.33,15.33,0,0,1-.1,2.14c-.11.75-.22,1.5-.32,2.36Zm-6.31-4.71a7.56,7.56,0,0,0,.1-1.39,9.19,9.19,0,0,0-.53-3.21A5.35,5.35,0,0,0,220.5,8a6,6,0,0,0-2.35-1.18,13.82,13.82,0,0,0-3-.43h-8.67l-4.92,23.23h8.34a12.28,12.28,0,0,0,4-.64,10.85,10.85,0,0,0,3.42-1.93A11,11,0,0,0,220,23.66a18.48,18.48,0,0,0,1.82-5l.42-2C222.32,16,222.43,15.31,222.54,14.77Z"/><path class="cls-2" d="M274.88.11l-7.71,35.75H260l4.39-20.45L251.86,35.86h-5.24l-4.17-21.41-4.61,21.41h-7.28L238.16.11h8.57l4.71,23.44,14-23.44Z"/><path class="cls-2" d="M272.31,36l1.28-6.32h14.67a3,3,0,0,0,3.21-2.46,2.32,2.32,0,0,0-.32-1.29l-.64-1h0l-10.6-10.81a6.53,6.53,0,0,1-1.39-2.36,12.41,12.41,0,0,1-.43-2.56V8.46a1,1,0,0,1,.11-.54V7.81a10.76,10.76,0,0,1,1.6-4.06,7.71,7.71,0,0,1,2.57-2.36A8.35,8.35,0,0,1,285.48.32a15.31,15.31,0,0,1,3-.32H304.1l-1.28,6.32H288.47a4.41,4.41,0,0,0-2,.53c-.64.32-1.07.75-1.07,1.18l-.22.53.11-.21v.21a2,2,0,0,0,.43,1.18,11.77,11.77,0,0,0,1.07,1.39,20,20,0,0,0,1.61,1.71c.64.65,1.28,1.18,1.92,1.82l2.89,2.89a24.26,24.26,0,0,1,2.68,3.11,17.81,17.81,0,0,1,2,3.21,7.43,7.43,0,0,1,.75,3.32v.64a.81.81,0,0,1-.11.54,11,11,0,0,1-1,2.67,7.48,7.48,0,0,1-1.71,2.36,7.37,7.37,0,0,1-2.36,1.71,6.76,6.76,0,0,1-3,.64h-18.2Z"/><path class="cls-1" d="M12.1,46.13a14.86,14.86,0,0,1-.86,2.57,5.87,5.87,0,0,1-1.39,1.72,5.57,5.57,0,0,1-1.71,1,6.24,6.24,0,0,1-1.93.32H0L2.57,39.6h6.1a6.1,6.1,0,0,1,1.39.22,2.8,2.8,0,0,1,1.18.75,4,4,0,0,1,.86,1.28,5.12,5.12,0,0,1,.32,1.82v.75c0,.22-.11.54-.11.86ZM10,44.53V44.1A3.08,3.08,0,0,0,9.74,43a2,2,0,0,0-.53-.75,3.05,3.05,0,0,0-.75-.43,3.2,3.2,0,0,0-1-.1H4.6L2.89,49.56H5.67A5.79,5.79,0,0,0,7,49.35a2.65,2.65,0,0,0,1.18-.65,5.72,5.72,0,0,0,1-1.17,14.54,14.54,0,0,0,.64-1.72l.11-.64A1.43,1.43,0,0,0,10,44.53Z"/><path class="cls-1" d="M16.16,46.56l-.53,3h6.31l-.75,2.14H12.74l2.57-12.1H24l-.75,2.15h-6l-.53,2.78h5.56l-.75,2.14H16.16Z"/><path class="cls-1" d="M26,49.56h6.21l-.75,2.14H23.12l2.57-12.1h2.46Z"/><path class="cls-1" d="M38.32,39.6,35.86,51.7H33.4l2.46-12.1Z"/><path class="cls-1" d="M41.32,51.7,39.6,39.6h2.68l1,7.93,4.82-7.93h2.78L43.35,51.7Z"/><path class="cls-1" d="M52.88,46.56l-.64,3h6.31L57.8,51.7H49.35l2.56-12.1h8.67l-.74,2.15h-6l-.53,2.78h5.56l-.75,2.14H52.88Z"/><path class="cls-1" d="M59.73,51.7,62.3,39.6H68a4,4,0,0,1,2.46.65,2.42,2.42,0,0,1,.86,2,4.29,4.29,0,0,1-.11,1.18h0a2.37,2.37,0,0,1-.53,1.28,10.34,10.34,0,0,1-.75,1.07,3.89,3.89,0,0,1-1.07.75,5.63,5.63,0,0,1-1.18.54l2,4.6H67.22l-2.57-6c.22-.11.32-.22.43-.22h.21a5,5,0,0,0,2.25-.43,2.47,2.47,0,0,0,1.29-1.6h0c0-.11.1-.32.1-.43a.87.87,0,0,0-.1-.54l-.32-.32c-.11-.1-.22-.1-.43-.21H64.33l-2.14,9.95H59.73Z"/><path class="cls-1" d="M74.29,51.7l1-4.71L72.36,39.6H75L77,44.53,81,39.6h2.89l-6.21,7.5-1,4.6Z"/><path class="cls-1" d="M105.43,39.6l-2.56,12.1H100.4l1.5-7-4.28,7H95.8l-1.39-7.17-1.5,7.17H90.45L93,39.6h2.89l1.6,7.93,4.71-7.93Z"/><path class="cls-1" d="M110.57,39.6h3L115.39,51v.22c0,.1-.11.21-.22.32l-.21.21H107.9l1.17-2.14h3.64l-1.07-7.07-5,9.1H104Z"/><path class="cls-1" d="M126.84,51.7h-2.67l-3.32-7.92-1.71,7.92h-2.47l2.57-12.1h2.68l3.32,8.25,1.82-8.25h2.46Z"/><path class="cls-1" d="M134.55,39.6h3L139.37,51v.22c0,.1-.11.21-.22.32l-.21.21h-7.07l1.18-2.14h3.64l-1.07-7.07-5,9.21H128Z"/><path class="cls-1" d="M143.33,47.2A2.19,2.19,0,0,0,144,49a2.47,2.47,0,0,0,1.82.54h2.78l.64-2.78h-2.78l.75-2.14h3.42a.87.87,0,0,1,.86.42,1.15,1.15,0,0,1,.22.86v.43h0l-.86,3.85a3.27,3.27,0,0,1-.54,1.07,1.31,1.31,0,0,1-1,.43h-4.6a6.58,6.58,0,0,1-1.39-.21,2.8,2.8,0,0,1-1.18-.75,3.93,3.93,0,0,1-.86-1.29,4.67,4.67,0,0,1-.32-1.82V47.2a1.12,1.12,0,0,1,.11-.53c0-.21.11-.43.11-.64a5.06,5.06,0,0,1,.21-1,9,9,0,0,1,1-2.57,6.2,6.2,0,0,1,1.5-1.71,5.37,5.37,0,0,1,1.71-1,5.22,5.22,0,0,1,1.72-.32h5l-.43,2.14h-4.18a5.8,5.8,0,0,0-1.28.21,3.28,3.28,0,0,0-1.18.64,10.47,10.47,0,0,0-1,1.08,9.47,9.47,0,0,0-.64,1.71l-.11.64c0,.21-.11.43-.11.64A1.46,1.46,0,0,0,143.33,47.2Z"/><path class="cls-1" d="M155.85,46.56l-.64,3h6.31l-.75,2.14h-8.45l2.57-12.1h8.67l-.75,2.15h-6l-.53,2.78h5.56l-.75,2.14h-5.24Z"/><path class="cls-1" d="M177.69,39.6l-2.57,12.1h-2.46l1.49-7-4.28,7h-1.82l-1.39-7.17-1.5,7.17H162.7l2.57-12.1h2.89l1.61,7.93,4.7-7.93Z"/><path class="cls-1" d="M180.36,46.56l-.64,3H186l-.75,2.14h-8.46l2.57-12.1h8.67l-.75,2.15h-6l-.54,2.78h5.57l-.75,2.14h-5.25Z"/><path class="cls-1" d="M197.49,51.7h-2.68l-3.32-7.92-1.71,7.92h-2.46l2.57-12.1h2.67l3.32,8.25,1.82-8.25h2.46Z"/><path class="cls-1" d="M211.19,41.75h-3.75l-2.14,10h-2.46l2.14-10h-3.75l.43-2.15h9.85Z"/><path class="cls-1" d="M219,51.7l.43-2.14h4.93a1,1,0,0,0,1.07-.86c0-.21,0-.32-.11-.43s-.11-.21-.22-.32h0l-3.63-3.64a1.28,1.28,0,0,1-.43-.85,2.59,2.59,0,0,1-.11-.86v-.43h0a5.36,5.36,0,0,1,.54-1.39,1.9,1.9,0,0,1,.85-.75,1.83,1.83,0,0,1,1.07-.32,3.54,3.54,0,0,1,1.07-.11h5.25l-.43,2.15h-4.82a1.46,1.46,0,0,0-.64.21c-.21.11-.32.21-.32.43l-.11.21v0a.78.78,0,0,0,.11.43,2.32,2.32,0,0,1,.32.54c.11.21.32.32.54.53l.64.64,1,1a9.37,9.37,0,0,1,1,1.07,3.81,3.81,0,0,1,.65,1.07,2,2,0,0,1,.21,1.07v.43l-.32,1a2,2,0,0,1-.54.75,3.1,3.1,0,0,1-.74.53,3.16,3.16,0,0,1-1,.22H219Z"/><path class="cls-1" d="M233,51.7,234,47,231.1,39.6h2.67l1.93,4.93,4.07-4.93h2.89l-6.21,7.5-1,4.6Z"/><path class="cls-1" d="M241.05,51.7l.43-2.14h4.93a1,1,0,0,0,1.07-.86c0-.21,0-.32-.11-.43s-.11-.21-.22-.32h0l-3.63-3.64a1.28,1.28,0,0,1-.43-.85,2.59,2.59,0,0,1-.11-.86v-.43h0a5.36,5.36,0,0,1,.54-1.39,1.9,1.9,0,0,1,.85-.75,1.83,1.83,0,0,1,1.07-.32,3.54,3.54,0,0,1,1.07-.11h5.25l-.43,2.15h-4.82a1.46,1.46,0,0,0-.64.21c-.21.11-.32.21-.32.43l-.11.21v0a.78.78,0,0,0,.11.43,2.32,2.32,0,0,1,.32.54c.11.21.32.32.54.53l.64.64,1,1a9.37,9.37,0,0,1,1,1.07,3.81,3.81,0,0,1,.65,1.07,2,2,0,0,1,.21,1.07v.43c-.11.32-.21.64-.32,1a2,2,0,0,1-.54.75,3.1,3.1,0,0,1-.74.53,3.16,3.16,0,0,1-1,.22h-6.21Z"/><path class="cls-1" d="M263.1,41.75h-3.74l-2.14,10h-2.47l2.15-10h-3.75l.43-2.15h9.84Z"/><path class="cls-1" d="M266.31,46.56l-.64,3H272l-.75,2.14h-8.46l2.57-12.1H274l-.75,2.15h-6l-.54,2.78h5.57l-.75,2.14h-5.25Z"/><path class="cls-1" d="M288.26,39.6l-2.68,12.1h-2.46l1.5-7-4.28,7h-1.82l-1.39-7.17-1.5,7.17h-2.46l2.56-12.1h2.89l1.61,7.93,4.71-7.93Z"/></g></g></svg>