<?xml version="1.0" encoding="utf-8"?>
<!-- Generator: Adobe Illustrator 22.1.0, SVG Export Plug-In . SVG Version: 6.00 Build 0)  -->
<svg version="1.1" id="Layer_1" xmlns="http://www.w3.org/2000/svg" xmlns:xlink="http://www.w3.org/1999/xlink" x="0px" y="0px"
	 viewBox="0 0 236 44" style="enable-background:new 0 0 236 44;" xml:space="preserve">
<style type="text/css">
	.st0{fill:#333366;}
	.st1{fill:#595959;}
	.st2{fill:#999999;}
</style>
<path class="st0" d="M6.2,0.6h40.4l-6,28.4H3c0,0,35.8-14,36.2-14.3c0,0,3.2-4.2,1.3-6c-0.6-0.6-1.5-0.6-4.7-0.6
	c0,0-0.1-1.2-5.1-2.4C30.1,5.7,6.2,0.6,6.2,0.6z M34.3,9.9c-0.9,0.3-1.7,0.5-2.6,0.6c-0.5,0-0.8,0-0.8,0.2s0.7,0.2,1,0.2
	c1.2,0,5.8-0.3,6.8-0.2c0.9,0.1-0.1,1.8-0.4,2.9c-0.1,0.4,0.2,0.2,0.3,0c0.3-0.5,1.2-2.2,1.3-2.9c0.2-1.3-0.8-1.5-2.3-1.5h-2.4
	c-0.2,0-0.2,0.1-0.3,0.2C34.8,9.6,34.6,9.8,34.3,9.9z M19.4,19.6c3.7-1.8,6.3-3,9.4-4c1.8-0.7,3.6-1.2,5.4-1.6
	c1.5-0.3,3.4-0.6,3.6-0.8c0.4-0.2-0.4-0.6-2.3-0.5c-4.6,0.2-12.3,3.3-15.4,4.8l-2.7-8.3h17.4c-0.2-2-10.3-2-10.6-2H4.8L0.2,29
	L19.4,19.6"/>
<path class="st0" d="M72.7,0.2h5.8l-3.3,15.6c-0.5,2.3-1.3,4.3-2.3,6c-1,1.7-2.2,3-3.5,4.1s-2.7,1.8-4.1,2.3S62.5,29,61.2,29h-3.3
	c-1,0-2-0.2-3-0.6s-2-1-2.9-1.7c-0.9-0.8-1.6-1.8-2.2-3.1c-0.6-1.2-0.9-2.7-0.9-4.5c0-0.6,0-1.1,0.1-1.7s0.1-1.2,0.3-1.8l3.3-15.4
	h5.9l-3.2,15.1c-0.3,1.2-0.4,2.3-0.4,3.3c0,1.9,0.5,3.3,1.4,4.1c0.9,0.8,2.3,1.3,4,1.3h0.3c2.2,0,4.1-0.7,5.7-2
	c1.6-1.4,2.7-3.6,3.4-6.7L72.7,0.2z"/>
<path class="st0" d="M76.6,29l1.1-5h11.8c1.4,0,2.3-0.7,2.6-2c0-0.4-0.1-0.8-0.3-1c-0.2-0.3-0.3-0.5-0.5-0.8l0,0l-8.5-8.7
	c-0.5-0.5-0.9-1.2-1.1-1.9c-0.2-0.8-0.3-1.4-0.3-2.1c0-0.2,0-0.4,0-0.6c0-0.1,0-0.3,0.1-0.4V6.4C81.6,5,82,4,82.7,3.1
	c0.6-0.8,1.3-1.5,2.1-1.9c0.8-0.4,1.6-0.7,2.5-0.9c0.9-0.1,1.7-0.2,2.4-0.2h12.6l-1.1,5.1H89.7c-0.6,0-1.1,0.1-1.6,0.4
	s-0.8,0.6-0.9,0.9L87,7V6.9V7c0,0.3,0.1,0.6,0.3,0.9c0.2,0.4,0.5,0.7,0.9,1.2c0.4,0.4,0.8,0.9,1.3,1.4s1,1,1.5,1.5
	c0.8,0.7,1.5,1.5,2.3,2.3s1.5,1.6,2.2,2.5c0.7,0.8,1.2,1.7,1.6,2.6s0.6,1.8,0.6,2.7c0,0.2,0,0.4,0,0.6s0,0.3-0.1,0.5
	c-0.2,0.7-0.4,1.5-0.8,2.2s-0.8,1.3-1.4,1.9c-0.5,0.6-1.2,1-1.9,1.4C93,28.8,92.2,29,91.3,29H76.6z"/>
<path class="st0" d="M111.5,5.2l-5,23.7h-5.8l6.2-28.8h13.6c2.8,0,4.8,0.6,6.1,1.8c1.3,1.2,1.9,2.9,1.9,5c0,0.8-0.1,1.7-0.3,2.5
	c-0.3,1.6-1,2.9-2,4.1s-2.3,2.2-3.7,3c-1.4,0.8-2.9,1.5-4.5,1.9s-3.1,0.7-4.4,0.7l-0.5-5.1c1.3,0,2.5-0.1,3.6-0.4
	c1.1-0.3,2.1-0.6,2.9-1.1s1.5-1,2-1.6s0.8-1.2,1-1.9l0,0c0.1-0.4,0.1-0.7,0.1-1c0-0.6-0.1-1-0.3-1.4c-0.2-0.4-0.5-0.6-0.8-0.8
	c-0.3-0.2-0.6-0.3-0.9-0.4s-0.5-0.1-0.7-0.1L111.5,5.2L111.5,5.2z"/>
<path class="st0" d="M127.2,29l1.1-5H140c1.4,0,2.3-0.7,2.6-2c0-0.4-0.1-0.8-0.3-1c-0.2-0.3-0.3-0.5-0.5-0.8l0,0l-8.5-8.7
	c-0.5-0.5-0.9-1.2-1.1-1.9c-0.2-0.8-0.3-1.4-0.3-2.1c0-0.2,0-0.4,0-0.6c0-0.1,0-0.3,0.1-0.4V6.4c0.3-1.3,0.7-2.4,1.3-3.2
	s1.3-1.5,2.1-1.9s1.6-0.7,2.5-0.9c0.9-0.1,1.7-0.2,2.4-0.2h12.6l-1.1,5.1h-11.5c-0.6,0-1.1,0.1-1.6,0.4s-0.8,0.6-0.9,0.9L137.6,7
	V6.9V7c0,0.3,0.1,0.6,0.3,0.9c0.2,0.4,0.5,0.7,0.9,1.2c0.4,0.4,0.8,0.9,1.3,1.4s1,1,1.5,1.5c0.8,0.7,1.6,1.5,2.3,2.3
	c0.8,0.8,1.5,1.6,2.2,2.5c0.7,0.8,1.2,1.7,1.6,2.6c0.4,0.9,0.6,1.8,0.6,2.7c0,0.2,0,0.4,0,0.6s0,0.3-0.1,0.5
	c-0.2,0.7-0.4,1.5-0.8,2.2c-0.4,0.7-0.8,1.3-1.4,1.9c-0.5,0.6-1.2,1-1.9,1.4c-0.7,0.3-1.5,0.5-2.4,0.5h-14.5L127.2,29L127.2,29z"/>
<path class="st0" d="M159.7,2.5c0,1.5-1.2,2.7-2.7,2.7s-2.7-1.2-2.7-2.7s1.2-2.7,2.7-2.7l0,0C158.4-0.2,159.7,1,159.7,2.5L159.7,2.5
	z M154.7,2.5c0,1.3,0.9,2.3,2.2,2.3s2.3-0.9,2.3-2.2c0-0.1,0-0.1,0-0.2c0-1.3-0.9-2.3-2.2-2.3s-2.3,0.9-2.3,2.2
	C154.7,2.4,154.7,2.5,154.7,2.5z M156.4,4.1H156V1h1.2c0.7,0,1,0.3,1,0.9c0,0.5-0.3,0.8-0.8,0.9l0.9,1.4H158l-0.9-1.4h-0.6
	L156.4,4.1L156.4,4.1z M156.9,2.3c0.5,0,0.9,0,0.9-0.6c0-0.4-0.4-0.5-0.7-0.5h-0.7v1.1H156.9z"/>
<g>
	<path class="st1" d="M12,39c-0.2,0.9-0.5,1.7-0.9,2.4c-0.4,0.7-0.8,1.2-1.3,1.6c-0.5,0.4-1,0.7-1.6,0.9c-0.6,0.2-1.2,0.3-1.8,0.3
		H0.5l2.5-11.5h5.8c0.4,0,0.9,0.1,1.3,0.2c0.4,0.1,0.8,0.4,1.2,0.7c0.3,0.3,0.6,0.7,0.8,1.2c0.2,0.5,0.3,1.1,0.3,1.8
		c0,0.2,0,0.5,0,0.7c0,0.2-0.1,0.5-0.1,0.8L12,39z M10,37.5c0-0.2,0-0.3,0-0.5c0-0.4-0.1-0.7-0.2-1c-0.1-0.3-0.3-0.5-0.5-0.7
		S8.9,35,8.6,34.9s-0.6-0.1-1-0.1H4.8l-1.6,7.5h2.7c0.4,0,0.9-0.1,1.3-0.2c0.4-0.1,0.8-0.3,1.1-0.6c0.3-0.3,0.6-0.6,0.9-1.1
		c0.3-0.4,0.4-1,0.6-1.6l0.1-0.6C9.9,37.9,10,37.6,10,37.5z"/>
	<path class="st1" d="M16.5,44.3l0.9-4.5l-2.8-7.1h2.5l1.9,4.7l3.8-4.7h2.8l-5.9,7.1l-0.9,4.4H16.5z"/>
	<path class="st1" d="M35.3,44.3h-2.6l-3.2-7.6l-1.6,7.6h-2.3L28,32.8h2.5l3.2,7.8l1.7-7.8h2.3L35.3,44.3z"/>
	<path class="st1" d="M44.1,32.8H47l1.8,10.8v0.2c0,0.1-0.1,0.2-0.2,0.3c-0.1,0.1-0.2,0.2-0.2,0.2h-6.8l1.1-2h3.5l-1-6.7l-4.8,8.7
		h-2.5L44.1,32.8z"/>
	<path class="st1" d="M65.6,32.8l-2.5,11.5h-2.3l1.4-6.6l-4,6.6h-1.7l-1.3-6.9l-1.5,6.9h-2.3l2.5-11.5h2.8l1.5,7.6l4.5-7.6H65.6z"/>
	<path class="st1" d="M70.9,32.8l-2.3,11.5h-2.3l2.3-11.5H70.9z"/>
	<path class="st1" d="M75.1,38.9c0,0.2-0.1,0.4-0.1,0.5c0,0.1,0,0.3,0,0.3s0,0.2,0,0.3c0,0.8,0.2,1.4,0.7,1.7s1,0.5,1.7,0.5h4
		l-0.4,2h-4.8c-0.4,0-0.8-0.1-1.2-0.2c-0.4-0.1-0.8-0.4-1.2-0.7c-0.3-0.3-0.6-0.7-0.9-1.2s-0.3-1.1-0.3-1.8c0-0.5,0.1-0.9,0.2-1.4
		L73,38c0.2-0.9,0.5-1.7,0.9-2.4c0.4-0.7,0.9-1.2,1.4-1.6c0.5-0.4,1.1-0.7,1.6-0.9s1.1-0.3,1.7-0.3h4.8l-0.4,2h-4
		c-0.4,0-0.8,0.1-1.2,0.2c-0.4,0.1-0.8,0.3-1.1,0.6c-0.3,0.3-0.6,0.6-0.9,1.1c-0.3,0.4-0.4,1-0.6,1.6C75.2,38.5,75.1,38.7,75.1,38.9
		z"/>
	<path class="st1" d="M93.2,44.3l2.5-11.5h5.5c1,0,1.8,0.2,2.4,0.6c0.6,0.4,0.8,1.1,0.8,2c0,0.2,0,0.4,0,0.6c0,0.2,0,0.4-0.1,0.5
		c-0.1,0.5-0.2,0.9-0.5,1.3c-0.2,0.4-0.5,0.7-0.8,1s-0.6,0.5-1,0.8c-0.4,0.2-0.7,0.4-1.1,0.5l2,4.4h-2.4L98,38.5
		c0.2-0.1,0.3-0.2,0.4-0.2c0.1,0,0.2,0,0.2,0c0.8,0,1.6-0.1,2.1-0.4c0.6-0.3,1-0.8,1.2-1.5v0c0-0.1,0.1-0.3,0.1-0.4
		c0-0.2,0-0.4-0.1-0.6c-0.1-0.1-0.2-0.3-0.3-0.3s-0.2-0.1-0.4-0.2c-0.1,0-0.2,0-0.3,0h-3.3l-2,9.5H93.2z"/>
	<path class="st1" d="M110.2,44.3c-0.4,0-0.9-0.1-1.3-0.3c-0.5-0.2-0.9-0.4-1.2-0.8c-0.4-0.4-0.7-0.8-0.9-1.3
		c-0.2-0.5-0.4-1.1-0.4-1.8c0-0.2,0-0.5,0-0.7s0-0.4,0.1-0.6v0l0.2-0.8c0.2-0.9,0.5-1.7,0.9-2.4s0.9-1.2,1.5-1.7s1.1-0.8,1.7-1
		c0.6-0.2,1.2-0.3,1.7-0.3h1.7c0.4,0,0.8,0.1,1.3,0.3c0.4,0.2,0.9,0.4,1.2,0.8c0.4,0.3,0.7,0.8,0.9,1.3c0.2,0.5,0.4,1.1,0.4,1.8
		c0,0.2,0,0.4,0,0.6c0,0.2-0.1,0.4-0.1,0.7l-0.2,0.8c-0.2,0.9-0.5,1.7-1,2.4c-0.4,0.7-0.9,1.2-1.5,1.7c-0.6,0.4-1.1,0.8-1.7,1
		c-0.6,0.2-1.2,0.3-1.7,0.3H110.2z M115.6,38.1c0.1-0.3,0.1-0.6,0.1-1c0-0.4-0.1-0.8-0.2-1.1s-0.3-0.5-0.5-0.7
		c-0.2-0.2-0.5-0.3-0.8-0.4c-0.3-0.1-0.6-0.1-1-0.1H113c-0.4,0-0.8,0.1-1.2,0.2c-0.4,0.1-0.8,0.3-1.2,0.6c-0.4,0.3-0.7,0.6-1,1.1
		c-0.3,0.4-0.5,1-0.6,1.6c-0.1,0.5-0.2,0.9-0.2,1.2c0,0.2-0.1,0.5-0.1,0.6c0,0.8,0.2,1.4,0.7,1.8s1,0.5,1.8,0.5h0.3
		c0.4,0,0.9-0.1,1.3-0.2c0.4-0.1,0.8-0.3,1.2-0.6c0.4-0.3,0.7-0.6,0.9-1.1c0.3-0.4,0.5-1,0.6-1.6L115.6,38.1L115.6,38.1z"/>
	<path class="st1" d="M130.3,32.8h2.3l-1.3,6.3c-0.2,0.9-0.5,1.7-0.9,2.4c-0.4,0.7-0.9,1.2-1.4,1.6c-0.5,0.4-1.1,0.7-1.7,0.9
		s-1.1,0.3-1.7,0.3h-1.3c-0.4,0-0.8-0.1-1.2-0.2c-0.4-0.1-0.8-0.4-1.2-0.7c-0.3-0.3-0.6-0.7-0.9-1.2s-0.3-1.1-0.3-1.8
		c0-0.2,0-0.5,0-0.7c0-0.2,0.1-0.5,0.1-0.7l1.3-6.2h2.4l-1.3,6.1c-0.1,0.5-0.2,0.9-0.2,1.3c0,0.8,0.2,1.3,0.6,1.6
		c0.4,0.3,0.9,0.5,1.6,0.5h0.1c0.9,0,1.6-0.3,2.3-0.8c0.6-0.5,1.1-1.4,1.3-2.7L130.3,32.8z"/>
	<path class="st1" d="M144.7,34.8h-3.6l-2,9.5h-2.3l2-9.5h-3.6l0.4-2h9.4L144.7,34.8z"/>
	<path class="st1" d="M150.4,32.8l-2.3,11.5h-2.3l2.3-11.5H150.4z"/>
	<path class="st1" d="M160.9,44.3h-2.6l-3.2-7.6l-1.6,7.6h-2.3l2.5-11.5h2.5l3.2,7.8l1.7-7.8h2.3L160.9,44.3z"/>
	<path class="st1" d="M167.3,40c0,0.8,0.2,1.4,0.7,1.7c0.4,0.4,1,0.5,1.7,0.5h2.6l0.6-2.6h-2.6l0.8-2h3.3c0.4,0,0.7,0.1,0.8,0.4
		c0.2,0.2,0.2,0.5,0.2,0.8c0,0.1,0,0.2,0,0.3c0,0,0,0,0,0.1v0l-0.8,3.7c-0.1,0.4-0.3,0.7-0.6,1c-0.3,0.3-0.6,0.4-1,0.4h-4.4
		c-0.5,0-0.9-0.1-1.3-0.2c-0.4-0.1-0.8-0.4-1.2-0.7c-0.3-0.3-0.6-0.7-0.8-1.2c-0.2-0.5-0.3-1.1-0.3-1.7c0-0.1,0-0.2,0-0.4
		c0-0.1,0-0.3,0.1-0.5c0-0.2,0.1-0.4,0.1-0.6c0-0.2,0.1-0.5,0.2-0.9c0.2-0.9,0.5-1.7,0.9-2.4c0.4-0.7,0.9-1.2,1.4-1.6
		c0.5-0.4,1.1-0.7,1.6-0.9s1.1-0.3,1.7-0.3h4.8l-0.4,2h-4c-0.4,0-0.8,0.1-1.2,0.2c-0.4,0.1-0.8,0.3-1.1,0.6
		c-0.3,0.3-0.6,0.6-0.9,1.1c-0.3,0.4-0.4,1-0.6,1.6l-0.1,0.6c0,0.2-0.1,0.5-0.1,0.6C167.3,39.6,167.3,39.8,167.3,40z"/>
	<path class="st1" d="M198,34.8h-3.6l-2,9.5h-2.3l2-9.5h-3.6l0.4-2h9.4L198,34.8z"/>
	<path class="st1" d="M203.1,44.3c-0.4,0-0.9-0.1-1.3-0.3c-0.4-0.2-0.9-0.4-1.2-0.8c-0.4-0.4-0.7-0.8-0.9-1.3
		c-0.2-0.5-0.4-1.1-0.4-1.8c0-0.2,0-0.5,0-0.7s0-0.4,0.1-0.6v0l0.2-0.8c0.2-0.9,0.5-1.7,1-2.4c0.4-0.7,0.9-1.2,1.5-1.7
		c0.5-0.4,1.1-0.8,1.7-1c0.6-0.2,1.2-0.3,1.7-0.3h1.7c0.4,0,0.8,0.1,1.3,0.3c0.5,0.2,0.9,0.4,1.2,0.8c0.4,0.3,0.7,0.8,0.9,1.3
		c0.2,0.5,0.4,1.1,0.4,1.8c0,0.2,0,0.4,0,0.6s-0.1,0.4-0.1,0.7l-0.2,0.8c-0.2,0.9-0.5,1.7-1,2.4c-0.4,0.7-0.9,1.2-1.5,1.7
		c-0.6,0.4-1.1,0.8-1.7,1s-1.2,0.3-1.7,0.3H203.1z M208.5,38.1c0.1-0.3,0.1-0.6,0.1-1c0-0.4-0.1-0.8-0.2-1.1
		c-0.1-0.3-0.3-0.5-0.5-0.7s-0.5-0.3-0.8-0.4s-0.6-0.1-0.9-0.1h-0.4c-0.4,0-0.8,0.1-1.2,0.2c-0.4,0.1-0.8,0.3-1.2,0.6
		c-0.4,0.3-0.7,0.6-0.9,1.1c-0.3,0.4-0.5,1-0.6,1.6c-0.1,0.5-0.2,0.9-0.2,1.2c0,0.2-0.1,0.5-0.1,0.6c0,0.8,0.2,1.4,0.7,1.8
		c0.4,0.4,1,0.5,1.8,0.5h0.3c0.4,0,0.9-0.1,1.3-0.2c0.4-0.1,0.8-0.3,1.2-0.6s0.7-0.6,0.9-1.1c0.3-0.4,0.5-1,0.6-1.6L208.5,38.1
		L208.5,38.1z"/>
	<path class="st1" d="M217.4,44.3c-0.4,0-0.9-0.1-1.3-0.3c-0.4-0.2-0.9-0.4-1.2-0.8c-0.4-0.4-0.7-0.8-0.9-1.3
		c-0.2-0.5-0.4-1.1-0.4-1.8c0-0.2,0-0.5,0-0.7s0-0.4,0.1-0.6v0l0.2-0.8c0.2-0.9,0.5-1.7,1-2.4c0.4-0.7,0.9-1.2,1.5-1.7
		c0.5-0.4,1.1-0.8,1.7-1c0.6-0.2,1.2-0.3,1.7-0.3h1.7c0.4,0,0.8,0.1,1.3,0.3c0.5,0.2,0.9,0.4,1.2,0.8c0.4,0.3,0.7,0.8,0.9,1.3
		c0.2,0.5,0.4,1.1,0.4,1.8c0,0.2,0,0.4,0,0.6s-0.1,0.4-0.1,0.7l-0.2,0.8c-0.2,0.9-0.5,1.7-1,2.4c-0.4,0.7-0.9,1.2-1.5,1.7
		c-0.6,0.4-1.1,0.8-1.7,1s-1.2,0.3-1.7,0.3H217.4z M222.8,38.1c0.1-0.3,0.1-0.6,0.1-1c0-0.4-0.1-0.8-0.2-1.1
		c-0.1-0.3-0.3-0.5-0.5-0.7s-0.5-0.3-0.8-0.4s-0.6-0.1-0.9-0.1h-0.4c-0.4,0-0.8,0.1-1.2,0.2c-0.4,0.1-0.8,0.3-1.2,0.6
		c-0.4,0.3-0.7,0.6-0.9,1.1c-0.3,0.4-0.5,1-0.6,1.6c-0.1,0.5-0.2,0.9-0.2,1.2c0,0.2-0.1,0.5-0.1,0.6c0,0.8,0.2,1.4,0.7,1.8
		c0.4,0.4,1,0.5,1.8,0.5h0.3c0.4,0,0.9-0.1,1.3-0.2c0.4-0.1,0.8-0.3,1.2-0.6s0.7-0.6,0.9-1.1c0.3-0.4,0.5-1,0.6-1.6L222.8,38.1
		L222.8,38.1z"/>
	<path class="st1" d="M229.6,42.3h5.9l-0.7,2h-8l2.4-11.5h2.3L229.6,42.3z"/>
</g>
<g>
	<path class="st2" d="M184,16.3c-0.5,2.4-1.2,4.4-2.1,6.1c-0.9,1.7-2,3.1-3.2,4.2c-1.2,1.1-2.6,1.9-4,2.4c-1.5,0.5-3,0.8-4.6,0.8
		h-14.6l6-29.5h14.4c1.1,0,2.1,0.2,3.2,0.6c1.1,0.4,2,1,2.8,1.8c0.8,0.8,1.5,1.8,2.1,3.1c0.5,1.3,0.8,2.8,0.8,4.5
		c0,0.6,0,1.2-0.1,1.8c0,0.6-0.1,1.3-0.3,2L184,16.3z M179,12.3c0.1-0.5,0.1-0.9,0.1-1.2c0-1-0.2-1.9-0.5-2.6
		c-0.3-0.7-0.7-1.3-1.2-1.8c-0.5-0.5-1.2-0.8-1.9-1c-0.7-0.2-1.5-0.3-2.4-0.3h-6.9l-3.9,19.1h6.7c1.1,0,2.1-0.2,3.1-0.5
		c1-0.3,1.9-0.9,2.7-1.6c0.8-0.7,1.5-1.7,2.2-2.8c0.6-1.1,1.1-2.5,1.4-4.1l0.4-1.6C178.8,13.4,178.9,12.8,179,12.3z"/>
	<path class="st2" d="M183.1,29.8l6.1-29.5h13.4c2.6,0,4.5,0.5,5.9,1.5c1.4,1,2,2.7,2,5.1c0,0.5,0,1-0.1,1.5c0,0.5-0.1,0.9-0.2,1.3
		c-0.2,1.2-0.6,2.3-1.1,3.2c-0.5,1-1.2,1.8-1.9,2.6c-0.7,0.7-1.6,1.4-2.5,1.9c-0.9,0.5-1.8,1-2.8,1.3l4.8,11.1h-5.8L194.9,15
		c0.4-0.3,0.7-0.5,0.9-0.6c0.2-0.1,0.4-0.1,0.6-0.1c2.1,0,3.8-0.4,5.3-1.1s2.4-2,2.9-3.9v0c0.1-0.4,0.1-0.7,0.1-1
		c0-0.6-0.1-1-0.3-1.4c-0.2-0.4-0.5-0.7-0.8-0.9s-0.6-0.4-0.9-0.4c-0.3-0.1-0.5-0.1-0.7-0.1h-8.2l-5,24.3H183.1z"/>
	<path class="st2" d="M234.7,5.5h-8.8L221,29.8h-5.7l5-24.3h-8.8l1.1-5.2h23.3L234.7,5.5z"/>
</g>
</svg>
