<?xml version="1.0" encoding="utf-8"?>
<!-- Generator: Adobe Illustrator 22.1.0, SVG Export Plug-In . SVG Version: 6.00 Build 0)  -->
<svg version="1.1" id="Layer_1" xmlns="http://www.w3.org/2000/svg" xmlns:xlink="http://www.w3.org/1999/xlink" x="0px" y="0px"
	 viewBox="0 0 236 44" style="enable-background:new 0 0 236 44;" xml:space="preserve">
<style type="text/css">
	.st0{fill:#333366;}
	.st1{fill:#999999;}
	.st2{fill:#595959;}
</style>
<g>
	<path class="st0" d="M6.2,0.6h40.4L40.6,29H3c0,0,35.8-14,36.2-14.3c0,0,3.2-4.2,1.3-6c-0.6-0.6-1.5-0.6-4.7-0.6
		c0,0-0.1-1.2-5.1-2.4C30.1,5.7,6.2,0.6,6.2,0.6z M34.3,9.9c-0.9,0.3-1.7,0.5-2.6,0.6c-0.5,0-0.8,0-0.8,0.2c0,0.2,0.7,0.2,1,0.2
		c1.2,0,5.8-0.3,6.8-0.2c0.9,0.1-0.1,1.8-0.4,2.9c-0.1,0.4,0.2,0.2,0.3,0c0.3-0.5,1.2-2.2,1.3-2.9c0.2-1.3-0.8-1.5-2.3-1.5h-2.4
		c-0.2,0-0.2,0.1-0.3,0.2C34.8,9.6,34.6,9.8,34.3,9.9z M19.4,19.6c3.7-1.8,6.3-3,9.4-4c1.8-0.7,3.6-1.2,5.4-1.6
		c1.5-0.3,3.4-0.6,3.6-0.8c0.4-0.2-0.4-0.6-2.3-0.5c-4.6,0.2-12.3,3.3-15.4,4.8l-2.7-8.3h17.4c-0.2-2-10.3-2-10.6-2H4.8L0.2,29
		L19.4,19.6"/>
	<path class="st0" d="M72.7,0.2h5.8l-3.3,15.6c-0.5,2.3-1.3,4.3-2.3,6c-1,1.7-2.2,3-3.5,4.1c-1.3,1.1-2.7,1.8-4.1,2.3
		c-1.4,0.5-2.8,0.8-4.1,0.8h-3.3c-1,0-2-0.2-3-0.6c-1-0.4-2-1-2.9-1.7c-0.9-0.8-1.6-1.8-2.2-3.1c-0.6-1.2-0.9-2.7-0.9-4.5
		c0-0.6,0-1.1,0.1-1.7c0.1-0.6,0.1-1.2,0.3-1.8l3.3-15.4h5.9l-3.2,15.1c-0.3,1.2-0.4,2.3-0.4,3.3c0,1.9,0.5,3.3,1.4,4.1
		c0.9,0.8,2.3,1.3,4,1.3h0.3c2.2,0,4.1-0.7,5.7-2c1.6-1.4,2.7-3.6,3.4-6.7L72.7,0.2z"/>
	<path class="st0" d="M76.6,29l1.1-5h11.8c1.4,0,2.3-0.7,2.6-2c0-0.4-0.1-0.8-0.3-1c-0.2-0.3-0.3-0.5-0.5-0.8v0l-8.5-8.7
		c-0.5-0.5-0.9-1.2-1.1-1.9c-0.2-0.8-0.3-1.4-0.3-2.1c0-0.2,0-0.4,0-0.6c0-0.1,0-0.3,0.1-0.4V6.4C81.6,5,82,4,82.7,3.1
		c0.6-0.8,1.3-1.5,2.1-1.9c0.8-0.4,1.6-0.7,2.5-0.9c0.9-0.1,1.7-0.2,2.4-0.2h12.6l-1.1,5.1H89.7c-0.6,0-1.1,0.1-1.6,0.4
		c-0.5,0.3-0.8,0.6-0.9,0.9L87,7l0-0.1V7c0,0.3,0.1,0.6,0.3,0.9c0.2,0.4,0.5,0.7,0.9,1.2c0.4,0.4,0.8,0.9,1.3,1.4
		c0.5,0.5,1,1,1.5,1.5c0.8,0.7,1.5,1.5,2.3,2.3c0.8,0.8,1.5,1.6,2.2,2.5c0.7,0.8,1.2,1.7,1.6,2.6c0.4,0.9,0.6,1.8,0.6,2.7
		c0,0.2,0,0.4,0,0.6c0,0.2,0,0.3-0.1,0.5c-0.2,0.7-0.4,1.5-0.8,2.2c-0.4,0.7-0.8,1.3-1.4,1.9c-0.5,0.6-1.2,1-1.9,1.4
		C93,28.8,92.2,29,91.3,29H76.6z"/>
	<path class="st0" d="M111.5,5.2l-5,23.7h-5.8l6.2-28.8h13.6c2.8,0,4.8,0.6,6.1,1.8c1.3,1.2,1.9,2.9,1.9,5c0,0.8-0.1,1.7-0.3,2.5
		c-0.3,1.6-1,2.9-2,4.1c-1,1.2-2.3,2.2-3.7,3c-1.4,0.8-2.9,1.5-4.5,1.9c-1.6,0.4-3.1,0.7-4.4,0.7l-0.5-5.1c1.3,0,2.5-0.1,3.6-0.4
		c1.1-0.3,2.1-0.6,2.9-1.1c0.8-0.5,1.5-1,2-1.6c0.5-0.6,0.8-1.2,1-1.9V9c0.1-0.4,0.1-0.7,0.1-1c0-0.6-0.1-1-0.3-1.4
		c-0.2-0.4-0.5-0.6-0.8-0.8c-0.3-0.2-0.6-0.3-0.9-0.4c-0.3-0.1-0.5-0.1-0.7-0.1H111.5z"/>
	<path class="st0" d="M127.2,29l1.1-5H140c1.4,0,2.3-0.7,2.6-2c0-0.4-0.1-0.8-0.3-1c-0.2-0.3-0.3-0.5-0.5-0.8v0l-8.5-8.7
		c-0.5-0.5-0.9-1.2-1.1-1.9c-0.2-0.8-0.3-1.4-0.3-2.1c0-0.2,0-0.4,0-0.6c0-0.1,0-0.3,0.1-0.4V6.4c0.3-1.3,0.7-2.4,1.3-3.2
		c0.6-0.8,1.3-1.5,2.1-1.9c0.8-0.4,1.6-0.7,2.5-0.9c0.9-0.1,1.7-0.2,2.4-0.2h12.6l-1.1,5.1h-11.5c-0.6,0-1.1,0.1-1.6,0.4
		c-0.5,0.3-0.8,0.6-0.9,0.9L137.6,7l0-0.1V7c0,0.3,0.1,0.6,0.3,0.9c0.2,0.4,0.5,0.7,0.9,1.2c0.4,0.4,0.8,0.9,1.3,1.4
		c0.5,0.5,1,1,1.5,1.5c0.8,0.7,1.6,1.5,2.3,2.3c0.8,0.8,1.5,1.6,2.2,2.5c0.7,0.8,1.2,1.7,1.6,2.6c0.4,0.9,0.6,1.8,0.6,2.7
		c0,0.2,0,0.4,0,0.6c0,0.2,0,0.3-0.1,0.5c-0.2,0.7-0.4,1.5-0.8,2.2c-0.4,0.7-0.8,1.3-1.4,1.9c-0.5,0.6-1.2,1-1.9,1.4
		c-0.7,0.3-1.5,0.5-2.4,0.5H127.2z"/>
	<path class="st0" d="M159.7,2.5c0,1.5-1.2,2.7-2.7,2.7s-2.7-1.2-2.7-2.7s1.2-2.7,2.7-2.7l0,0C158.4-0.2,159.7,1,159.7,2.5
		C159.7,2.5,159.7,2.5,159.7,2.5z M154.7,2.5c0,1.3,0.9,2.3,2.2,2.3c1.3,0,2.3-0.9,2.3-2.2c0-0.1,0-0.1,0-0.2c0-1.3-0.9-2.3-2.2-2.3
		c-1.3,0-2.3,0.9-2.3,2.2C154.7,2.4,154.7,2.5,154.7,2.5z M156.4,4.1H156V1h1.2c0.7,0,1,0.3,1,0.9c0,0.5-0.3,0.8-0.8,0.9l0.9,1.4
		H158l-0.9-1.4h-0.6L156.4,4.1L156.4,4.1z M156.9,2.3c0.5,0,0.9,0,0.9-0.6c0-0.4-0.4-0.5-0.7-0.5h-0.7v1.1L156.9,2.3z"/>
	<g>
		<path class="st1" d="M164.7,0.3c0.4,0,0.7,0,1.1,0c0.4,0,0.8,0,1.1,0c0.4,0,0.6,0,0.8,0c1.1,0,2.2,0,3,0c0.9,0,1.8,0,2.6,0.1
			c0.9,0,1.8,0.1,2.8,0.1c1,0.1,1.8,0.1,2.4,0.2c0.7,0.1,1.7,0.5,3.1,1.3c1.4,0.8,2.4,1.6,3,2.2c0.5,0.6,0.9,1.4,1.2,2.4
			c0.3,0.9,0.4,2.2,0.4,3.7v1c-0.1,0.7-0.1,1.5-0.2,2.4c-0.1,0.9-0.1,1.5-0.2,1.9c-0.1,0.4-0.1,0.8-0.3,1.1c-0.2,1-0.8,2.3-1.6,3.9
			c-0.9,1.6-1.9,3-3.1,4.3c-1.2,1.3-2.5,2.4-4,3.2c-1.4,0.9-3,1.3-4.6,1.3h-15.8l5.9-29C163.6,0.3,164.3,0.3,164.7,0.3z M162.6,25.7
			h1.4c0.3,0,0.6,0,0.9,0c0.3,0,0.6,0,0.8,0c0.3,0,0.4,0,0.5,0c4.2,0,7.6-1.1,10-3.3c2.4-2.2,4-5.4,4.8-9.5c0,0,0-0.2,0-0.6
			c0-0.4,0-0.6,0-0.8c0-1.5-0.3-2.7-0.8-3.7c-0.6-1-1.3-1.7-2.2-2.2c-0.9-0.5-1.9-0.9-3.1-1.1c-1.2-0.2-2.4-0.3-3.6-0.3
			c-0.1,0-0.4,0-0.8,0c-0.4,0-1.5,0-3.5,0L163,23.9L162.6,25.7z"/>
		<path class="st1" d="M187.5,28.7c0-0.1,0-0.2,0-0.2c0-0.1,0-0.1,0-0.2c0-0.1,0-0.2,0-0.2c0-0.2,0.1-0.4,0.2-0.7
			c0.1-0.3,0.2-0.6,0.3-0.8c0.1-0.3,0.2-0.5,0.2-0.7c0.1-0.2,0.1-0.3,0.2-0.3h10.8c0.4,0,0.9-0.1,1.2-0.2c0.4-0.2,0.7-0.5,0.9-0.9
			c0.2-0.4,0.4-0.8,0.5-1.2c0.1-0.4,0.2-0.8,0.4-1.3c-0.1-0.5-0.2-0.9-0.3-1.2c-0.1-0.3-0.2-0.6-0.5-0.9l-8.1-8.2
			c-0.4-0.4-0.6-0.7-0.8-1c-0.2-0.3-0.3-0.6-0.4-0.9c-0.1-0.3-0.1-0.6-0.2-1c0-0.3,0-0.7,0-1.2c0-1.3,0.2-2.3,0.7-3.2
			c0.5-0.9,1.1-1.6,1.9-2.2c0.8-0.6,1.7-1,2.8-1.3c1-0.3,2.1-0.5,3.1-0.6h9.5h1.4l-0.5,3.2l-1.3,0.7h-9c-0.3,0-0.6,0.1-0.9,0.4
			c-0.3,0.2-0.5,0.5-0.7,0.9c-0.2,0.3-0.4,0.7-0.5,1.1c-0.1,0.4-0.2,0.7-0.2,0.9c0,0.7,0.3,1.4,0.8,2.1c0.5,0.7,1.1,1.4,1.9,2.1
			c0.8,0.7,1.6,1.5,2.5,2.3c0.9,0.8,1.7,1.6,2.5,2.4c0.8,0.8,1.4,1.7,1.9,2.6c0.5,0.9,0.8,1.9,0.8,2.9c0,1.3-0.3,2.4-0.8,3.3
			c-0.5,0.9-1.2,1.7-2.1,2.5c-0.9,0.8-1.9,1.2-2.9,1.4c-1.1,0.2-2.2,0.3-3.5,0.3c-1.2,0-2.4,0-3.5,0c-1.1,0-2.1,0-3,0l-4.5-0.1
			l-0.7-0.4C187.6,28.8,187.5,28.8,187.5,28.7z"/>
		<path class="st1" d="M216.8,0.2h10.6c1.8,0.1,3.2,0.3,4.2,0.6c1,0.3,1.8,0.6,2.6,1c0.7,0.4,1.3,1,1.7,1.8c0.4,0.8,0.6,1.7,0.6,2.9
			c0,1.7-0.3,3.3-0.9,4.7c-0.6,1.4-1.4,2.6-2.5,3.5c-1.1,1-2.8,1.9-5.4,2.9l5.1,11.7h-5.2l-5.4-13.4l0.2-1.2
			c0.8-0.1,1.8-0.3,2.9-0.6c1.1-0.2,2-0.6,2.8-1c0.8-0.4,1.4-1,1.9-1.8c0.5-0.8,0.8-1.8,0.8-3.1c0-0.3,0-0.6-0.1-1
			c-0.1-0.4-0.2-0.8-0.4-1.2c-0.2-0.4-0.4-0.7-0.7-1c-0.3-0.3-0.6-0.4-1-0.4h-7.1l-5.9,24.6h-4.5l-0.5-0.1L216.8,0.2z"/>
	</g>
	<g>
		<path class="st2" d="M4.2,30.7c0.2,0,0.3,0,0.5,0c0.2,0,0.4,0,0.5,0s0.3,0,0.3,0c0.5,0,1,0,1.4,0s0.8,0,1.2,0c0.4,0,0.8,0,1.3,0.1
			s0.8,0.1,1.1,0.1c0.3,0,0.8,0.2,1.4,0.6s1.1,0.7,1.4,1c0.2,0.3,0.4,0.7,0.6,1.1s0.2,1,0.2,1.7v0.5c0,0.3-0.1,0.7-0.1,1.1
			c0,0.4-0.1,0.7-0.1,0.9c0,0.2-0.1,0.4-0.1,0.5c-0.1,0.5-0.4,1.1-0.8,1.8c-0.4,0.7-0.9,1.4-1.4,2c-0.5,0.6-1.2,1.1-1.8,1.5
			c-0.7,0.4-1.4,0.6-2.1,0.6H0.5l2.7-13.4C3.7,30.7,4,30.7,4.2,30.7z M3.2,42.4h0.6c0.1,0,0.3,0,0.4,0c0.1,0,0.3,0,0.4,0
			c0.1,0,0.2,0,0.2,0c1.9,0,3.5-0.5,4.6-1.5c1.1-1,1.8-2.5,2.2-4.4c0,0,0-0.1,0-0.3c0-0.2,0-0.3,0-0.4c0-0.7-0.1-1.3-0.4-1.7
			c-0.3-0.4-0.6-0.8-1-1c-0.4-0.2-0.9-0.4-1.4-0.5c-0.5-0.1-1.1-0.1-1.6-0.1c-0.1,0-0.2,0-0.4,0s-0.7,0-1.6,0l-1.9,9.1L3.2,42.4z"/>
		<path class="st2" d="M16.8,44.1h-2.3l2.9-13.5h2.2C17.8,39.6,16.8,44.1,16.8,44.1z"/>
		<path class="st2" d="M29.3,36.5c1.5-0.1,2.2,0.4,2,1.3c-0.2,0.9-0.5,2-0.8,3.4c-0.3,1.3-0.6,2.1-1,2.4c-0.3,0.3-0.8,0.4-1.4,0.5
			c-0.6,0-1.1,0.1-1.5,0.1c-0.4,0-0.8,0-1.1,0c-1.3,0-2.4-0.2-3.4-0.7c-0.9-0.5-1.6-1.1-2-1.7c-0.4-0.7-0.6-1.6-0.6-2.8s0-2,0.1-2.4
			c0.1-0.4,0.3-1,0.7-1.8c0.3-0.5,0.6-0.9,0.8-1.2c0.3-0.3,0.6-0.6,0.9-0.9c0.3-0.3,0.8-0.6,1.3-0.9c0.5-0.3,1.2-0.6,2-0.8
			c0.8-0.2,2.2-0.3,4.1-0.2h0.6c0.1,0,0.1,0,0.3,0.1c0.1,0,0.2,0.1,0.4,0.1c0.1,0.1,0.2,0.1,0.3,0.2c0.1,0.1,0.1,0.1,0.1,0.2
			c0,0.1,0,0.2,0,0.3s-0.1,0.3-0.1,0.4c0,0.1-0.1,0.3-0.2,0.4c-0.1,0.1-0.1,0.2-0.2,0.2h-0.1l-2.2-0.1H28c-0.5,0-1,0.1-1.6,0.2
			c-0.6,0.1-1.1,0.4-1.6,0.7c-0.5,0.3-1,0.7-1.4,1.1c-0.4,0.4-0.7,0.8-0.8,1.2c-0.2,0.4-0.3,0.6-0.3,0.7c-0.1,0.1-0.1,0.3-0.1,0.5
			c0,0.2,0,0.7,0,1.6s0,1.3,0.1,1.5c0.1,0.2,0.2,0.4,0.3,0.7c0.1,0.3,0.3,0.5,0.5,0.7c0.2,0.2,0.4,0.4,0.6,0.5s0.6,0.2,1.1,0.3
			c1.5,0.1,2.6,0,3.3-0.2c0.3-0.6,0.5-1.8,0.7-3.6h-3l0.7-1.9H29.3z"/>
		<path class="st2" d="M34,44.1h-2.3l2.9-13.5h2.2C35,39.6,34.1,44.1,34,44.1z"/>
		<path class="st2" d="M38.8,32.4l0.6-1.8h10.7l-0.5,1.8l-4.1,0l-2.7,11.7l-2.3,0L43,32.4L38.8,32.4z"/>
		<path class="st2" d="M56.7,30.6H60L62,43.5v0.1v0.1c0,0.1-0.1,0.2-0.1,0.3c0,0.1-0.1,0.2-0.1,0.2h-7.4l-0.4,0l1-1.8l4,0l-1.2-9
			l-6,10.8h-2.3L56.7,30.6z"/>
		<path class="st2" d="M65.8,30.6l2.3,0l-2.5,11.6h6.6l-0.7,1.8H70h-1.5h-5.7L65.8,30.6z"/>
		<path class="st2" d="M83.5,43.8c0,0,0-0.1,0-0.1c0,0,0-0.1,0-0.1c0,0,0-0.1,0-0.1c0-0.1,0-0.2,0.1-0.3s0.1-0.3,0.1-0.4
			c0-0.1,0.1-0.2,0.1-0.3c0-0.1,0.1-0.1,0.1-0.1h4.9c0.2,0,0.4,0,0.6-0.1c0.2-0.1,0.3-0.2,0.4-0.4c0.1-0.2,0.2-0.4,0.2-0.5
			s0.1-0.4,0.2-0.6c-0.1-0.2-0.1-0.4-0.1-0.5c0-0.1-0.1-0.3-0.2-0.4l-3.7-3.8c-0.2-0.2-0.3-0.3-0.4-0.5s-0.2-0.3-0.2-0.4
			s-0.1-0.3-0.1-0.4c0-0.2,0-0.3,0-0.6c0-0.6,0.1-1.1,0.3-1.5s0.5-0.8,0.9-1c0.4-0.3,0.8-0.5,1.3-0.6c0.5-0.1,0.9-0.2,1.4-0.3h4.4
			h0.7l-0.2,1.5l-0.6,0.3h-4.1c-0.1,0-0.3,0.1-0.4,0.2c-0.1,0.1-0.2,0.2-0.3,0.4c-0.1,0.2-0.2,0.3-0.2,0.5c-0.1,0.2-0.1,0.3-0.1,0.4
			c0,0.3,0.1,0.7,0.4,1c0.2,0.3,0.5,0.6,0.9,1c0.4,0.3,0.7,0.7,1.2,1c0.4,0.4,0.8,0.7,1.2,1.1c0.4,0.4,0.7,0.8,0.9,1.2
			c0.2,0.4,0.3,0.9,0.3,1.3c0,0.6-0.1,1.1-0.4,1.5c-0.2,0.4-0.6,0.8-1,1.2c-0.4,0.4-0.9,0.6-1.3,0.7s-1,0.1-1.6,0.1
			c-0.6,0-1.1,0-1.6,0c-0.5,0-1,0-1.4,0l-2.1,0L83.5,43.8C83.5,43.9,83.5,43.9,83.5,43.8z"/>
		<path class="st2" d="M96,32.4l0.6-1.8h10.7l-0.5,1.8l-4.1,0l-2.7,11.7l-2.3,0l2.4-11.7L96,32.4z"/>
		<path class="st2" d="M109.9,30.6h4.9c0.8,0.1,1.5,0.1,1.9,0.3c0.5,0.1,0.8,0.3,1.2,0.5c0.3,0.2,0.6,0.5,0.8,0.8
			c0.2,0.4,0.3,0.8,0.3,1.3c0,0.8-0.1,1.5-0.4,2.2c-0.3,0.6-0.7,1.2-1.1,1.6c-0.5,0.4-1.3,0.9-2.5,1.3l2.3,5.4h-2.4l-2.5-6.2
			l0.1-0.5c0.4-0.1,0.8-0.2,1.3-0.3c0.5-0.1,0.9-0.3,1.3-0.5c0.4-0.2,0.6-0.5,0.9-0.9s0.4-0.8,0.4-1.4c0-0.1,0-0.3-0.1-0.5
			s-0.1-0.4-0.2-0.5c-0.1-0.2-0.2-0.3-0.3-0.4c-0.1-0.1-0.3-0.2-0.5-0.2h-3.3l-2.7,11.4h-2.1l-0.2,0L109.9,30.6z"/>
		<path class="st2" d="M122.2,30.6h9.2l-0.6,1.7h-0.7h-5.4h-0.6l-0.9,4.1h6l-0.5,1.8h-5.9l-0.9,4.1h6.6l-0.6,1.8l-1.6,0h-1.5H119
			L122.2,30.6z"/>
		<path class="st2" d="M133.8,30.6h9.2l-0.6,1.7h-0.7h-5.4h-0.6l-0.9,4.1h6l-0.5,1.8h-5.9l-0.9,4.1h6.6l-0.6,1.8l-1.6,0h-1.5h-5.7
			L133.8,30.6z"/>
		<path class="st2" d="M144.6,32.4l0.6-1.8h10.7l-0.5,1.8l-4.1,0l-2.7,11.7l-2.3,0l2.4-11.7L144.6,32.4z"/>
		<path class="st2" d="M168.7,30.6h4.9c0.8,0.1,1.5,0.1,1.9,0.3c0.5,0.1,0.8,0.3,1.2,0.5c0.3,0.2,0.6,0.5,0.8,0.8
			c0.2,0.4,0.3,0.8,0.3,1.3c0,0.8-0.1,1.5-0.4,2.2c-0.3,0.6-0.7,1.2-1.1,1.6c-0.5,0.4-1.3,0.9-2.5,1.3l2.3,5.4h-2.4l-2.5-6.2
			l0.1-0.5c0.4-0.1,0.8-0.2,1.3-0.3c0.5-0.1,0.9-0.3,1.3-0.5c0.4-0.2,0.6-0.5,0.9-0.9s0.4-0.8,0.4-1.4c0-0.1,0-0.3-0.1-0.5
			s-0.1-0.4-0.2-0.5c-0.1-0.2-0.2-0.3-0.3-0.4c-0.1-0.1-0.3-0.2-0.5-0.2h-3.3L168,44.1H166l-0.2,0L168.7,30.6z"/>
		<path class="st2" d="M181,30.6h9.2l-0.6,1.7h-0.7h-5.4h-0.6l-0.9,4.1h6l-0.5,1.8h-5.9l-0.9,4.1h6.6l-0.6,1.8l-1.6,0h-1.5h-5.7
			L181,30.6z"/>
		<path class="st2" d="M192.1,30.6h2.1l1.4,9.7l5.9-9.7h2.9l-8.7,13.5H195l-1.4-0.1L192.1,30.6z"/>
		<path class="st2" d="M206,44.1h-2.3l2.9-13.5h2.2C207,39.6,206,44.1,206,44.1z"/>
		<path class="st2" d="M211.6,30.6h9.2l-0.6,1.7h-0.7h-5.4h-0.6l-0.9,4.1h6l-0.5,1.8h-5.9l-0.9,4.1h6.6l-0.6,1.8l-1.6,0h-1.5h-5.7
			L211.6,30.6z"/>
		<path class="st2" d="M222.9,40.9l5.4-10.2h2.3l0.8,10.2l2.2-10.2h2.4l-3,13.4h-3.2l-1-9.8c0,0,0-0.1-0.1-0.2
			c0-0.1-0.1-0.1-0.1-0.1c0,0-1.7,3.4-4.9,10.1h-3.3c-0.2-0.2-0.2-0.3-0.2-0.4c0-0.1,0-0.1,0-0.1l2.5-13h2.3L222.9,40.9z"/>
	</g>
</g>
</svg>
