<?xml version="1.0" encoding="utf-8"?>
<!-- Generator: Adobe Illustrator 22.1.0, SVG Export Plug-In . SVG Version: 6.00 Build 0)  -->
<svg version="1.1" id="Layer_1" xmlns="http://www.w3.org/2000/svg" xmlns:xlink="http://www.w3.org/1999/xlink" x="0px" y="0px"
	 viewBox="0 0 239 44.4" style="enable-background:new 0 0 239 44.4;" xml:space="preserve">
<style type="text/css">
	.st0{fill:#333366;}
	.st1{fill:#999999;}
</style>
<g>
	<g>
		<path class="st0" d="M0.9,44.4l2.7-12.7h6c1.1,0,2,0.2,2.6,0.7c0.6,0.4,0.9,1.2,0.9,2.2c0,0.4,0,0.8-0.1,1.2l0,0
			c-0.1,0.5-0.3,1-0.5,1.4S12,38,11.7,38.3s-0.7,0.6-1.1,0.8c-0.4,0.2-0.8,0.4-1.2,0.5l2.1,4.8H8.9l-2.7-6.3
			c0.2-0.1,0.3-0.2,0.4-0.3c0.1,0,0.2,0,0.3,0c0.9,0,1.7-0.2,2.3-0.5c0.6-0.3,1.1-0.9,1.3-1.7l0,0c0-0.2,0.1-0.3,0.1-0.4
			c0-0.2,0-0.4-0.1-0.6s-0.2-0.3-0.4-0.4C9.9,34.1,9.7,34,9.6,34c-0.1,0-0.2,0-0.3,0H5.7L3.4,44.4H0.9z"/>
		<path class="st0" d="M24.5,31.7h2.6l-1.5,6.9c-0.2,1-0.6,1.9-1,2.6c-0.5,0.7-1,1.3-1.5,1.8c-0.6,0.5-1.2,0.8-1.8,1
			c-0.6,0.2-1.2,0.3-1.8,0.3H18c-0.4,0-0.9-0.1-1.3-0.2c-0.5-0.2-0.9-0.4-1.3-0.8c-0.4-0.4-0.7-0.8-1-1.3S14,40.8,14,40
			c0-0.2,0-0.5,0-0.8s0.1-0.5,0.1-0.8l1.4-6.8h2.6l-1.4,6.6c-0.1,0.5-0.2,1-0.2,1.4c0,0.8,0.2,1.4,0.6,1.8c0.4,0.4,1,0.6,1.8,0.6H19
			c1,0,1.8-0.3,2.5-0.9c0.7-0.6,1.2-1.6,1.5-3L24.5,31.7z"/>
		<path class="st0" d="M26.2,44.4l2.7-12.7h6c1.1,0,2,0.2,2.6,0.7c0.6,0.4,0.9,1.2,0.9,2.2c0,0.4,0,0.8-0.1,1.2l0,0
			c-0.1,0.5-0.3,1-0.5,1.4S37.3,38,37,38.3s-0.7,0.6-1.1,0.8c-0.4,0.2-0.8,0.4-1.2,0.5l2.1,4.8h-2.6l-2.7-6.3
			c0.2-0.1,0.3-0.2,0.4-0.3c0.1,0,0.2,0,0.3,0c0.9,0,1.7-0.2,2.3-0.5s1.1-0.9,1.3-1.7l0,0c0-0.2,0.1-0.3,0.1-0.4
			c0-0.2,0-0.4-0.1-0.6c-0.1-0.2-0.2-0.3-0.4-0.4S35.1,34,35,34s-0.2,0-0.3,0H31l-2.2,10.4H26.2z"/>
		<path class="st0" d="M44.6,31.7h3.2l1.9,11.8v0.3c0,0.1-0.1,0.2-0.2,0.4c-0.1,0.1-0.2,0.2-0.2,0.2h-7.4l1.2-2.2h3.8l-1.1-7.4
			l-5.3,9.6h-2.7L44.6,31.7z"/>
		<path class="st0" d="M53.9,42.2h6.5l-0.8,2.2h-8.8l2.7-12.7H56L53.9,42.2z"/>
		<path class="st0" d="M70.3,44.4l0.5-2.2H76c0.6,0,1-0.3,1.1-0.9c0-0.2-0.1-0.3-0.1-0.5c-0.1-0.1-0.1-0.2-0.2-0.3l0,0L73,36.7
			c-0.2-0.2-0.4-0.5-0.5-0.8s-0.1-0.6-0.1-0.9c0-0.1,0-0.2,0-0.3s0-0.1,0-0.2l0,0c0.1-0.6,0.3-1.1,0.6-1.4c0.3-0.4,0.6-0.6,0.9-0.8
			s0.7-0.3,1.1-0.4s0.7-0.1,1.1-0.1h5.5L81.1,34H76c-0.2,0-0.5,0.1-0.7,0.2c-0.2,0.1-0.4,0.3-0.4,0.4l-0.1,0.2v-0.1v0.1
			c0,0.1,0,0.3,0.1,0.4c0.1,0.2,0.2,0.3,0.4,0.5c0.2,0.2,0.4,0.4,0.6,0.6c0.2,0.2,0.4,0.4,0.7,0.7c0.3,0.3,0.7,0.7,1,1
			c0.4,0.4,0.7,0.7,1,1.1c0.3,0.4,0.5,0.7,0.7,1.1c0.2,0.4,0.3,0.8,0.3,1.2c0,0.1,0,0.2,0,0.2c0,0.1,0,0.1,0,0.2
			c-0.1,0.3-0.2,0.6-0.4,1s-0.4,0.6-0.6,0.8s-0.5,0.4-0.8,0.6c-0.3,0.1-0.7,0.2-1,0.2H70.3z"/>
		<path class="st0" d="M93.5,33.9h-3.9l-2.2,10.4h-2.6L87,33.9h-3.9l0.5-2.2H94L93.5,33.9z"/>
		<path class="st0" d="M93.1,44.4l2.7-12.7h6c1.1,0,2,0.2,2.6,0.7c0.6,0.4,0.9,1.2,0.9,2.2c0,0.4,0,0.8-0.1,1.2l0,0
			c-0.1,0.5-0.3,1-0.5,1.4s-0.5,0.8-0.8,1.1s-0.7,0.6-1.1,0.8s-0.8,0.4-1.2,0.5l2.1,4.8h-2.6l-2.7-6.3c0.2-0.1,0.3-0.2,0.4-0.3
			c0.1,0,0.2,0,0.3,0c0.9,0,1.7-0.2,2.3-0.5c0.6-0.3,1.1-0.9,1.3-1.7l0,0c0-0.2,0.1-0.3,0.1-0.4c0-0.2,0-0.4-0.1-0.6
			c-0.1-0.2-0.2-0.3-0.4-0.4c-0.1-0.1-0.3-0.2-0.4-0.2s-0.2,0-0.3,0H98l-2.2,10.4H93.1z"/>
		<path class="st0" d="M108.8,39l-0.7,3.2h6.6l-0.7,2.2h-8.9l2.7-12.7h9.1l-0.7,2.2h-6.3l-0.6,2.9h5.8l-0.8,2.2
			C114.3,39,108.8,39,108.8,39z"/>
		<path class="st0" d="M119.8,39l-0.7,3.2h6.6l-0.7,2.2h-8.9l2.7-12.7h9.1l-0.7,2.2h-6.3l-0.6,2.9h5.8l-0.8,2.2
			C125.3,39,119.8,39,119.8,39z"/>
		<path class="st0" d="M139.6,33.9h-3.9l-2.2,10.4h-2.6l2.2-10.4h-3.9l0.5-2.2h10.4L139.6,33.9z"/>
		<path class="st0" d="M160.5,38.6c-0.2,1-0.5,1.9-0.9,2.6c-0.4,0.7-0.9,1.3-1.4,1.8s-1.1,0.8-1.8,1c-0.6,0.2-1.3,0.3-2,0.3h-6.5
			l2.7-12.7h6.4c0.5,0,1,0.1,1.4,0.2c0.5,0.2,0.9,0.4,1.3,0.8c0.4,0.3,0.7,0.8,0.9,1.3s0.4,1.2,0.4,1.9c0,0.2,0,0.5,0,0.8
			s-0.1,0.5-0.1,0.8L160.5,38.6z M158.2,36.9c0-0.2,0-0.4,0-0.5c0-0.4-0.1-0.8-0.2-1.1c-0.1-0.3-0.3-0.6-0.6-0.8
			c-0.2-0.2-0.5-0.3-0.8-0.4c-0.3-0.1-0.7-0.1-1.1-0.1h-3.1l-1.8,8.2h3c0.5,0,0.9-0.1,1.4-0.2c0.4-0.1,0.8-0.4,1.2-0.7
			s0.7-0.7,1-1.2s0.5-1.1,0.6-1.8l0.2-0.7C158.1,37.3,158.2,37.1,158.2,36.9z"/>
		<path class="st0" d="M166.4,31.7h3.2l1.9,11.8v0.3c0,0.1-0.1,0.2-0.2,0.4c-0.1,0.1-0.2,0.2-0.2,0.2h-7.4l1.2-2.2h3.8l-1.1-7.4
			l-5.3,9.6h-2.7L166.4,31.7z"/>
		<path class="st0" d="M182.5,33.9h-3.9l-2.2,10.4h-2.6l2.2-10.4h-3.9l0.5-2.2H183L182.5,33.9z"/>
		<path class="st0" d="M186.1,31.7h3.2l1.9,11.8v0.3c0,0.1-0.1,0.2-0.2,0.4c-0.1,0.1-0.2,0.2-0.2,0.2h-7.4l1.2-2.2h3.8l-1.1-7.4
			l-5.3,9.6h-2.7L186.1,31.7z"/>
		<path class="st0" d="M192.4,44.4l2.7-12.7h4.6c0.5,0,1,0.1,1.4,0.2c0.4,0.1,0.8,0.3,1.1,0.6s0.6,0.6,0.8,1s0.3,0.8,0.3,1.4
			c0,0.1,0,0.3,0,0.5s0,0.3-0.1,0.5c-0.1,0.4-0.2,0.6-0.3,0.9c-0.1,0.2-0.2,0.4-0.3,0.6c0.6,0.6,0.9,1.3,0.9,2.2c0,0.2,0,0.3,0,0.5
			s0,0.3-0.1,0.5l0,0c-0.2,0.7-0.4,1.4-0.7,1.9s-0.6,0.9-1,1.2s-0.9,0.5-1.5,0.7c-0.6,0.1-1.2,0.2-1.9,0.2h-5.9V44.4z M198.9,36.1
			l0.3-0.1c0.2,0,0.4,0,0.7,0s0.5,0.1,0.7,0.1c0-0.1,0.1-0.2,0.1-0.3s0-0.2,0.1-0.3c0-0.2,0.1-0.3,0.1-0.4c0-0.2-0.1-0.4-0.2-0.6
			c-0.1-0.2-0.2-0.3-0.4-0.4c-0.1-0.1-0.3-0.2-0.4-0.2c-0.1,0-0.2,0-0.3,0h-2.4l-1.8,8.2h3.5c0.1,0,0.2,0,0.4-0.1
			c0.2,0,0.4-0.1,0.6-0.3c0.2-0.1,0.4-0.3,0.6-0.5c0.2-0.2,0.3-0.5,0.4-0.9l0,0c0-0.2,0.1-0.4,0.1-0.5c0-0.5-0.2-0.9-0.6-1.2
			c-0.4-0.3-1-0.4-1.9-0.4h-0.8L198.9,36.1z"/>
		<path class="st0" d="M210.2,31.7h3.2l1.9,11.8v0.3c0,0.1-0.1,0.2-0.2,0.4c-0.1,0.1-0.2,0.2-0.2,0.2h-7.4l1.2-2.2h3.8l-1.1-7.4
			l-5.3,9.6h-2.7L210.2,31.7z"/>
		<path class="st0" d="M216.6,44.4l0.5-2.2h5.2c0.6,0,1-0.3,1.1-0.9c0-0.2-0.1-0.3-0.1-0.5c-0.1-0.1-0.1-0.2-0.2-0.3l0,0l-3.8-3.8
			c-0.2-0.2-0.4-0.5-0.5-0.8s-0.1-0.6-0.1-0.9c0-0.1,0-0.2,0-0.3s0-0.1,0-0.2l0,0c0.1-0.6,0.3-1.1,0.6-1.4c0.3-0.4,0.6-0.6,0.9-0.8
			c0.3-0.2,0.7-0.3,1.1-0.4c0.4-0.1,0.7-0.1,1.1-0.1h5.5l-0.5,2.2h-5.1c-0.2,0-0.5,0.1-0.7,0.2c-0.2,0.1-0.4,0.3-0.4,0.4l-0.1,0.2
			v-0.1v0.1c0,0.1,0,0.3,0.1,0.4c0.1,0.2,0.2,0.3,0.4,0.5s0.4,0.4,0.6,0.6c0.2,0.2,0.4,0.4,0.7,0.7s0.7,0.7,1,1
			c0.4,0.4,0.7,0.7,1,1.1c0.3,0.4,0.5,0.7,0.7,1.1c0.2,0.4,0.3,0.8,0.3,1.2c0,0.1,0,0.2,0,0.2c0,0.1,0,0.1,0,0.2
			c-0.1,0.3-0.2,0.6-0.4,1c-0.2,0.3-0.4,0.6-0.6,0.8c-0.2,0.2-0.5,0.4-0.8,0.6c-0.3,0.1-0.7,0.2-1,0.2H216.6z"/>
		<path class="st0" d="M230.9,39l-0.7,3.2h6.6l-0.7,2.2h-8.9l2.7-12.7h9.1l-0.7,2.2H232l-0.6,2.9h5.8l-0.8,2.2
			C236.4,39,230.9,39,230.9,39z"/>
	</g>
	<g>
		<path class="st0" d="M6,0.8h40.4l-6.1,28.4H2.8c0,0,35.8-14,36.2-14.3c0,0,3.2-4.2,1.3-6c-0.6-0.6-1.5-0.6-4.7-0.6
			c0,0-0.1-1.2-5.1-2.4C29.9,5.8,6,0.8,6,0.8z M34.1,10.1c-0.9,0.3-1.7,0.5-2.6,0.6c-0.5,0-0.8,0-0.8,0.2s0.7,0.2,1,0.2
			c1.2,0,5.8-0.3,6.8-0.2c0.9,0.1-0.1,1.8-0.4,2.9c-0.1,0.4,0.2,0.2,0.3,0c0.3-0.5,1.2-2.2,1.3-2.9c0.2-1.3-0.8-1.5-2.3-1.5H35
			c-0.2,0-0.2,0.1-0.3,0.2C34.6,9.8,34.4,9.9,34.1,10.1z M19.2,19.7c3.7-1.8,6.3-3,9.4-4c1.8-0.7,3.6-1.2,5.4-1.6
			c1.5-0.3,3.4-0.6,3.6-0.8c0.4-0.2-0.4-0.6-2.3-0.5C30.7,13,23,16.1,19.9,17.6l-2.7-8.3h17.4c-0.2-2-10.3-2-10.6-2H4.6L0,29.2
			L19.2,19.7"/>
		<path class="st0" d="M72.5,0.3h5.8L75,15.9c-0.5,2.3-1.3,4.3-2.3,6s-2.2,3-3.5,4.1s-2.7,1.8-4.1,2.3s-2.8,0.8-4.1,0.8h-3.3
			c-1,0-2-0.2-3-0.6s-2-1-2.9-1.7c-0.9-0.8-1.6-1.8-2.2-3.1c-0.6-1.2-0.9-2.7-0.9-4.5c0-0.6,0-1.1,0.1-1.7s0.1-1.2,0.3-1.8l3.3-15.4
			h5.9L55,15.4c-0.3,1.2-0.4,2.3-0.4,3.3c0,1.9,0.5,3.3,1.4,4.1c0.9,0.8,2.3,1.3,4,1.3h0.3c2.2,0,4.1-0.7,5.7-2
			c1.6-1.4,2.7-3.6,3.4-6.7L72.5,0.3z"/>
		<path class="st0" d="M76.4,29.1l1.1-5h11.8c1.4,0,2.3-0.7,2.6-2c0-0.4-0.1-0.8-0.3-1c-0.2-0.3-0.3-0.5-0.5-0.8l0,0l-8.5-8.7
			c-0.5-0.5-0.9-1.2-1.1-1.9C81.1,8.9,81,8.2,81,7.6c0-0.2,0-0.4,0-0.6c0-0.1,0-0.3,0.1-0.4V6.5c0.3-1.3,0.7-2.4,1.3-3.2
			c0.6-0.8,1.3-1.5,2.1-1.9C85.3,1,86.1,0.7,87,0.5c0.9-0.1,1.7-0.2,2.4-0.2H102l-1,5.1H89.5c-0.6,0-1.1,0.1-1.6,0.4
			S87.1,6.4,87,6.7l-0.1,0.4V7v0.2c0,0.3,0.1,0.6,0.3,0.9c0.2,0.4,0.5,0.7,0.9,1.2c0.4,0.4,0.8,0.9,1.3,1.4s1,1,1.5,1.5
			c0.8,0.7,1.5,1.5,2.3,2.3s1.5,1.6,2.2,2.5c0.7,0.8,1.2,1.7,1.6,2.6s0.6,1.8,0.6,2.7c0,0.2,0,0.4,0,0.6s0,0.3-0.1,0.5
			c-0.2,0.7-0.4,1.5-0.8,2.2s-0.8,1.3-1.4,1.9c-0.5,0.6-1.2,1-1.9,1.4c-0.7,0.3-1.5,0.5-2.4,0.5H76.4V29.1z"/>
		<path class="st0" d="M111.3,5.4l-5,23.7h-5.8l6.2-28.8h13.6c2.8,0,4.8,0.6,6.1,1.8c1.3,1.2,1.9,2.9,1.9,5c0,0.8-0.1,1.7-0.3,2.5
			c-0.3,1.6-1,2.9-2,4.1s-2.3,2.2-3.7,3c-1.4,0.8-2.9,1.5-4.5,1.9s-3.1,0.7-4.4,0.7l-0.5-5.1c1.3,0,2.5-0.1,3.6-0.4s2.1-0.6,2.9-1.1
			s1.5-1,2-1.6s0.8-1.2,1-1.9V9.1c0.1-0.4,0.1-0.7,0.1-1c0-0.6-0.1-1-0.3-1.4c-0.2-0.4-0.5-0.6-0.8-0.8c-0.3-0.2-0.6-0.3-0.9-0.4
			s-0.5-0.1-0.7-0.1H111.3z"/>
		<path class="st0" d="M127,29.1l1.1-5h11.8c1.4,0,2.3-0.7,2.6-2c0-0.4-0.1-0.8-0.3-1c-0.2-0.3-0.3-0.5-0.5-0.8l0,0l-8.5-8.7
			c-0.5-0.5-0.9-1.2-1.1-1.9c-0.2-0.8-0.3-1.4-0.3-2.1c0-0.2,0-0.4,0-0.6c0-0.1,0-0.3,0.1-0.4V6.5c0.3-1.3,0.7-2.4,1.3-3.2
			s1.3-1.5,2.1-1.9s1.6-0.7,2.5-0.9c0.9-0.1,1.7-0.2,2.4-0.2h12.6l-1.1,5.1h-11.5c-0.6,0-1.1,0.1-1.6,0.4s-0.8,0.6-0.9,0.9l-0.1,0.4
			V7v0.2c0,0.3,0.1,0.6,0.3,0.9c0.2,0.4,0.5,0.7,0.9,1.2c0.4,0.4,0.8,0.9,1.3,1.4s1,1,1.5,1.5c0.8,0.7,1.5,1.5,2.3,2.3
			s1.5,1.6,2.2,2.5s1.2,1.7,1.6,2.6c0.4,0.9,0.6,1.8,0.6,2.7c0,0.2,0,0.4,0,0.6s0,0.3-0.1,0.5c-0.2,0.7-0.4,1.5-0.8,2.2
			c-0.4,0.7-0.8,1.3-1.4,1.9c-0.5,0.6-1.2,1-1.9,1.4c-0.7,0.3-1.5,0.5-2.4,0.5H127V29.1z"/>
		<path class="st1" d="M156.9,29.1L163,0.3h13.6c2.6,0,4.6,0.5,6,1.5s2.1,2.6,2.1,4.9c0,0.5,0,1-0.1,1.4c0,0.5-0.1,0.9-0.2,1.3
			c-0.2,1.2-0.6,2.2-1.2,3.1c-0.5,0.9-1.2,1.8-1.9,2.5c-0.8,0.7-1.6,1.4-2.5,1.9s-1.8,0.9-2.8,1.2l4.9,10.8H175l-6.2-14.4
			c0.4-0.3,0.8-0.5,0.9-0.6c0.2-0.1,0.4-0.1,0.6-0.1c2.1,0,3.9-0.4,5.3-1.1c1.4-0.7,2.4-2,3-3.8l0,0c0.1-0.4,0.1-0.7,0.1-1
			c0-0.6-0.1-1-0.3-1.4s-0.5-0.6-0.8-0.8c-0.3-0.2-0.6-0.3-0.9-0.4c-0.3-0.1-0.5-0.1-0.7-0.1h-8.3l-5,23.7h-5.8V29.1z"/>
		<path class="st1" d="M184.3,29.1l1.1-5h11.8c1.4,0,2.3-0.7,2.6-2c0-0.4-0.1-0.8-0.3-1c-0.2-0.3-0.3-0.5-0.5-0.8l0,0l-8.5-8.7
			c-0.5-0.5-0.9-1.2-1.1-1.9c-0.2-0.8-0.3-1.4-0.3-2.1c0-0.2,0-0.4,0-0.6c0-0.1,0-0.3,0.1-0.4V6.5c0.3-1.3,0.7-2.4,1.3-3.2
			s1.3-1.5,2.1-1.9s1.6-0.7,2.5-0.9c0.9-0.1,1.7-0.2,2.4-0.2H210l-1,5.1h-11.5c-0.6,0-1.1,0.1-1.6,0.4s-0.8,0.6-0.9,0.9l-0.1,0.4V7
			v0.2c0,0.3,0.1,0.6,0.3,0.9c0.2,0.4,0.5,0.7,0.9,1.2c0.4,0.4,0.8,0.9,1.3,1.4s1,1,1.5,1.5c0.8,0.7,1.5,1.5,2.3,2.3
			s1.5,1.6,2.2,2.5c0.7,0.8,1.2,1.7,1.6,2.6c0.4,0.9,0.6,1.8,0.6,2.7c0,0.2,0,0.4,0,0.6s0,0.3-0.1,0.5c-0.2,0.7-0.4,1.5-0.8,2.2
			c-0.4,0.7-0.8,1.3-1.4,1.9c-0.5,0.6-1.2,1-1.9,1.4c-0.7,0.3-1.5,0.5-2.4,0.5h-14.7V29.1z"/>
		<path class="st1" d="M237.2,15.9c-0.5,2.3-1.2,4.3-2.1,6c-0.9,1.7-2,3-3.2,4.1s-2.6,1.8-4.1,2.3s-3,0.8-4.6,0.8h-14.8l6.1-28.8
			h14.6c1.1,0,2.2,0.2,3.2,0.6c1.1,0.4,2,0.9,2.9,1.7s1.5,1.8,2.1,3c0.5,1.2,0.8,2.7,0.8,4.4c0,0.6,0,1.1-0.1,1.7
			c0,0.6-0.1,1.2-0.3,1.9L237.2,15.9z M232.2,12.1c0.1-0.5,0.1-0.8,0.1-1.1c0-1-0.2-1.9-0.5-2.6c-0.3-0.7-0.7-1.3-1.3-1.7
			c-0.5-0.4-1.2-0.8-1.9-1s-1.5-0.3-2.4-0.3h-7l-4,18.7h6.7c1.1,0,2.1-0.2,3.1-0.5s1.9-0.8,2.7-1.5s1.6-1.6,2.2-2.7
			c0.6-1.1,1.1-2.4,1.4-4l0.4-1.6C232,13.1,232.1,12.5,232.2,12.1z"/>
		<path class="st0" d="M159.5,2.7c0,1.5-1.2,2.7-2.7,2.7s-2.7-1.2-2.7-2.7s1.2-2.7,2.7-2.7l0,0C158.2,0,159.5,1.1,159.5,2.7
			C159.5,2.6,159.5,2.7,159.5,2.7z M154.5,2.7c0,1.3,0.9,2.3,2.2,2.3s2.3-0.9,2.3-2.2c0-0.1,0-0.1,0-0.2c0-1.3-0.9-2.3-2.2-2.3
			s-2.3,0.9-2.3,2.2C154.5,2.6,154.5,2.6,154.5,2.7z M156.2,4.2h-0.4V1.1h1.2c0.7,0,1,0.3,1,0.9c0,0.5-0.3,0.8-0.8,0.9l0.9,1.4h-0.5
			l-0.9-1.4h-0.6L156.2,4.2L156.2,4.2z M156.7,2.5c0.5,0,0.9,0,0.9-0.6c0-0.4-0.4-0.5-0.7-0.5h-0.7v1.1H156.7z"/>
	</g>
</g>
</svg>
